<?xml version="1.0" encoding="utf-8" standalone="no"?>
<!DOCTYPE svg PUBLIC "-//W3C//DTD SVG 1.1//EN"
  "http://www.w3.org/Graphics/SVG/1.1/DTD/svg11.dtd">
<svg xmlns:xlink="http://www.w3.org/1999/xlink" width="452.6075pt" height="336.251562pt" viewBox="0 0 452.6075 336.251562" xmlns="http://www.w3.org/2000/svg" version="1.1">
 <metadata>
  <rdf:RDF xmlns:dc="http://purl.org/dc/elements/1.1/" xmlns:cc="http://creativecommons.org/ns#" xmlns:rdf="http://www.w3.org/1999/02/22-rdf-syntax-ns#">
   <cc:Work>
    <dc:type rdf:resource="http://purl.org/dc/dcmitype/StillImage"/>
    <dc:date>2025-03-26T23:04:31.938388</dc:date>
    <dc:format>image/svg+xml</dc:format>
    <dc:creator>
     <cc:Agent>
      <dc:title>Matplotlib v3.10.1, https://matplotlib.org/</dc:title>
     </cc:Agent>
    </dc:creator>
   </cc:Work>
  </rdf:RDF>
 </metadata>
 <defs>
  <style type="text/css">*{stroke-linejoin: round; stroke-linecap: butt}</style>
 </defs>
 <g id="figure_1">
  <g id="patch_1">
   <path d="M 0 336.251562 
L 452.6075 336.251562 
L 452.6075 0 
L 0 0 
z
" style="fill: #ffffff"/>
  </g>
  <g id="axes_1">
   <g id="patch_2">
    <path d="M 46.6375 300.278125 
L 445.4075 300.278125 
L 445.4075 23.090625 
L 46.6375 23.090625 
z
" style="fill: #ffffff"/>
   </g>
   <g id="matplotlib.axis_1">
    <g id="xtick_1">
     <g id="line2d_1">
      <path d="M 64.727154 300.278125 
L 64.727154 23.090625 
" clip-path="url(#pf5ef2fdd78)" style="fill: none; stroke: #b0b0b0; stroke-width: 0.8; stroke-linecap: square"/>
     </g>
     <g id="line2d_2">
      <defs>
       <path id="m14c570b2a2" d="M 0 0 
L 0 3.5 
" style="stroke: #000000; stroke-width: 0.8"/>
      </defs>
      <g>
       <use xlink:href="#m14c570b2a2" x="64.727154" y="300.278125" style="stroke: #000000; stroke-width: 0.8"/>
      </g>
     </g>
     <g id="text_1">
      <!-- 0.00 -->
      <g transform="translate(54.727154 314.426562) scale(0.1 -0.1)">
       <defs>
        <path id="SimSun-30" d="M 1600 4225 
Q 1250 4225 1012 3687 
Q 775 3150 775 2250 
Q 775 1300 1012 775 
Q 1250 250 1600 250 
Q 1975 250 2187 775 
Q 2400 1300 2400 2250 
Q 2400 3150 2200 3687 
Q 2000 4225 1600 4225 
z
M 1600 50 
Q 1050 50 675 625 
Q 300 1200 300 2250 
Q 300 3225 662 3825 
Q 1025 4425 1600 4425 
Q 2150 4425 2512 3850 
Q 2875 3275 2875 2250 
Q 2875 1225 2512 637 
Q 2150 50 1600 50 
z
" transform="scale(0.015625)"/>
        <path id="SimSun-2e" d="M 800 25 
Q 650 25 537 125 
Q 425 225 425 400 
Q 425 575 537 675 
Q 650 775 800 775 
Q 950 775 1062 662 
Q 1175 550 1175 400 
Q 1175 225 1062 125 
Q 950 25 800 25 
z
" transform="scale(0.015625)"/>
       </defs>
       <use xlink:href="#SimSun-30"/>
       <use xlink:href="#SimSun-2e" transform="translate(50 0)"/>
       <use xlink:href="#SimSun-30" transform="translate(100 0)"/>
       <use xlink:href="#SimSun-30" transform="translate(150 0)"/>
      </g>
     </g>
    </g>
    <g id="xtick_2">
     <g id="line2d_3">
      <path d="M 137.238041 300.278125 
L 137.238041 23.090625 
" clip-path="url(#pf5ef2fdd78)" style="fill: none; stroke: #b0b0b0; stroke-width: 0.8; stroke-linecap: square"/>
     </g>
     <g id="line2d_4">
      <g>
       <use xlink:href="#m14c570b2a2" x="137.238041" y="300.278125" style="stroke: #000000; stroke-width: 0.8"/>
      </g>
     </g>
     <g id="text_2">
      <!-- 0.02 -->
      <g transform="translate(127.238041 314.426562) scale(0.1 -0.1)">
       <defs>
        <path id="SimSun-32" d="M 2325 3325 
Q 2325 3775 2125 4012 
Q 1925 4250 1525 4250 
Q 1225 4250 1012 4087 
Q 800 3925 800 3675 
Q 800 3525 900 3425 
Q 975 3325 975 3225 
Q 975 3100 912 3037 
Q 850 2975 725 2975 
Q 575 2975 487 3062 
Q 400 3150 400 3350 
Q 400 3875 775 4150 
Q 1150 4425 1575 4425 
Q 2175 4425 2462 4125 
Q 2750 3825 2750 3375 
Q 2750 3075 2612 2775 
Q 2475 2475 2175 2200 
Q 1450 1500 1062 1062 
Q 675 625 600 475 
L 2075 475 
Q 2300 475 2450 650 
Q 2600 825 2650 1175 
L 2800 1175 
L 2650 100 
L 325 100 
L 325 425 
Q 450 650 737 1000 
Q 1025 1350 1500 1825 
Q 1925 2250 2125 2625 
Q 2325 3000 2325 3325 
z
" transform="scale(0.015625)"/>
       </defs>
       <use xlink:href="#SimSun-30"/>
       <use xlink:href="#SimSun-2e" transform="translate(50 0)"/>
       <use xlink:href="#SimSun-30" transform="translate(100 0)"/>
       <use xlink:href="#SimSun-32" transform="translate(150 0)"/>
      </g>
     </g>
    </g>
    <g id="xtick_3">
     <g id="line2d_5">
      <path d="M 209.748929 300.278125 
L 209.748929 23.090625 
" clip-path="url(#pf5ef2fdd78)" style="fill: none; stroke: #b0b0b0; stroke-width: 0.8; stroke-linecap: square"/>
     </g>
     <g id="line2d_6">
      <g>
       <use xlink:href="#m14c570b2a2" x="209.748929" y="300.278125" style="stroke: #000000; stroke-width: 0.8"/>
      </g>
     </g>
     <g id="text_3">
      <!-- 0.04 -->
      <g transform="translate(199.748929 314.426562) scale(0.1 -0.1)">
       <defs>
        <path id="SimSun-34" d="M 2300 575 
Q 2300 400 2400 325 
Q 2500 250 2675 250 
L 2900 250 
L 2900 100 
L 1250 100 
L 1250 250 
L 1525 250 
Q 1725 250 1812 325 
Q 1900 400 1900 575 
L 1900 1400 
L 225 1400 
L 225 1525 
L 2050 4425 
L 2300 4425 
L 2300 1550 
L 2975 1550 
L 2975 1400 
L 2300 1400 
L 2300 575 
z
M 1875 3800 
L 450 1550 
L 1900 1550 
L 1900 3800 
L 1875 3800 
z
" transform="scale(0.015625)"/>
       </defs>
       <use xlink:href="#SimSun-30"/>
       <use xlink:href="#SimSun-2e" transform="translate(50 0)"/>
       <use xlink:href="#SimSun-30" transform="translate(100 0)"/>
       <use xlink:href="#SimSun-34" transform="translate(150 0)"/>
      </g>
     </g>
    </g>
    <g id="xtick_4">
     <g id="line2d_7">
      <path d="M 282.259816 300.278125 
L 282.259816 23.090625 
" clip-path="url(#pf5ef2fdd78)" style="fill: none; stroke: #b0b0b0; stroke-width: 0.8; stroke-linecap: square"/>
     </g>
     <g id="line2d_8">
      <g>
       <use xlink:href="#m14c570b2a2" x="282.259816" y="300.278125" style="stroke: #000000; stroke-width: 0.8"/>
      </g>
     </g>
     <g id="text_4">
      <!-- 0.06 -->
      <g transform="translate(272.259816 314.426562) scale(0.1 -0.1)">
       <defs>
        <path id="SimSun-36" d="M 775 1800 
Q 775 1050 1037 637 
Q 1300 225 1675 225 
Q 2050 225 2250 500 
Q 2450 775 2450 1525 
Q 2450 2025 2237 2300 
Q 2025 2575 1725 2575 
Q 1450 2575 1212 2412 
Q 975 2250 775 1800 
z
M 1750 2825 
Q 2350 2825 2612 2425 
Q 2875 2025 2875 1525 
Q 2875 775 2512 412 
Q 2150 50 1675 50 
Q 1000 50 650 562 
Q 300 1075 300 2050 
Q 300 3200 725 3812 
Q 1150 4425 1875 4425 
Q 2225 4425 2437 4225 
Q 2650 4025 2650 3875 
Q 2650 3725 2587 3650 
Q 2525 3575 2375 3575 
Q 2250 3575 2187 3637 
Q 2125 3700 2125 3825 
Q 2125 3875 2150 3925 
Q 2150 3975 2150 4025 
Q 2150 4125 2075 4187 
Q 2000 4250 1800 4250 
Q 1375 4250 1075 3862 
Q 775 3475 775 2175 
Q 925 2500 1187 2662 
Q 1450 2825 1750 2825 
z
" transform="scale(0.015625)"/>
       </defs>
       <use xlink:href="#SimSun-30"/>
       <use xlink:href="#SimSun-2e" transform="translate(50 0)"/>
       <use xlink:href="#SimSun-30" transform="translate(100 0)"/>
       <use xlink:href="#SimSun-36" transform="translate(150 0)"/>
      </g>
     </g>
    </g>
    <g id="xtick_5">
     <g id="line2d_9">
      <path d="M 354.770703 300.278125 
L 354.770703 23.090625 
" clip-path="url(#pf5ef2fdd78)" style="fill: none; stroke: #b0b0b0; stroke-width: 0.8; stroke-linecap: square"/>
     </g>
     <g id="line2d_10">
      <g>
       <use xlink:href="#m14c570b2a2" x="354.770703" y="300.278125" style="stroke: #000000; stroke-width: 0.8"/>
      </g>
     </g>
     <g id="text_5">
      <!-- 0.08 -->
      <g transform="translate(344.770703 314.426562) scale(0.1 -0.1)">
       <defs>
        <path id="SimSun-38" d="M 625 1125 
Q 625 725 887 475 
Q 1150 225 1550 225 
Q 2025 225 2237 475 
Q 2450 725 2450 1100 
Q 2450 1425 2150 1725 
Q 1850 2025 1250 2275 
Q 950 2075 787 1775 
Q 625 1475 625 1125 
z
M 2825 1175 
Q 2825 700 2475 375 
Q 2125 50 1550 50 
Q 1025 50 650 375 
Q 275 700 275 1125 
Q 275 1550 487 1850 
Q 700 2150 1100 2375 
Q 750 2550 562 2812 
Q 375 3075 375 3400 
Q 375 3825 700 4125 
Q 1025 4425 1600 4425 
Q 2125 4425 2450 4125 
Q 2775 3825 2775 3400 
Q 2775 3100 2587 2837 
Q 2400 2575 2000 2375 
Q 2425 2125 2625 1825 
Q 2825 1525 2825 1175 
z
M 2425 3375 
Q 2425 3725 2225 3987 
Q 2025 4250 1600 4250 
Q 1125 4250 925 4000 
Q 725 3750 725 3475 
Q 725 3200 1012 2937 
Q 1300 2675 1825 2475 
Q 2125 2625 2275 2850 
Q 2425 3075 2425 3375 
z
" transform="scale(0.015625)"/>
       </defs>
       <use xlink:href="#SimSun-30"/>
       <use xlink:href="#SimSun-2e" transform="translate(50 0)"/>
       <use xlink:href="#SimSun-30" transform="translate(100 0)"/>
       <use xlink:href="#SimSun-38" transform="translate(150 0)"/>
      </g>
     </g>
    </g>
    <g id="xtick_6">
     <g id="line2d_11">
      <path d="M 427.281591 300.278125 
L 427.281591 23.090625 
" clip-path="url(#pf5ef2fdd78)" style="fill: none; stroke: #b0b0b0; stroke-width: 0.8; stroke-linecap: square"/>
     </g>
     <g id="line2d_12">
      <g>
       <use xlink:href="#m14c570b2a2" x="427.281591" y="300.278125" style="stroke: #000000; stroke-width: 0.8"/>
      </g>
     </g>
     <g id="text_6">
      <!-- 0.10 -->
      <g transform="translate(417.281591 314.426562) scale(0.1 -0.1)">
       <defs>
        <path id="SimSun-31" d="M 1825 4450 
L 1825 650 
Q 1825 450 1950 350 
Q 2075 250 2300 250 
L 2550 250 
L 2550 100 
L 725 100 
L 725 250 
L 950 250 
Q 1200 250 1312 350 
Q 1425 450 1425 650 
L 1425 3675 
Q 1425 3775 1362 3837 
Q 1300 3900 1175 3900 
L 725 3900 
L 725 4050 
L 950 4050 
Q 1250 4050 1437 4150 
Q 1625 4250 1725 4450 
L 1825 4450 
z
" transform="scale(0.015625)"/>
       </defs>
       <use xlink:href="#SimSun-30"/>
       <use xlink:href="#SimSun-2e" transform="translate(50 0)"/>
       <use xlink:href="#SimSun-31" transform="translate(100 0)"/>
       <use xlink:href="#SimSun-30" transform="translate(150 0)"/>
      </g>
     </g>
    </g>
    <g id="text_7">
     <!-- Δx (Step size) -->
     <g transform="translate(208.5225 327.7625) scale(0.1 -0.1)">
      <defs>
       <path id="SimSun-394" d="M 4850 575 
L 1525 575 
L 3125 4475 
L 4850 575 
z
M 1825 750 
L 4300 750 
L 3025 3725 
L 1825 750 
z
" transform="scale(0.015625)"/>
       <path id="SimSun-78" d="M 1675 1825 
L 2125 2500 
Q 2200 2600 2187 2675 
Q 2175 2750 2000 2750 
L 1850 2750 
L 1850 2900 
L 2825 2900 
L 2825 2750 
L 2700 2750 
Q 2650 2750 2575 2737 
Q 2500 2725 2450 2650 
L 1775 1650 
L 2475 500 
Q 2550 375 2662 312 
Q 2775 250 2825 250 
L 2925 250 
L 2925 100 
L 1825 100 
L 1825 250 
L 1975 250 
Q 2125 250 2137 325 
Q 2150 400 2100 500 
L 1575 1350 
L 975 475 
Q 950 350 987 300 
Q 1025 250 1125 250 
L 1200 250 
L 1200 100 
L 225 100 
L 225 250 
L 375 250 
Q 475 250 600 325 
Q 725 400 800 550 
L 1450 1525 
L 800 2575 
Q 775 2625 700 2687 
Q 625 2750 500 2750 
L 375 2750 
L 375 2900 
L 1450 2900 
L 1450 2750 
L 1375 2750 
Q 1250 2750 1225 2675 
Q 1200 2600 1250 2500 
L 1675 1825 
z
M 600 250 
L 600 250 
z
M 825 250 
L 825 250 
z
M 2525 2750 
L 2525 2750 
z
M 2300 2750 
L 2300 2750 
z
M 2250 250 
L 2250 250 
z
M 2625 250 
L 2625 250 
z
M 1100 2750 
L 1100 2750 
z
M 700 2750 
L 700 2750 
z
" transform="scale(0.015625)"/>
       <path id="SimSun-20" d="M 0 0 
Q 0 0 0 0 
z
" transform="scale(0.015625)"/>
       <path id="SimSun-28" d="M 2900 5025 
Q 2325 4425 2037 3737 
Q 1750 3050 1750 2300 
Q 1750 1525 2037 850 
Q 2325 175 2900 -425 
L 2775 -550 
Q 2075 75 1725 787 
Q 1375 1500 1375 2300 
Q 1375 3075 1725 3787 
Q 2075 4500 2775 5150 
L 2900 5025 
z
" transform="scale(0.015625)"/>
       <path id="SimSun-53" d="M 1500 2150 
Q 825 2450 575 2675 
Q 325 2900 325 3375 
Q 325 3750 637 4087 
Q 950 4425 1525 4425 
Q 1775 4425 2000 4350 
Q 2225 4250 2325 4250 
Q 2400 4250 2462 4287 
Q 2525 4325 2575 4425 
L 2675 3400 
L 2550 3350 
Q 2325 3875 2087 4062 
Q 1850 4250 1475 4250 
Q 1000 4250 825 3987 
Q 650 3725 650 3425 
Q 650 3150 812 2987 
Q 975 2825 1700 2500 
Q 2300 2250 2562 1937 
Q 2825 1625 2825 1200 
Q 2825 750 2512 400 
Q 2200 50 1600 50 
Q 1350 50 1150 150 
Q 925 225 800 225 
Q 725 225 650 175 
Q 575 125 475 50 
L 275 1275 
L 425 1325 
Q 600 700 912 462 
Q 1225 225 1625 225 
Q 2050 225 2262 475 
Q 2475 725 2475 1200 
Q 2475 1450 2237 1687 
Q 2000 1925 1500 2150 
z
" transform="scale(0.015625)"/>
       <path id="SimSun-74" d="M 1500 900 
Q 1500 550 1625 425 
Q 1750 300 2000 300 
Q 2250 300 2400 462 
Q 2550 625 2600 925 
L 2725 875 
Q 2675 525 2462 300 
Q 2250 75 1900 75 
Q 1525 75 1337 300 
Q 1150 525 1150 1000 
L 1150 2750 
L 400 2750 
L 400 2900 
L 600 2900 
Q 900 2900 1087 3087 
Q 1275 3275 1325 3675 
L 1350 3875 
L 1500 3875 
L 1500 2900 
L 2500 2900 
L 2500 2750 
L 1500 2750 
L 1500 900 
z
" transform="scale(0.015625)"/>
       <path id="SimSun-65" d="M 2400 1650 
Q 2425 2200 2212 2487 
Q 2000 2775 1650 2775 
Q 1275 2775 1037 2475 
Q 800 2175 800 1650 
L 2400 1650 
z
M 800 1500 
Q 800 825 1062 537 
Q 1325 250 1750 250 
Q 2075 250 2300 437 
Q 2525 625 2625 900 
L 2750 850 
Q 2675 575 2412 312 
Q 2150 50 1700 50 
Q 1125 50 762 425 
Q 400 800 400 1500 
Q 400 2125 762 2537 
Q 1125 2950 1650 2950 
Q 2125 2950 2475 2625 
Q 2825 2300 2825 1500 
L 800 1500 
z
" transform="scale(0.015625)"/>
       <path id="SimSun-70" d="M 1150 -675 
L 1325 -675 
L 1325 -825 
L 175 -825 
L 175 -675 
L 325 -675 
Q 450 -675 500 -625 
Q 550 -575 550 -450 
L 550 2500 
Q 550 2600 500 2662 
Q 450 2725 325 2725 
L 175 2725 
L 175 2875 
L 400 2875 
Q 525 2875 637 2900 
Q 750 2925 850 3000 
L 900 3000 
L 900 2425 
Q 1075 2675 1287 2800 
Q 1500 2925 1750 2925 
Q 2250 2925 2575 2587 
Q 2900 2250 2900 1525 
Q 2900 825 2550 450 
Q 2200 75 1725 75 
Q 1450 75 1262 162 
Q 1075 250 900 425 
L 900 -450 
Q 900 -575 975 -625 
Q 1050 -675 1150 -675 
z
M 900 750 
Q 1025 500 1212 375 
Q 1400 250 1650 250 
Q 2000 250 2250 562 
Q 2500 875 2500 1525 
Q 2500 2125 2312 2425 
Q 2125 2725 1750 2725 
Q 1525 2725 1300 2587 
Q 1075 2450 900 2150 
L 900 750 
z
" transform="scale(0.015625)"/>
       <path id="SimSun-73" d="M 625 2175 
Q 625 2550 912 2750 
Q 1200 2950 1600 2950 
Q 1825 2950 2025 2900 
Q 2225 2825 2300 2825 
Q 2375 2825 2425 2850 
Q 2475 2875 2550 2950 
L 2650 2125 
L 2500 2100 
Q 2400 2425 2162 2612 
Q 1925 2800 1625 2800 
Q 1300 2800 1112 2675 
Q 925 2550 925 2325 
Q 925 2125 1012 2012 
Q 1100 1900 1325 1850 
Q 1500 1775 1775 1700 
Q 2025 1600 2250 1500 
Q 2450 1400 2587 1237 
Q 2725 1075 2725 875 
Q 2725 500 2462 287 
Q 2200 75 1700 75 
Q 1375 75 1225 150 
Q 1050 200 950 200 
Q 875 200 787 162 
Q 700 125 600 75 
L 525 1000 
L 675 1025 
Q 750 625 1000 425 
Q 1250 225 1700 225 
Q 2050 225 2237 350 
Q 2425 475 2425 725 
Q 2425 900 2325 1012 
Q 2225 1125 2125 1175 
Q 1875 1275 1575 1400 
Q 1275 1500 1050 1600 
Q 825 1700 725 1850 
Q 625 2000 625 2175 
z
" transform="scale(0.015625)"/>
       <path id="SimSun-69" d="M 1425 2525 
Q 1425 2625 1375 2687 
Q 1325 2750 1200 2750 
L 675 2750 
L 675 2900 
L 925 2900 
Q 1150 2900 1350 2937 
Q 1550 2975 1725 3075 
L 1775 3075 
L 1775 450 
Q 1775 350 1837 300 
Q 1900 250 2000 250 
L 2525 250 
L 2525 100 
L 675 100 
L 675 250 
L 1200 250 
Q 1325 250 1375 300 
Q 1425 350 1425 450 
L 1425 2525 
z
M 1725 3025 
L 1725 3025 
z
M 1625 4425 
Q 1750 4425 1850 4337 
Q 1950 4250 1950 4125 
Q 1950 4000 1850 3900 
Q 1750 3800 1625 3800 
Q 1500 3800 1400 3900 
Q 1300 4000 1300 4125 
Q 1300 4250 1400 4337 
Q 1500 4425 1625 4425 
z
" transform="scale(0.015625)"/>
       <path id="SimSun-7a" d="M 2750 1075 
L 2575 100 
L 425 100 
L 425 225 
L 2150 2750 
L 1225 2750 
Q 1000 2750 850 2587 
Q 700 2425 600 2025 
L 450 2050 
L 550 2900 
L 2600 2900 
L 2600 2825 
L 850 250 
L 1800 250 
Q 2125 250 2312 450 
Q 2500 650 2600 1100 
L 2750 1075 
z
" transform="scale(0.015625)"/>
       <path id="SimSun-29" d="M 275 5025 
L 400 5150 
Q 1100 4500 1450 3787 
Q 1800 3075 1800 2300 
Q 1800 1500 1450 787 
Q 1100 75 400 -550 
L 275 -425 
Q 850 175 1137 850 
Q 1425 1525 1425 2300 
Q 1425 3050 1137 3737 
Q 850 4425 275 5025 
z
" transform="scale(0.015625)"/>
      </defs>
      <use xlink:href="#SimSun-394"/>
      <use xlink:href="#SimSun-78" transform="translate(100 0)"/>
      <use xlink:href="#SimSun-20" transform="translate(150 0)"/>
      <use xlink:href="#SimSun-28" transform="translate(200 0)"/>
      <use xlink:href="#SimSun-53" transform="translate(250 0)"/>
      <use xlink:href="#SimSun-74" transform="translate(300 0)"/>
      <use xlink:href="#SimSun-65" transform="translate(350 0)"/>
      <use xlink:href="#SimSun-70" transform="translate(400 0)"/>
      <use xlink:href="#SimSun-20" transform="translate(450 0)"/>
      <use xlink:href="#SimSun-73" transform="translate(500 0)"/>
      <use xlink:href="#SimSun-69" transform="translate(550 0)"/>
      <use xlink:href="#SimSun-7a" transform="translate(600 0)"/>
      <use xlink:href="#SimSun-65" transform="translate(650 0)"/>
      <use xlink:href="#SimSun-29" transform="translate(700 0)"/>
     </g>
    </g>
   </g>
   <g id="matplotlib.axis_2">
    <g id="ytick_1">
     <g id="line2d_13">
      <path d="M 46.6375 287.678693 
L 445.4075 287.678693 
" clip-path="url(#pf5ef2fdd78)" style="fill: none; stroke: #b0b0b0; stroke-width: 0.8; stroke-linecap: square"/>
     </g>
     <g id="line2d_14">
      <defs>
       <path id="m500402965a" d="M 0 0 
L -3.5 0 
" style="stroke: #000000; stroke-width: 0.8"/>
      </defs>
      <g>
       <use xlink:href="#m500402965a" x="46.6375" y="287.678693" style="stroke: #000000; stroke-width: 0.8"/>
      </g>
     </g>
     <g id="text_8">
      <!-- 0.00 -->
      <g transform="translate(19.6375 291.252912) scale(0.1 -0.1)">
       <use xlink:href="#SimSun-30"/>
       <use xlink:href="#SimSun-2e" transform="translate(50 0)"/>
       <use xlink:href="#SimSun-30" transform="translate(100 0)"/>
       <use xlink:href="#SimSun-30" transform="translate(150 0)"/>
      </g>
     </g>
    </g>
    <g id="ytick_2">
     <g id="line2d_15">
      <path d="M 46.6375 255.352072 
L 445.4075 255.352072 
" clip-path="url(#pf5ef2fdd78)" style="fill: none; stroke: #b0b0b0; stroke-width: 0.8; stroke-linecap: square"/>
     </g>
     <g id="line2d_16">
      <g>
       <use xlink:href="#m500402965a" x="46.6375" y="255.352072" style="stroke: #000000; stroke-width: 0.8"/>
      </g>
     </g>
     <g id="text_9">
      <!-- 0.05 -->
      <g transform="translate(19.6375 258.926291) scale(0.1 -0.1)">
       <defs>
        <path id="SimSun-35" d="M 1725 2850 
Q 2200 2850 2500 2487 
Q 2800 2125 2800 1525 
Q 2800 850 2487 450 
Q 2175 50 1525 50 
Q 1075 50 725 312 
Q 375 575 375 950 
Q 375 1100 462 1212 
Q 550 1325 700 1325 
Q 850 1325 900 1225 
Q 950 1125 950 1050 
Q 950 900 875 825 
Q 800 725 800 625 
Q 800 425 1037 325 
Q 1275 225 1550 225 
Q 1950 225 2162 550 
Q 2375 875 2375 1475 
Q 2375 1975 2187 2287 
Q 2000 2600 1625 2600 
Q 1350 2600 1150 2500 
Q 950 2400 775 2075 
L 550 2100 
L 675 4375 
L 2725 4375 
L 2650 4000 
L 850 4000 
L 750 2350 
Q 1000 2700 1237 2775 
Q 1475 2850 1725 2850 
z
" transform="scale(0.015625)"/>
       </defs>
       <use xlink:href="#SimSun-30"/>
       <use xlink:href="#SimSun-2e" transform="translate(50 0)"/>
       <use xlink:href="#SimSun-30" transform="translate(100 0)"/>
       <use xlink:href="#SimSun-35" transform="translate(150 0)"/>
      </g>
     </g>
    </g>
    <g id="ytick_3">
     <g id="line2d_17">
      <path d="M 46.6375 223.025451 
L 445.4075 223.025451 
" clip-path="url(#pf5ef2fdd78)" style="fill: none; stroke: #b0b0b0; stroke-width: 0.8; stroke-linecap: square"/>
     </g>
     <g id="line2d_18">
      <g>
       <use xlink:href="#m500402965a" x="46.6375" y="223.025451" style="stroke: #000000; stroke-width: 0.8"/>
      </g>
     </g>
     <g id="text_10">
      <!-- 0.10 -->
      <g transform="translate(19.6375 226.599669) scale(0.1 -0.1)">
       <use xlink:href="#SimSun-30"/>
       <use xlink:href="#SimSun-2e" transform="translate(50 0)"/>
       <use xlink:href="#SimSun-31" transform="translate(100 0)"/>
       <use xlink:href="#SimSun-30" transform="translate(150 0)"/>
      </g>
     </g>
    </g>
    <g id="ytick_4">
     <g id="line2d_19">
      <path d="M 46.6375 190.698829 
L 445.4075 190.698829 
" clip-path="url(#pf5ef2fdd78)" style="fill: none; stroke: #b0b0b0; stroke-width: 0.8; stroke-linecap: square"/>
     </g>
     <g id="line2d_20">
      <g>
       <use xlink:href="#m500402965a" x="46.6375" y="190.698829" style="stroke: #000000; stroke-width: 0.8"/>
      </g>
     </g>
     <g id="text_11">
      <!-- 0.15 -->
      <g transform="translate(19.6375 194.273048) scale(0.1 -0.1)">
       <use xlink:href="#SimSun-30"/>
       <use xlink:href="#SimSun-2e" transform="translate(50 0)"/>
       <use xlink:href="#SimSun-31" transform="translate(100 0)"/>
       <use xlink:href="#SimSun-35" transform="translate(150 0)"/>
      </g>
     </g>
    </g>
    <g id="ytick_5">
     <g id="line2d_21">
      <path d="M 46.6375 158.372208 
L 445.4075 158.372208 
" clip-path="url(#pf5ef2fdd78)" style="fill: none; stroke: #b0b0b0; stroke-width: 0.8; stroke-linecap: square"/>
     </g>
     <g id="line2d_22">
      <g>
       <use xlink:href="#m500402965a" x="46.6375" y="158.372208" style="stroke: #000000; stroke-width: 0.8"/>
      </g>
     </g>
     <g id="text_12">
      <!-- 0.20 -->
      <g transform="translate(19.6375 161.946427) scale(0.1 -0.1)">
       <use xlink:href="#SimSun-30"/>
       <use xlink:href="#SimSun-2e" transform="translate(50 0)"/>
       <use xlink:href="#SimSun-32" transform="translate(100 0)"/>
       <use xlink:href="#SimSun-30" transform="translate(150 0)"/>
      </g>
     </g>
    </g>
    <g id="ytick_6">
     <g id="line2d_23">
      <path d="M 46.6375 126.045587 
L 445.4075 126.045587 
" clip-path="url(#pf5ef2fdd78)" style="fill: none; stroke: #b0b0b0; stroke-width: 0.8; stroke-linecap: square"/>
     </g>
     <g id="line2d_24">
      <g>
       <use xlink:href="#m500402965a" x="46.6375" y="126.045587" style="stroke: #000000; stroke-width: 0.8"/>
      </g>
     </g>
     <g id="text_13">
      <!-- 0.25 -->
      <g transform="translate(19.6375 129.619805) scale(0.1 -0.1)">
       <use xlink:href="#SimSun-30"/>
       <use xlink:href="#SimSun-2e" transform="translate(50 0)"/>
       <use xlink:href="#SimSun-32" transform="translate(100 0)"/>
       <use xlink:href="#SimSun-35" transform="translate(150 0)"/>
      </g>
     </g>
    </g>
    <g id="ytick_7">
     <g id="line2d_25">
      <path d="M 46.6375 93.718965 
L 445.4075 93.718965 
" clip-path="url(#pf5ef2fdd78)" style="fill: none; stroke: #b0b0b0; stroke-width: 0.8; stroke-linecap: square"/>
     </g>
     <g id="line2d_26">
      <g>
       <use xlink:href="#m500402965a" x="46.6375" y="93.718965" style="stroke: #000000; stroke-width: 0.8"/>
      </g>
     </g>
     <g id="text_14">
      <!-- 0.30 -->
      <g transform="translate(19.6375 97.293184) scale(0.1 -0.1)">
       <defs>
        <path id="SimSun-33" d="M 2800 1250 
Q 2800 775 2450 412 
Q 2100 50 1475 50 
Q 1025 50 700 300 
Q 375 550 375 875 
Q 375 1025 475 1137 
Q 575 1250 675 1250 
Q 825 1250 887 1137 
Q 950 1025 950 950 
Q 950 825 900 750 
Q 850 650 850 575 
Q 850 425 1037 325 
Q 1225 225 1450 225 
Q 1900 225 2125 487 
Q 2350 750 2350 1300 
Q 2350 1750 2112 2025 
Q 1875 2300 1225 2300 
L 1225 2475 
Q 1725 2475 1962 2712 
Q 2200 2950 2200 3375 
Q 2200 3725 2012 3987 
Q 1825 4250 1425 4250 
Q 1250 4250 1050 4162 
Q 850 4075 850 3875 
Q 850 3675 900 3625 
Q 950 3575 950 3500 
Q 950 3375 900 3300 
Q 850 3225 725 3225 
Q 625 3225 537 3300 
Q 450 3375 450 3575 
Q 450 3950 775 4187 
Q 1100 4425 1525 4425 
Q 2025 4425 2325 4112 
Q 2625 3800 2625 3450 
Q 2625 3075 2437 2812 
Q 2250 2550 1850 2425 
Q 2400 2225 2600 1900 
Q 2800 1575 2800 1250 
z
" transform="scale(0.015625)"/>
       </defs>
       <use xlink:href="#SimSun-30"/>
       <use xlink:href="#SimSun-2e" transform="translate(50 0)"/>
       <use xlink:href="#SimSun-33" transform="translate(100 0)"/>
       <use xlink:href="#SimSun-30" transform="translate(150 0)"/>
      </g>
     </g>
    </g>
    <g id="ytick_8">
     <g id="line2d_27">
      <path d="M 46.6375 61.392344 
L 445.4075 61.392344 
" clip-path="url(#pf5ef2fdd78)" style="fill: none; stroke: #b0b0b0; stroke-width: 0.8; stroke-linecap: square"/>
     </g>
     <g id="line2d_28">
      <g>
       <use xlink:href="#m500402965a" x="46.6375" y="61.392344" style="stroke: #000000; stroke-width: 0.8"/>
      </g>
     </g>
     <g id="text_15">
      <!-- 0.35 -->
      <g transform="translate(19.6375 64.966563) scale(0.1 -0.1)">
       <use xlink:href="#SimSun-30"/>
       <use xlink:href="#SimSun-2e" transform="translate(50 0)"/>
       <use xlink:href="#SimSun-33" transform="translate(100 0)"/>
       <use xlink:href="#SimSun-35" transform="translate(150 0)"/>
      </g>
     </g>
    </g>
    <g id="ytick_9">
     <g id="line2d_29">
      <path d="M 46.6375 29.065723 
L 445.4075 29.065723 
" clip-path="url(#pf5ef2fdd78)" style="fill: none; stroke: #b0b0b0; stroke-width: 0.8; stroke-linecap: square"/>
     </g>
     <g id="line2d_30">
      <g>
       <use xlink:href="#m500402965a" x="46.6375" y="29.065723" style="stroke: #000000; stroke-width: 0.8"/>
      </g>
     </g>
     <g id="text_16">
      <!-- 0.40 -->
      <g transform="translate(19.6375 32.639941) scale(0.1 -0.1)">
       <use xlink:href="#SimSun-30"/>
       <use xlink:href="#SimSun-2e" transform="translate(50 0)"/>
       <use xlink:href="#SimSun-34" transform="translate(100 0)"/>
       <use xlink:href="#SimSun-30" transform="translate(150 0)"/>
      </g>
     </g>
    </g>
    <g id="text_17">
     <!-- Error -->
     <g transform="translate(14.348438 174.184375) rotate(-90) scale(0.1 -0.1)">
      <defs>
       <path id="SimSun-45" d="M 200 4225 
L 200 4375 
L 2650 4375 
L 2925 3525 
L 2800 3475 
Q 2600 3850 2375 4037 
Q 2150 4225 1875 4225 
L 1175 4225 
Q 1075 4225 1012 4175 
Q 950 4125 950 4025 
L 950 2475 
L 1675 2475 
Q 1925 2475 2037 2600 
Q 2150 2725 2150 2975 
L 2150 3125 
L 2300 3125 
L 2300 1650 
L 2150 1650 
L 2150 1750 
Q 2150 2025 2037 2175 
Q 1925 2325 1675 2325 
L 950 2325 
L 950 450 
Q 950 350 1012 300 
Q 1075 250 1175 250 
L 1825 250 
Q 2200 250 2462 462 
Q 2725 675 2875 1125 
L 3000 1075 
L 2725 100 
L 175 100 
L 175 250 
L 325 250 
Q 450 250 500 300 
Q 550 350 550 450 
L 550 4025 
Q 550 4125 500 4175 
Q 450 4225 325 4225 
L 200 4225 
z
" transform="scale(0.015625)"/>
       <path id="SimSun-72" d="M 1275 2125 
Q 1525 2525 1812 2737 
Q 2100 2950 2400 2950 
Q 2650 2950 2787 2837 
Q 2925 2725 2925 2575 
Q 2925 2450 2862 2375 
Q 2800 2300 2675 2300 
Q 2550 2300 2487 2375 
Q 2425 2450 2450 2575 
Q 2450 2650 2425 2700 
Q 2400 2750 2275 2750 
Q 2075 2750 1787 2500 
Q 1500 2250 1275 1800 
L 1275 450 
Q 1275 350 1337 300 
Q 1400 250 1500 250 
L 2050 250 
L 2050 100 
L 200 100 
L 200 250 
L 700 250 
Q 825 250 875 300 
Q 925 350 925 450 
L 925 2525 
Q 925 2625 875 2687 
Q 825 2750 700 2750 
L 225 2750 
L 225 2900 
L 425 2900 
Q 600 2900 837 2937 
Q 1075 2975 1200 3025 
L 1275 3025 
L 1275 2125 
z
" transform="scale(0.015625)"/>
       <path id="SimSun-6f" d="M 2900 1500 
Q 2900 875 2525 462 
Q 2150 50 1600 50 
Q 1025 50 662 475 
Q 300 900 300 1500 
Q 300 2050 662 2500 
Q 1025 2950 1600 2950 
Q 2200 2950 2550 2500 
Q 2900 2050 2900 1500 
z
M 700 1475 
Q 700 825 962 512 
Q 1225 200 1600 200 
Q 2025 200 2262 537 
Q 2500 875 2500 1475 
Q 2500 2125 2237 2462 
Q 1975 2800 1600 2800 
Q 1250 2800 975 2462 
Q 700 2125 700 1475 
z
" transform="scale(0.015625)"/>
      </defs>
      <use xlink:href="#SimSun-45"/>
      <use xlink:href="#SimSun-72" transform="translate(50 0)"/>
      <use xlink:href="#SimSun-72" transform="translate(100 0)"/>
      <use xlink:href="#SimSun-6f" transform="translate(150 0)"/>
      <use xlink:href="#SimSun-72" transform="translate(200 0)"/>
     </g>
    </g>
   </g>
   <g id="line2d_31">
    <path d="M 64.763409 287.653744 
L 64.763772 287.656236 
L 64.867089 287.595555 
L 65.322775 287.324974 
L 71.027004 283.926765 
L 91.844994 271.360972 
L 112.930886 258.373353 
L 134.151271 245.041308 
L 155.559441 231.328236 
L 177.145608 217.236659 
L 198.926447 202.752002 
L 220.909572 187.865266 
L 243.102232 172.567548 
L 265.513491 156.848535 
L 288.154586 140.696155 
L 311.036394 124.09832 
L 334.170878 107.041894 
L 357.570725 89.512925 
L 381.248986 71.496909 
L 405.220887 52.977385 
L 427.281591 35.690057 
L 427.281591 35.690057 
" clip-path="url(#pf5ef2fdd78)" style="fill: none; stroke: #ffa500; stroke-width: 1.5; stroke-linecap: square"/>
   </g>
   <g id="line2d_32">
    <path d="M 64.763409 287.666935 
L 129.456656 266.803193 
L 192.468542 246.71395 
L 253.895496 227.362279 
L 313.901741 208.690273 
L 372.625032 190.649376 
L 427.281591 174.072241 
L 427.281591 174.072241 
" clip-path="url(#pf5ef2fdd78)" style="fill: none; stroke: #008000; stroke-width: 1.5; stroke-linecap: square"/>
   </g>
   <g id="line2d_33">
    <path d="M 64.763409 287.678693 
L 128.316535 287.568343 
L 192.144813 287.235716 
L 256.016955 286.6806 
L 319.957613 285.902608 
L 383.991439 284.901179 
L 427.281591 284.098495 
L 427.281591 284.098495 
" clip-path="url(#pf5ef2fdd78)" style="fill: none; stroke: #0000ff; stroke-width: 1.5; stroke-linecap: square"/>
   </g>
   <g id="line2d_34">
    <path d="M 64.763409 287.678149 
L 64.902254 287.678668 
L 83.93194 287.656699 
L 127.108986 287.44664 
L 170.289657 287.014249 
L 213.476854 286.359516 
L 256.680726 285.482257 
L 299.907075 284.382252 
L 343.162788 283.059175 
L 386.45294 281.512682 
L 427.281591 279.8506 
L 427.281591 279.8506 
" clip-path="url(#pf5ef2fdd78)" style="fill: none; stroke: #ff0000; stroke-width: 1.5; stroke-linecap: square"/>
   </g>
   <g id="patch_3">
    <path d="M 46.6375 300.278125 
L 46.6375 23.090625 
" style="fill: none; stroke: #000000; stroke-width: 0.8; stroke-linejoin: miter; stroke-linecap: square"/>
   </g>
   <g id="patch_4">
    <path d="M 445.4075 300.278125 
L 445.4075 23.090625 
" style="fill: none; stroke: #000000; stroke-width: 0.8; stroke-linejoin: miter; stroke-linecap: square"/>
   </g>
   <g id="patch_5">
    <path d="M 46.6375 300.278125 
L 445.4075 300.278125 
" style="fill: none; stroke: #000000; stroke-width: 0.8; stroke-linejoin: miter; stroke-linecap: square"/>
   </g>
   <g id="patch_6">
    <path d="M 46.6375 23.090625 
L 445.4075 23.090625 
" style="fill: none; stroke: #000000; stroke-width: 0.8; stroke-linejoin: miter; stroke-linecap: square"/>
   </g>
   <g id="text_18">
    <!-- 误差随Δx变化（函数类型 flag=1） -->
    <g transform="translate(150.0225 17.090625) scale(0.12 -0.12)">
     <defs>
      <path id="SimSun-8bef" d="M 975 4900 
L 1050 4950 
Q 1525 4650 1650 4487 
Q 1775 4325 1750 4150 
Q 1725 3975 1637 3900 
Q 1550 3825 1525 3825 
Q 1425 3825 1375 4050 
Q 1300 4375 975 4900 
z
M 1625 600 
L 2475 1375 
L 2550 1325 
Q 2125 750 1900 450 
Q 1650 125 1525 -150 
L 1200 250 
Q 1300 375 1300 600 
L 1300 2775 
L 1025 2775 
Q 825 2775 550 2700 
L 325 2925 
L 1275 2925 
L 1450 3175 
L 1825 2850 
L 1625 2700 
L 1625 600 
z
M 3100 4650 
L 3100 3550 
L 4950 3550 
L 4950 4650 
L 3100 4650 
z
M 2750 3100 
Q 2775 3625 2775 4075 
Q 2775 4525 2750 5000 
L 3100 4800 
L 4925 4800 
L 5075 5025 
L 5450 4750 
L 5275 4600 
Q 5275 3800 5300 3325 
L 4950 3175 
L 4950 3400 
L 3100 3400 
L 3100 3225 
L 2750 3100 
z
M 2375 2725 
L 5050 2725 
L 5375 3050 
L 5825 2575 
L 4125 2575 
Q 4100 2100 4075 1675 
L 5275 1675 
L 5600 2000 
L 6050 1525 
L 4275 1525 
Q 4875 100 6075 -100 
L 6075 -200 
Q 5700 -200 5575 -500 
Q 4450 225 4175 1525 
L 4050 1525 
Q 3675 -50 1925 -600 
L 1875 -525 
Q 3425 250 3700 1525 
L 2750 1525 
Q 2500 1525 2225 1450 
L 2000 1675 
L 3725 1675 
Q 3775 2150 3775 2575 
L 3125 2575 
Q 2875 2575 2600 2500 
L 2375 2725 
z
" transform="scale(0.015625)"/>
      <path id="SimSun-5dee" d="M 1600 5100 
L 1650 5175 
Q 2300 4925 2400 4775 
Q 2500 4625 2500 4525 
Q 2500 4400 2437 4287 
Q 2375 4175 2325 4175 
Q 2250 4175 2175 4375 
Q 2025 4700 1600 5100 
z
M 3200 3925 
Q 3100 3450 3025 3175 
L 4650 3175 
L 4975 3500 
L 5450 3025 
L 3000 3025 
Q 2900 2675 2725 2275 
L 5075 2275 
L 5475 2675 
L 6025 2125 
L 2675 2125 
Q 1900 675 350 -200 
L 325 -100 
Q 1650 825 2325 2125 
L 950 2125 
L 600 2075 
L 400 2275 
L 2375 2275 
Q 2525 2650 2650 3025 
L 1550 3025 
L 1225 2975 
L 1025 3175 
L 2675 3175 
Q 2775 3575 2825 3925 
L 1250 3925 
L 900 3875 
L 700 4075 
L 3750 4075 
Q 4200 4925 4250 5250 
L 4800 4925 
Q 4550 4900 3900 4075 
L 5050 4075 
L 5425 4450 
L 5950 3925 
L 3200 3925 
z
M 2150 1275 
L 4650 1275 
L 4950 1575 
L 5400 1125 
L 3850 1125 
L 3850 -175 
L 5200 -175 
L 5550 175 
L 6050 -325 
L 2050 -325 
Q 1725 -325 1450 -400 
L 1225 -175 
L 3500 -175 
L 3500 1125 
L 2625 1125 
L 2350 1075 
L 2150 1275 
z
" transform="scale(0.015625)"/>
      <path id="SimSun-968f" d="M 2175 4225 
L 2250 4275 
Q 2800 3825 2850 3625 
Q 2900 3425 2775 3300 
Q 2650 3175 2600 3175 
Q 2500 3175 2475 3425 
Q 2425 3800 2175 4225 
z
M 6050 0 
L 6050 -100 
Q 5650 -175 5625 -475 
Q 4975 -450 4487 -425 
Q 4000 -400 3650 -262 
Q 3300 -125 3050 150 
Q 2875 300 2750 300 
Q 2650 300 2487 162 
Q 2325 25 2125 -375 
L 1750 -100 
Q 2100 175 2575 450 
L 2575 2300 
Q 2525 2300 2250 2225 
L 2025 2450 
L 2550 2450 
L 2700 2650 
L 3075 2375 
L 2875 2225 
L 2875 475 
Q 3325 75 3762 0 
Q 4200 -75 4725 -62 
Q 5250 -50 6050 0 
z
M 600 4900 
L 950 4675 
L 1700 4675 
L 1900 4900 
L 2300 4625 
L 2075 4450 
L 1475 3000 
Q 1650 2775 1900 2475 
Q 2125 2175 2162 1975 
Q 2200 1775 2200 1650 
Q 2200 1400 2075 1150 
Q 1950 900 1400 800 
Q 1400 1075 950 1250 
L 950 -475 
L 600 -650 
Q 625 0 625 2175 
Q 625 4350 600 4900 
z
M 1300 3000 
L 1725 4525 
L 950 4525 
L 950 1350 
Q 1275 1275 1425 1275 
Q 1600 1275 1725 1350 
Q 1850 1425 1850 1675 
Q 1850 1825 1812 2100 
Q 1775 2375 1300 3000 
z
M 3900 3250 
L 3900 2600 
L 5150 2600 
L 5150 3250 
L 3900 3250 
z
M 3575 250 
Q 3600 725 3600 3200 
Q 3350 2875 3000 2625 
L 2950 2675 
Q 3525 3325 3850 4175 
L 3600 4175 
Q 3275 4175 3000 4100 
L 2775 4325 
L 3900 4325 
Q 4100 4925 4100 5150 
L 4600 4900 
Q 4425 4800 4225 4325 
L 5325 4325 
L 5625 4625 
L 6025 4175 
L 4175 4175 
Q 4025 3825 3825 3475 
L 3925 3400 
L 5100 3400 
L 5250 3625 
L 5650 3350 
L 5475 3200 
L 5475 875 
Q 5525 425 5025 275 
Q 5025 550 4525 650 
L 4525 750 
Q 4950 725 5050 725 
Q 5150 725 5150 900 
L 5150 1650 
L 3900 1650 
L 3900 400 
L 3575 250 
z
M 3900 2450 
L 3900 1800 
L 5150 1800 
L 5150 2450 
L 3900 2450 
z
" transform="scale(0.015625)"/>
      <path id="SimSun-53d8" d="M 2750 4225 
L 2750 2225 
L 3650 2225 
L 3650 4225 
L 2750 4225 
z
M 375 4375 
L 3100 4375 
Q 3050 4750 2650 5200 
L 2700 5275 
Q 3150 5075 3325 4925 
Q 3500 4775 3500 4700 
Q 3500 4550 3300 4375 
L 5125 4375 
L 5525 4775 
L 6075 4225 
L 4000 4225 
L 4000 2225 
L 4425 2225 
L 4675 2500 
L 5100 2100 
L 4825 1975 
Q 4300 1325 3525 650 
Q 4500 -50 6125 -175 
L 6125 -275 
Q 5750 -325 5625 -575 
Q 4175 -250 3300 450 
Q 2150 -300 350 -600 
L 325 -500 
Q 2050 -100 3075 675 
Q 2525 1250 2100 2075 
L 1650 2075 
L 1375 2025 
L 1175 2225 
L 2400 2225 
L 2400 4225 
L 1200 4225 
Q 875 4225 600 4150 
L 375 4375 
z
M 2275 2075 
Q 2725 1350 3300 850 
Q 3800 1300 4425 2075 
L 2275 2075 
z
M 1675 3850 
L 2125 3450 
L 1875 3350 
Q 1150 2575 325 1950 
L 250 2025 
Q 700 2425 1087 2937 
Q 1475 3450 1675 3850 
z
M 4350 3700 
Q 5675 3050 5812 2875 
Q 5950 2700 5950 2575 
Q 5950 2475 5900 2375 
Q 5850 2275 5800 2275 
Q 5700 2275 5500 2550 
Q 5200 2950 4275 3625 
L 4350 3700 
z
" transform="scale(0.015625)"/>
      <path id="SimSun-5316" d="M 1375 -600 
Q 1400 200 1400 925 
L 1400 3125 
Q 850 2300 350 1775 
L 275 1850 
Q 825 2625 1300 3650 
Q 1775 4675 1900 5200 
L 2450 4875 
L 2200 4725 
Q 1875 4000 1600 3475 
L 1950 3275 
L 1750 3075 
L 1750 350 
Q 1750 75 1775 -400 
L 1375 -600 
z
M 3450 2125 
L 3450 3925 
Q 3450 4475 3425 5200 
L 4000 4925 
L 3800 4725 
L 3800 2400 
Q 4150 2725 4562 3225 
Q 4975 3725 5150 4025 
L 5600 3600 
L 5325 3525 
Q 4600 2700 3800 2000 
L 3800 425 
Q 3800 0 4225 0 
L 5300 0 
Q 5500 0 5550 325 
Q 5600 650 5600 1325 
L 5725 1325 
Q 5775 650 5850 425 
Q 5925 200 6125 125 
Q 5900 -325 5400 -325 
L 4075 -325 
Q 3450 -325 3450 250 
L 3450 1775 
Q 2800 1275 1950 925 
L 1925 1025 
Q 2800 1525 3450 2125 
z
" transform="scale(0.015625)"/>
      <path id="SimSun-ff08" d="M 5087 200 
Q 5475 -100 5425 -150 
Q 5375 -200 4950 87 
Q 4525 375 4137 850 
Q 3750 1325 3687 2100 
Q 3625 2875 4000 3487 
Q 4375 4100 4887 4462 
Q 5400 4825 5412 4762 
Q 5425 4700 5075 4425 
Q 4725 4125 4387 3600 
Q 4050 3075 4050 2250 
Q 4050 1425 4375 962 
Q 4700 500 5087 200 
z
" transform="scale(0.015625)"/>
      <path id="SimSun-51fd" d="M 3050 2275 
L 3050 3000 
Q 3050 3450 3025 3800 
L 3275 3625 
L 4450 4475 
L 1650 4475 
Q 1325 4475 1050 4400 
L 825 4625 
L 4450 4625 
L 4775 4875 
L 5150 4375 
Q 4875 4325 4550 4175 
Q 4225 4025 3400 3550 
L 3550 3450 
L 3375 3325 
L 3375 2400 
Q 4250 3225 4475 3600 
L 4875 3150 
L 4625 3125 
Q 3625 2425 3400 2275 
Q 4575 1675 4687 1487 
Q 4800 1300 4800 1150 
Q 4800 1025 4750 925 
Q 4700 825 4675 825 
Q 4575 825 4375 1150 
Q 4075 1600 3375 2150 
L 3375 725 
Q 3375 350 2875 150 
Q 2850 450 2200 650 
L 2200 750 
Q 2800 675 2925 700 
Q 3050 725 3050 850 
L 3050 2100 
Q 1850 1300 1625 1025 
L 1275 1400 
Q 1575 1475 2087 1725 
Q 2600 1975 3050 2275 
z
M 1700 3475 
L 1775 3550 
Q 2350 3200 2475 3025 
Q 2600 2850 2600 2775 
Q 2600 2650 2500 2525 
Q 2400 2400 2350 2400 
Q 2275 2400 2225 2575 
Q 2150 2875 1700 3475 
z
M 5150 0 
L 5150 2175 
Q 5150 2725 5125 3325 
L 5725 3050 
L 5500 2850 
L 5500 525 
Q 5500 100 5525 -400 
L 5150 -600 
L 5150 -150 
L 1250 -150 
L 1000 -375 
L 675 -50 
L 875 125 
L 875 2375 
Q 875 2800 850 3425 
L 1450 3150 
L 1225 2975 
L 1225 0 
L 5150 0 
z
" transform="scale(0.015625)"/>
      <path id="SimSun-6570" d="M 1875 1525 
Q 1675 1200 1500 900 
Q 1825 825 2275 725 
Q 2500 975 2725 1525 
L 1875 1525 
z
M 850 4900 
Q 1325 4600 1425 4450 
Q 1525 4300 1525 4225 
Q 1525 4100 1437 3975 
Q 1350 3850 1300 3850 
Q 1225 3850 1150 4100 
Q 1050 4450 775 4850 
L 850 4900 
z
M 3000 4975 
L 3450 4675 
Q 3250 4625 3100 4425 
Q 2925 4225 2525 3825 
L 2450 3875 
Q 2925 4625 3000 4975 
z
M 1875 5250 
L 2425 5000 
L 2225 4825 
L 2225 3675 
L 2850 3675 
L 3125 3950 
L 3550 3525 
L 2225 3525 
L 2225 3300 
Q 2800 3175 2937 3062 
Q 3075 2950 3075 2775 
Q 3075 2700 3050 2587 
Q 3025 2475 2975 2475 
Q 2925 2475 2800 2650 
Q 2600 2925 2225 3175 
L 2225 2400 
L 1925 2200 
L 2275 2050 
Q 2150 2000 1950 1675 
L 2725 1675 
L 2900 1900 
L 3275 1575 
L 3050 1450 
Q 2800 875 2600 650 
Q 3000 550 3137 437 
Q 3275 325 3275 150 
Q 3275 -25 3200 -25 
Q 3125 -25 3025 75 
Q 2750 275 2400 425 
Q 1525 -275 325 -500 
L 300 -425 
Q 1450 -50 2100 550 
Q 1600 725 1125 800 
Q 1225 950 1525 1525 
L 1200 1525 
Q 875 1525 600 1450 
L 375 1675 
L 1575 1675 
Q 1675 1925 1775 2275 
L 1900 2225 
L 1900 3250 
Q 1225 2475 350 2050 
L 300 2125 
Q 1225 2775 1700 3525 
L 1250 3525 
Q 925 3525 650 3450 
L 425 3675 
L 1900 3675 
Q 1900 4575 1875 5250 
z
M 3925 3525 
Q 4050 2075 4525 1100 
Q 4925 1950 5025 3525 
L 3925 3525 
z
M 4050 5250 
L 4625 4925 
Q 4425 4850 4325 4625 
Q 4225 4400 3950 3675 
L 5375 3675 
L 5675 3975 
L 6125 3525 
L 5400 3525 
Q 5250 1675 4750 775 
Q 5325 75 6100 -100 
L 6100 -200 
Q 5625 -275 5600 -500 
Q 4950 -50 4525 525 
Q 3700 -275 2550 -650 
L 2500 -575 
Q 3650 -50 4325 800 
Q 3850 1975 3825 3375 
Q 3575 2725 3100 2150 
L 3025 2200 
Q 3625 3200 4050 5250 
z
" transform="scale(0.015625)"/>
      <path id="SimSun-7c7b" d="M 1375 4925 
L 1425 5000 
Q 1975 4775 2200 4612 
Q 2425 4450 2412 4287 
Q 2400 4125 2325 4012 
Q 2250 3900 2200 3900 
Q 2125 3900 2025 4150 
Q 1850 4500 1375 4925 
z
M 3075 3750 
L 3075 4825 
Q 3075 5000 3050 5225 
L 3700 4975 
L 3425 4775 
L 3425 3750 
L 3900 3750 
Q 4475 4525 4750 5075 
L 5250 4650 
L 4975 4575 
Q 4700 4375 4050 3750 
L 5275 3750 
L 5625 4075 
L 6075 3600 
L 3425 3600 
L 3425 3450 
Q 5000 3025 5300 2850 
Q 5600 2675 5625 2550 
Q 5650 2425 5650 2375 
Q 5650 2250 5612 2175 
Q 5575 2100 5550 2100 
Q 5425 2100 5150 2400 
Q 4775 2775 3425 3350 
Q 3425 2575 3450 2400 
L 3050 2250 
Q 3075 2575 3075 3575 
Q 2625 3000 2037 2575 
Q 1450 2150 400 1850 
L 375 1925 
Q 1300 2325 1812 2725 
Q 2325 3125 2675 3600 
L 1250 3600 
Q 925 3600 650 3525 
L 425 3750 
L 3075 3750 
z
M 3250 1775 
Q 3200 1625 3150 1500 
L 5300 1500 
L 5650 1850 
L 6100 1350 
L 3500 1350 
Q 3925 750 4550 375 
Q 5175 0 6125 -100 
L 6125 -200 
Q 5650 -225 5525 -550 
Q 4700 -225 4137 325 
Q 3575 875 3375 1350 
L 3125 1350 
Q 2825 375 2175 -37 
Q 1525 -450 300 -650 
L 275 -575 
Q 1175 -350 1825 62 
Q 2475 475 2750 1350 
L 1075 1350 
Q 750 1350 475 1275 
L 250 1500 
L 2775 1500 
Q 2825 1850 2850 2225 
L 3475 1925 
L 3250 1775 
z
" transform="scale(0.015625)"/>
      <path id="SimSun-578b" d="M 2575 1675 
Q 2600 2250 2600 2600 
L 2600 3400 
L 1875 3400 
Q 1825 2075 500 1350 
L 450 1425 
Q 1475 2200 1550 3400 
L 1300 3400 
Q 975 3400 700 3325 
L 475 3550 
L 1550 3550 
L 1550 4600 
L 1225 4600 
L 925 4550 
L 725 4750 
L 3000 4750 
L 3300 5050 
L 3750 4600 
L 2925 4600 
L 2925 3550 
L 3200 3550 
L 3525 3875 
L 4000 3400 
L 2925 3400 
L 2925 2600 
Q 2925 2100 2950 1875 
L 2575 1675 
z
M 1875 4600 
L 1875 3550 
L 2600 3550 
L 2600 4600 
L 1875 4600 
z
M 4175 2525 
Q 4200 3100 4200 3650 
Q 4200 4200 4175 4600 
L 4700 4400 
L 4525 4225 
L 4525 2650 
L 4175 2525 
z
M 5200 5225 
L 5725 4975 
L 5550 4800 
L 5550 2225 
Q 5600 1750 5025 1525 
Q 5000 1825 4250 2000 
L 4250 2125 
Q 4900 2050 5062 2062 
Q 5225 2075 5225 2375 
L 5225 4450 
Q 5225 4775 5200 5225 
z
M 3025 1025 
Q 3025 1400 3000 1850 
L 3600 1600 
L 3375 1425 
L 3375 1025 
L 4550 1025 
L 4900 1375 
L 5400 875 
L 3375 875 
L 3375 -150 
L 5025 -150 
L 5425 250 
L 5975 -300 
L 1275 -300 
Q 950 -300 675 -375 
L 450 -150 
L 3025 -150 
L 3025 875 
L 2000 875 
Q 1675 875 1400 800 
L 1175 1025 
L 3025 1025 
z
" transform="scale(0.015625)"/>
      <path id="SimSun-66" d="M 1125 3325 
Q 1125 3850 1450 4112 
Q 1775 4375 2175 4375 
Q 2600 4375 2812 4225 
Q 3025 4075 3025 3875 
Q 3025 3775 2975 3700 
Q 2925 3625 2775 3625 
Q 2675 3625 2612 3675 
Q 2550 3725 2550 3850 
Q 2550 3875 2575 3925 
Q 2575 3975 2575 4000 
Q 2575 4100 2500 4162 
Q 2425 4225 2150 4225 
Q 1850 4225 1662 4037 
Q 1475 3850 1475 3400 
L 1475 2900 
L 2525 2900 
L 2525 2750 
L 1475 2750 
L 1475 450 
Q 1475 350 1537 300 
Q 1600 250 1700 250 
L 2300 250 
L 2300 100 
L 475 100 
L 475 250 
L 900 250 
Q 1025 250 1075 300 
Q 1125 350 1125 450 
L 1125 2750 
L 350 2750 
L 350 2900 
L 1125 2900 
L 1125 3325 
z
" transform="scale(0.015625)"/>
      <path id="SimSun-6c" d="M 925 4375 
Q 1150 4375 1350 4425 
Q 1550 4475 1725 4575 
L 1775 4575 
L 1775 450 
Q 1775 350 1837 300 
Q 1900 250 2000 250 
L 2575 250 
L 2575 100 
L 625 100 
L 625 250 
L 1200 250 
Q 1325 250 1375 300 
Q 1425 350 1425 450 
L 1425 4025 
Q 1425 4125 1375 4175 
Q 1325 4225 1200 4225 
L 650 4225 
L 650 4375 
L 925 4375 
z
" transform="scale(0.015625)"/>
      <path id="SimSun-61" d="M 1225 75 
Q 775 75 525 287 
Q 275 500 275 775 
Q 275 1225 662 1512 
Q 1050 1800 2200 1925 
L 2200 2225 
Q 2200 2475 2087 2637 
Q 1975 2800 1575 2800 
Q 1150 2800 975 2662 
Q 800 2525 850 2375 
Q 875 2325 875 2275 
Q 875 2225 837 2150 
Q 800 2075 650 2075 
Q 550 2075 487 2137 
Q 425 2200 425 2325 
Q 425 2550 750 2750 
Q 1075 2950 1550 2950 
Q 2050 2950 2300 2762 
Q 2550 2575 2550 2225 
L 2550 575 
Q 2550 375 2587 337 
Q 2625 300 2725 300 
Q 2850 300 2900 412 
Q 2950 525 2950 725 
L 3075 725 
Q 3075 375 2950 237 
Q 2825 100 2625 100 
Q 2450 100 2350 175 
Q 2250 250 2200 425 
Q 1950 250 1737 162 
Q 1525 75 1225 75 
z
M 700 850 
Q 700 625 837 437 
Q 975 250 1275 250 
Q 1500 250 1725 337 
Q 1950 425 2200 600 
L 2200 1775 
Q 1350 1675 1025 1437 
Q 700 1200 700 850 
z
" transform="scale(0.015625)"/>
      <path id="SimSun-67" d="M 875 1975 
Q 875 1675 1050 1462 
Q 1225 1250 1525 1250 
Q 1850 1250 2012 1437 
Q 2175 1625 2175 1975 
Q 2175 2400 1987 2587 
Q 1800 2775 1525 2775 
Q 1250 2775 1062 2587 
Q 875 2400 875 1975 
z
M 2100 625 
Q 2475 575 2650 412 
Q 2825 250 2825 -25 
Q 2825 -400 2512 -625 
Q 2200 -850 1525 -850 
Q 1000 -850 675 -637 
Q 350 -425 350 -150 
Q 350 25 475 200 
Q 600 375 875 475 
Q 725 550 637 637 
Q 550 725 550 850 
Q 550 1000 650 1112 
Q 750 1225 900 1300 
Q 750 1425 637 1600 
Q 525 1775 525 1975 
Q 525 2350 787 2637 
Q 1050 2925 1525 2925 
Q 1725 2925 1912 2875 
Q 2100 2825 2225 2700 
Q 2400 2825 2537 2887 
Q 2675 2950 2775 2950 
Q 2900 2950 2950 2862 
Q 3000 2775 3000 2700 
Q 3000 2600 2962 2537 
Q 2925 2475 2825 2475 
Q 2750 2475 2700 2512 
Q 2650 2550 2625 2625 
Q 2600 2700 2512 2687 
Q 2425 2675 2325 2600 
Q 2425 2500 2475 2325 
Q 2525 2150 2525 1975 
Q 2525 1675 2287 1387 
Q 2050 1100 1525 1100 
Q 1375 1100 1250 1137 
Q 1125 1175 1050 1225 
Q 950 1175 900 1100 
Q 850 1025 850 975 
Q 850 875 900 825 
Q 950 775 1050 775 
Q 1375 725 1637 687 
Q 1900 650 2100 625 
z
M 1075 425 
Q 850 325 762 187 
Q 675 50 675 -150 
Q 675 -350 900 -525 
Q 1125 -700 1575 -700 
Q 2000 -700 2250 -562 
Q 2500 -425 2500 -150 
Q 2500 25 2437 125 
Q 2375 225 2250 250 
Q 2000 300 1700 350 
Q 1400 375 1075 425 
z
" transform="scale(0.015625)"/>
      <path id="SimSun-3d" d="M 200 2825 
L 200 3050 
L 2975 3050 
L 2975 2825 
L 200 2825 
z
M 200 1550 
L 200 1775 
L 2975 1775 
L 2975 1550 
L 200 1550 
z
" transform="scale(0.015625)"/>
      <path id="SimSun-ff09" d="M 2337 875 
Q 1925 350 1437 62 
Q 950 -225 937 -162 
Q 925 -100 1300 175 
Q 1650 425 2037 1012 
Q 2425 1600 2375 2375 
Q 2325 3150 1987 3662 
Q 1650 4175 1300 4475 
Q 925 4775 937 4837 
Q 950 4900 1412 4587 
Q 1875 4275 2325 3662 
Q 2775 3050 2762 2225 
Q 2750 1400 2337 875 
z
" transform="scale(0.015625)"/>
     </defs>
     <use xlink:href="#SimSun-8bef"/>
     <use xlink:href="#SimSun-5dee" transform="translate(100 0)"/>
     <use xlink:href="#SimSun-968f" transform="translate(200 0)"/>
     <use xlink:href="#SimSun-394" transform="translate(300 0)"/>
     <use xlink:href="#SimSun-78" transform="translate(400 0)"/>
     <use xlink:href="#SimSun-53d8" transform="translate(450 0)"/>
     <use xlink:href="#SimSun-5316" transform="translate(550 0)"/>
     <use xlink:href="#SimSun-ff08" transform="translate(650 0)"/>
     <use xlink:href="#SimSun-51fd" transform="translate(750 0)"/>
     <use xlink:href="#SimSun-6570" transform="translate(850 0)"/>
     <use xlink:href="#SimSun-7c7b" transform="translate(950 0)"/>
     <use xlink:href="#SimSun-578b" transform="translate(1050 0)"/>
     <use xlink:href="#SimSun-20" transform="translate(1150 0)"/>
     <use xlink:href="#SimSun-66" transform="translate(1200 0)"/>
     <use xlink:href="#SimSun-6c" transform="translate(1250 0)"/>
     <use xlink:href="#SimSun-61" transform="translate(1300 0)"/>
     <use xlink:href="#SimSun-67" transform="translate(1350 0)"/>
     <use xlink:href="#SimSun-3d" transform="translate(1400 0)"/>
     <use xlink:href="#SimSun-31" transform="translate(1450 0)"/>
     <use xlink:href="#SimSun-ff09" transform="translate(1500 0)"/>
    </g>
   </g>
   <g id="legend_1">
    <g id="patch_7">
     <path d="M 53.6375 88.746875 
L 325.6375 88.746875 
Q 327.6375 88.746875 327.6375 86.746875 
L 327.6375 30.090625 
Q 327.6375 28.090625 325.6375 28.090625 
L 53.6375 28.090625 
Q 51.6375 28.090625 51.6375 30.090625 
L 51.6375 86.746875 
Q 51.6375 88.746875 53.6375 88.746875 
z
" style="fill: #ffffff; opacity: 0.8; stroke: #cccccc; stroke-linejoin: miter"/>
    </g>
    <g id="line2d_35">
     <path d="M 55.6375 36.715625 
L 65.6375 36.715625 
L 75.6375 36.715625 
" style="fill: none; stroke: #ffa500; stroke-width: 1.5; stroke-linecap: square"/>
    </g>
    <g id="text_19">
     <!-- 1阶精度的二阶微分误差,步长=9.999009999009986e-08 -->
     <g transform="translate(83.6375 40.215625) scale(0.1 -0.1)">
      <defs>
       <path id="SimSun-9636" d="M 4200 4950 
L 4000 4825 
Q 4400 4075 4887 3662 
Q 5375 3250 6125 3075 
L 6125 3000 
Q 5850 2975 5700 2700 
Q 5000 3050 4600 3537 
Q 4200 4025 3925 4700 
Q 3425 3775 2987 3350 
Q 2550 2925 2025 2650 
L 2000 2725 
Q 2825 3400 3237 4150 
Q 3650 4900 3725 5250 
L 4200 4950 
z
M 3400 2625 
Q 3400 1375 3300 900 
Q 3200 425 2875 62 
Q 2550 -300 1900 -600 
L 1875 -525 
Q 2625 -50 2837 462 
Q 3050 975 3062 1762 
Q 3075 2550 3050 3025 
L 3575 2750 
L 3400 2625 
z
M 4425 -500 
Q 4450 400 4450 1312 
Q 4450 2225 4425 3025 
L 4925 2725 
L 4775 2600 
L 4775 550 
Q 4775 125 4800 -300 
L 4425 -500 
z
M 1825 4525 
L 875 4525 
L 875 1375 
Q 1475 1200 1712 1275 
Q 1950 1350 1912 1862 
Q 1875 2375 1350 2975 
L 1825 4525 
z
M 525 -600 
Q 550 100 550 2300 
Q 550 4500 525 4900 
L 900 4675 
L 1825 4675 
L 2050 4900 
L 2400 4550 
L 2175 4425 
Q 1950 3975 1475 2975 
Q 1825 2675 2037 2350 
Q 2250 2025 2275 1725 
Q 2300 1425 2125 1162 
Q 1950 900 1450 750 
Q 1375 1075 875 1250 
L 875 -425 
L 525 -600 
z
" transform="scale(0.015625)"/>
       <path id="SimSun-7cbe" d="M 3500 2050 
L 3500 1550 
L 5125 1550 
L 5125 2050 
L 3500 2050 
z
M 3500 1400 
L 3500 850 
L 5125 850 
L 5125 1400 
L 3500 1400 
z
M 2875 4400 
L 4150 4400 
Q 4150 5025 4125 5275 
L 4675 5050 
L 4475 4850 
L 4475 4400 
L 5225 4400 
L 5500 4675 
L 5900 4250 
L 4475 4250 
L 4475 3625 
L 5075 3625 
L 5325 3875 
L 5700 3475 
L 4475 3475 
L 4475 2825 
L 5400 2825 
L 5675 3100 
L 6075 2675 
L 3525 2675 
Q 3200 2675 2925 2600 
L 2700 2825 
L 4150 2825 
L 4150 3475 
L 3875 3475 
Q 3550 3475 3275 3400 
L 3050 3625 
L 4150 3625 
L 4150 4250 
L 3700 4250 
Q 3375 4250 3100 4175 
L 2875 4400 
z
M 3150 -650 
Q 3175 100 3175 1062 
Q 3175 2025 3150 2425 
L 3525 2200 
L 5075 2200 
L 5300 2425 
L 5650 2075 
L 5450 1950 
L 5450 -25 
Q 5450 -325 5350 -450 
Q 5250 -575 4975 -675 
Q 4900 -350 4275 -175 
L 4275 -75 
Q 4900 -175 5012 -162 
Q 5125 -150 5125 0 
L 5125 700 
L 3500 700 
L 3500 -500 
L 3150 -650 
z
M 2800 4300 
L 2600 4225 
Q 2200 3650 1900 3325 
L 1850 3375 
Q 2225 4100 2350 4625 
L 2800 4300 
z
M 525 4525 
Q 975 4150 1087 3975 
Q 1200 3800 1150 3625 
Q 1100 3450 962 3387 
Q 825 3325 800 3625 
Q 775 3900 475 4475 
L 525 4525 
z
M 1425 4075 
Q 1425 4875 1400 5200 
L 1975 4950 
L 1750 4750 
L 1750 3050 
L 2100 3050 
L 2375 3325 
L 2775 2900 
L 1750 2900 
L 1750 2450 
Q 2525 2100 2562 1837 
Q 2600 1575 2512 1500 
Q 2425 1425 2400 1425 
Q 2300 1425 2200 1700 
Q 2050 2050 1750 2325 
L 1750 525 
Q 1750 0 1775 -425 
L 1400 -625 
Q 1425 -50 1425 2000 
Q 1025 1025 300 300 
L 250 375 
Q 650 975 912 1575 
Q 1175 2175 1350 2900 
L 1125 2900 
Q 800 2900 525 2825 
L 300 3050 
L 1425 3050 
L 1425 4075 
z
" transform="scale(0.015625)"/>
       <path id="SimSun-5ea6" d="M 2550 2025 
Q 2575 2525 2575 3175 
L 1925 3175 
L 1625 3125 
L 1425 3325 
L 2575 3325 
Q 2575 3700 2550 4150 
L 3100 3875 
L 2900 3750 
L 2900 3325 
L 4300 3325 
Q 4300 3750 4275 4125 
L 4850 3875 
L 4625 3725 
L 4625 3325 
L 5100 3325 
L 5425 3650 
L 5900 3175 
L 4625 3175 
Q 4625 2450 4650 2225 
L 4300 2075 
L 4300 2300 
L 2900 2300 
L 2900 2175 
L 2550 2025 
z
M 4875 1500 
Q 4300 775 3900 425 
Q 4700 -75 6025 -125 
L 6025 -225 
Q 5625 -300 5550 -550 
Q 4375 -325 3675 225 
Q 2475 -450 1075 -625 
L 1050 -525 
Q 2375 -275 3450 450 
Q 2975 925 2575 1625 
L 2325 1625 
L 2100 1575 
L 1900 1775 
L 4525 1775 
L 4750 2000 
L 5125 1625 
L 4875 1500 
z
M 2700 1625 
Q 3175 975 3650 625 
Q 4150 1100 4500 1625 
L 2700 1625 
z
M 2900 3175 
L 2900 2450 
L 4300 2450 
L 4300 3175 
L 2900 3175 
z
M 975 4650 
L 1400 4400 
L 3375 4400 
Q 3350 4550 3262 4725 
Q 3175 4900 2900 5225 
L 2975 5275 
Q 3550 5025 3637 4887 
Q 3725 4750 3725 4725 
Q 3725 4575 3525 4400 
L 5150 4400 
L 5500 4750 
L 6000 4250 
L 1375 4250 
Q 1400 2750 1287 1912 
Q 1175 1075 925 475 
Q 675 -125 300 -625 
L 225 -575 
Q 725 300 862 1250 
Q 1000 2200 1012 3187 
Q 1025 4175 975 4650 
z
" transform="scale(0.015625)"/>
       <path id="SimSun-7684" d="M 1125 3775 
L 1125 2175 
L 2425 2175 
L 2425 3775 
L 1125 3775 
z
M 1125 2025 
L 1125 275 
L 2425 275 
L 2425 2025 
L 1125 2025 
z
M 2750 3625 
Q 2750 700 2775 -200 
L 2425 -400 
L 2425 125 
L 1125 125 
L 1125 -300 
L 775 -500 
Q 800 675 800 1837 
Q 800 3000 775 4150 
L 1150 3925 
L 1400 3925 
Q 1650 4775 1675 5225 
L 2225 4925 
Q 1975 4800 1550 3925 
L 2375 3925 
L 2625 4175 
L 3000 3800 
L 2750 3625 
z
M 3975 5200 
L 4525 4875 
Q 4325 4750 3900 3850 
L 5250 3850 
L 5525 4125 
L 5900 3750 
L 5675 3575 
Q 5625 650 5537 262 
Q 5450 -125 5287 -275 
Q 5125 -425 4775 -550 
Q 4650 -150 3950 50 
L 3950 175 
Q 4575 50 4850 50 
Q 5125 50 5187 475 
Q 5250 900 5300 3700 
L 3850 3700 
Q 3400 2975 2900 2475 
L 2825 2525 
Q 3350 3325 3600 3950 
Q 3850 4575 3975 5200 
z
M 3525 2750 
Q 4125 2300 4225 2087 
Q 4325 1875 4325 1775 
Q 4325 1600 4225 1475 
Q 4125 1350 4075 1350 
Q 3975 1350 3925 1700 
Q 3825 2200 3475 2675 
L 3525 2750 
z
" transform="scale(0.015625)"/>
       <path id="SimSun-4e8c" d="M 975 3900 
L 4650 3900 
L 5000 4250 
L 5500 3750 
L 1775 3750 
Q 1475 3750 1200 3675 
L 975 3900 
z
M 350 425 
L 5000 425 
L 5450 875 
L 6050 275 
L 1200 275 
Q 850 275 575 200 
L 350 425 
z
" transform="scale(0.015625)"/>
       <path id="SimSun-5fae" d="M 1200 5125 
L 1650 4800 
Q 1450 4750 1150 4400 
Q 850 4025 400 3625 
L 325 3675 
Q 675 4100 912 4487 
Q 1150 4875 1200 5125 
z
M 1425 3850 
L 1875 3525 
Q 1650 3450 1425 3000 
L 1425 -450 
L 1075 -625 
Q 1100 -25 1100 450 
L 1100 2550 
Q 800 2125 325 1625 
L 250 1675 
Q 425 1925 687 2337 
Q 950 2750 1150 3175 
Q 1350 3600 1425 3850 
z
M 3750 4200 
Q 3750 3625 3775 3225 
L 3450 3100 
L 3450 3300 
L 2350 3300 
L 2200 3150 
L 1900 3450 
L 2050 3550 
Q 2050 4175 2025 4600 
L 2525 4375 
L 2350 4225 
L 2350 3450 
L 2750 3450 
Q 2750 4675 2725 5200 
L 3225 4975 
L 3050 4825 
L 3050 3450 
L 3450 3450 
Q 3450 4125 3425 4575 
L 3925 4350 
L 3750 4200 
z
M 1850 2675 
L 3275 2675 
L 3500 2900 
L 3875 2525 
L 2625 2525 
Q 2325 2525 2075 2450 
L 1850 2675 
z
M 3475 750 
L 4200 1325 
L 4250 1250 
Q 3575 525 3350 100 
L 3075 450 
Q 3200 575 3175 875 
L 3175 1725 
L 2550 1725 
Q 2575 950 2412 500 
Q 2250 50 1725 -400 
L 1650 -350 
Q 2050 150 2137 575 
Q 2225 1000 2225 1450 
Q 2225 1800 2200 2075 
L 2550 1875 
L 3150 1875 
L 3300 2100 
L 3650 1800 
L 3475 1675 
L 3475 750 
z
M 4475 3425 
Q 4550 2125 4875 1175 
Q 5225 2175 5275 3425 
L 4475 3425 
z
M 4500 5150 
L 5075 4875 
L 4875 4750 
Q 4725 4200 4525 3575 
L 5425 3575 
L 5700 3850 
L 6125 3425 
L 5600 3425 
Q 5475 1775 5075 850 
Q 5550 75 6150 -50 
L 6150 -150 
Q 5775 -200 5700 -425 
Q 5225 -25 4875 625 
Q 4150 -150 2900 -650 
L 2850 -575 
Q 4025 25 4725 900 
Q 4400 1875 4375 3125 
Q 4175 2500 3875 1975 
L 3800 2000 
Q 4125 2900 4312 3850 
Q 4500 4800 4500 5150 
z
" transform="scale(0.015625)"/>
       <path id="SimSun-5206" d="M 2350 5050 
L 2850 4675 
L 2625 4550 
Q 2200 3750 1687 3125 
Q 1175 2500 375 2025 
L 325 2100 
Q 975 2625 1475 3337 
Q 1975 4050 2350 5050 
z
M 4100 4975 
L 3900 4850 
Q 4175 3850 4800 3300 
Q 5425 2750 6125 2625 
L 6125 2550 
Q 5750 2500 5600 2225 
Q 4775 2675 4287 3425 
Q 3800 4175 3625 5175 
L 4100 4975 
z
M 1375 2625 
L 4225 2625 
L 4475 2875 
L 4825 2525 
L 4625 2375 
Q 4575 400 4375 -12 
Q 4175 -425 3675 -600 
Q 3600 -200 2975 -25 
L 2975 75 
Q 3600 -25 3787 -12 
Q 3975 0 4075 275 
Q 4175 550 4275 2475 
L 2975 2475 
Q 2825 1400 2375 662 
Q 1925 -75 650 -625 
L 600 -525 
Q 1725 50 2112 837 
Q 2500 1625 2575 2475 
L 1800 2475 
L 1575 2425 
L 1375 2625 
z
" transform="scale(0.015625)"/>
       <path id="SimSun-2c" d="M 450 550 
Q 450 650 537 750 
Q 625 850 800 850 
Q 1000 850 1112 687 
Q 1225 525 1225 350 
Q 1225 0 1025 -300 
Q 825 -600 450 -750 
L 350 -625 
Q 600 -475 725 -312 
Q 850 -150 850 25 
Q 850 150 650 250 
Q 450 350 450 550 
z
" transform="scale(0.015625)"/>
       <path id="SimSun-6b65" d="M 3125 2975 
Q 3125 4700 3100 5275 
L 3700 5000 
L 3475 4825 
L 3475 4200 
L 4800 4200 
L 5100 4500 
L 5550 4050 
L 3475 4050 
L 3475 2975 
L 5175 2975 
L 5550 3350 
L 6075 2825 
L 1150 2825 
Q 825 2825 550 2750 
L 325 2975 
L 1500 2975 
Q 1500 4225 1475 4650 
L 2075 4375 
L 1850 4200 
L 1850 2975 
L 3125 2975 
z
M 3100 650 
Q 3125 950 3125 1737 
Q 3125 2525 3100 2775 
L 3675 2500 
L 3475 2325 
Q 3475 1175 3500 800 
L 3100 650 
z
M 1850 2300 
L 2350 1925 
L 2075 1825 
Q 1275 750 550 250 
L 500 325 
Q 975 800 1350 1387 
Q 1725 1975 1850 2300 
z
M 5250 2275 
L 5700 1825 
L 5475 1775 
Q 3950 325 2875 -62 
Q 1800 -450 375 -650 
L 375 -550 
Q 1125 -425 2075 -112 
Q 3025 200 3862 837 
Q 4700 1475 5250 2275 
z
" transform="scale(0.015625)"/>
       <path id="SimSun-957f" d="M 1675 2600 
Q 1675 4050 1675 4337 
Q 1675 4625 1650 5175 
L 2250 4900 
L 2050 4700 
L 2050 2600 
L 5050 2600 
L 5475 2975 
L 5925 2450 
L 3100 2450 
Q 3550 1550 4337 1000 
Q 5125 450 6100 325 
L 6100 225 
Q 5700 225 5500 -125 
Q 4725 150 4025 775 
Q 3325 1400 2975 2450 
L 2050 2450 
L 2050 75 
Q 2800 400 3575 725 
L 3625 600 
Q 2325 -75 1875 -525 
L 1550 -125 
Q 1675 50 1675 250 
L 1675 2450 
L 1100 2450 
Q 775 2450 500 2375 
L 275 2600 
L 1675 2600 
z
M 4475 5100 
L 4950 4650 
L 4625 4525 
Q 3250 3325 2300 2875 
L 2250 2975 
Q 3050 3525 3612 4075 
Q 4175 4625 4475 5100 
z
" transform="scale(0.015625)"/>
       <path id="SimSun-39" d="M 700 3050 
Q 700 2500 912 2212 
Q 1125 1925 1450 1925 
Q 1825 1925 2100 2275 
Q 2375 2625 2375 2925 
Q 2375 3525 2175 3887 
Q 1975 4250 1525 4250 
Q 1100 4250 900 3912 
Q 700 3575 700 3050 
z
M 1375 1700 
Q 875 1700 575 2012 
Q 275 2325 275 3025 
Q 275 3625 600 4025 
Q 925 4425 1525 4425 
Q 2150 4425 2500 3925 
Q 2850 3425 2850 2475 
Q 2850 1425 2437 737 
Q 2025 50 1300 50 
Q 975 50 737 200 
Q 500 350 500 600 
Q 500 700 562 800 
Q 625 900 775 900 
Q 925 900 975 787 
Q 1025 675 1025 525 
Q 1025 425 1050 362 
Q 1075 300 1100 275 
Q 1125 250 1187 237 
Q 1250 225 1325 225 
Q 1775 225 2050 725 
Q 2325 1225 2375 2400 
Q 2250 2100 2000 1900 
Q 1750 1700 1375 1700 
z
" transform="scale(0.015625)"/>
       <path id="SimSun-2d" d="M 200 2225 
L 200 2450 
L 2975 2450 
L 2975 2225 
L 200 2225 
z
" transform="scale(0.015625)"/>
      </defs>
      <use xlink:href="#SimSun-31"/>
      <use xlink:href="#SimSun-9636" transform="translate(50 0)"/>
      <use xlink:href="#SimSun-7cbe" transform="translate(150 0)"/>
      <use xlink:href="#SimSun-5ea6" transform="translate(250 0)"/>
      <use xlink:href="#SimSun-7684" transform="translate(350 0)"/>
      <use xlink:href="#SimSun-4e8c" transform="translate(450 0)"/>
      <use xlink:href="#SimSun-9636" transform="translate(550 0)"/>
      <use xlink:href="#SimSun-5fae" transform="translate(650 0)"/>
      <use xlink:href="#SimSun-5206" transform="translate(750 0)"/>
      <use xlink:href="#SimSun-8bef" transform="translate(850 0)"/>
      <use xlink:href="#SimSun-5dee" transform="translate(950 0)"/>
      <use xlink:href="#SimSun-2c" transform="translate(1050 0)"/>
      <use xlink:href="#SimSun-6b65" transform="translate(1100 0)"/>
      <use xlink:href="#SimSun-957f" transform="translate(1200 0)"/>
      <use xlink:href="#SimSun-3d" transform="translate(1300 0)"/>
      <use xlink:href="#SimSun-39" transform="translate(1350 0)"/>
      <use xlink:href="#SimSun-2e" transform="translate(1400 0)"/>
      <use xlink:href="#SimSun-39" transform="translate(1450 0)"/>
      <use xlink:href="#SimSun-39" transform="translate(1500 0)"/>
      <use xlink:href="#SimSun-39" transform="translate(1550 0)"/>
      <use xlink:href="#SimSun-30" transform="translate(1600 0)"/>
      <use xlink:href="#SimSun-30" transform="translate(1650 0)"/>
      <use xlink:href="#SimSun-39" transform="translate(1700 0)"/>
      <use xlink:href="#SimSun-39" transform="translate(1750 0)"/>
      <use xlink:href="#SimSun-39" transform="translate(1800 0)"/>
      <use xlink:href="#SimSun-39" transform="translate(1850 0)"/>
      <use xlink:href="#SimSun-30" transform="translate(1900 0)"/>
      <use xlink:href="#SimSun-30" transform="translate(1950 0)"/>
      <use xlink:href="#SimSun-39" transform="translate(2000 0)"/>
      <use xlink:href="#SimSun-39" transform="translate(2050 0)"/>
      <use xlink:href="#SimSun-38" transform="translate(2100 0)"/>
      <use xlink:href="#SimSun-36" transform="translate(2150 0)"/>
      <use xlink:href="#SimSun-65" transform="translate(2200 0)"/>
      <use xlink:href="#SimSun-2d" transform="translate(2250 0)"/>
      <use xlink:href="#SimSun-30" transform="translate(2300 0)"/>
      <use xlink:href="#SimSun-38" transform="translate(2350 0)"/>
     </g>
    </g>
    <g id="line2d_36">
     <path d="M 55.6375 51.129687 
L 65.6375 51.129687 
L 75.6375 51.129687 
" style="fill: none; stroke: #008000; stroke-width: 1.5; stroke-linecap: square"/>
    </g>
    <g id="text_20">
     <!-- 1阶精度的一阶微分误差,步长=9.999009999009986e-08 -->
     <g transform="translate(83.6375 54.629687) scale(0.1 -0.1)">
      <defs>
       <path id="SimSun-4e00" d="M 350 2650 
L 5000 2650 
L 5500 3050 
L 6050 2500 
L 1250 2500 
Q 850 2500 575 2425 
L 350 2650 
z
" transform="scale(0.015625)"/>
      </defs>
      <use xlink:href="#SimSun-31"/>
      <use xlink:href="#SimSun-9636" transform="translate(50 0)"/>
      <use xlink:href="#SimSun-7cbe" transform="translate(150 0)"/>
      <use xlink:href="#SimSun-5ea6" transform="translate(250 0)"/>
      <use xlink:href="#SimSun-7684" transform="translate(350 0)"/>
      <use xlink:href="#SimSun-4e00" transform="translate(450 0)"/>
      <use xlink:href="#SimSun-9636" transform="translate(550 0)"/>
      <use xlink:href="#SimSun-5fae" transform="translate(650 0)"/>
      <use xlink:href="#SimSun-5206" transform="translate(750 0)"/>
      <use xlink:href="#SimSun-8bef" transform="translate(850 0)"/>
      <use xlink:href="#SimSun-5dee" transform="translate(950 0)"/>
      <use xlink:href="#SimSun-2c" transform="translate(1050 0)"/>
      <use xlink:href="#SimSun-6b65" transform="translate(1100 0)"/>
      <use xlink:href="#SimSun-957f" transform="translate(1200 0)"/>
      <use xlink:href="#SimSun-3d" transform="translate(1300 0)"/>
      <use xlink:href="#SimSun-39" transform="translate(1350 0)"/>
      <use xlink:href="#SimSun-2e" transform="translate(1400 0)"/>
      <use xlink:href="#SimSun-39" transform="translate(1450 0)"/>
      <use xlink:href="#SimSun-39" transform="translate(1500 0)"/>
      <use xlink:href="#SimSun-39" transform="translate(1550 0)"/>
      <use xlink:href="#SimSun-30" transform="translate(1600 0)"/>
      <use xlink:href="#SimSun-30" transform="translate(1650 0)"/>
      <use xlink:href="#SimSun-39" transform="translate(1700 0)"/>
      <use xlink:href="#SimSun-39" transform="translate(1750 0)"/>
      <use xlink:href="#SimSun-39" transform="translate(1800 0)"/>
      <use xlink:href="#SimSun-39" transform="translate(1850 0)"/>
      <use xlink:href="#SimSun-30" transform="translate(1900 0)"/>
      <use xlink:href="#SimSun-30" transform="translate(1950 0)"/>
      <use xlink:href="#SimSun-39" transform="translate(2000 0)"/>
      <use xlink:href="#SimSun-39" transform="translate(2050 0)"/>
      <use xlink:href="#SimSun-38" transform="translate(2100 0)"/>
      <use xlink:href="#SimSun-36" transform="translate(2150 0)"/>
      <use xlink:href="#SimSun-65" transform="translate(2200 0)"/>
      <use xlink:href="#SimSun-2d" transform="translate(2250 0)"/>
      <use xlink:href="#SimSun-30" transform="translate(2300 0)"/>
      <use xlink:href="#SimSun-38" transform="translate(2350 0)"/>
     </g>
    </g>
    <g id="line2d_37">
     <path d="M 55.6375 65.54375 
L 65.6375 65.54375 
L 75.6375 65.54375 
" style="fill: none; stroke: #0000ff; stroke-width: 1.5; stroke-linecap: square"/>
    </g>
    <g id="text_21">
     <!-- 2阶精度一阶微分,步长=9.999009999009986e-08 -->
     <g transform="translate(83.6375 69.04375) scale(0.1 -0.1)">
      <use xlink:href="#SimSun-32"/>
      <use xlink:href="#SimSun-9636" transform="translate(50 0)"/>
      <use xlink:href="#SimSun-7cbe" transform="translate(150 0)"/>
      <use xlink:href="#SimSun-5ea6" transform="translate(250 0)"/>
      <use xlink:href="#SimSun-4e00" transform="translate(350 0)"/>
      <use xlink:href="#SimSun-9636" transform="translate(450 0)"/>
      <use xlink:href="#SimSun-5fae" transform="translate(550 0)"/>
      <use xlink:href="#SimSun-5206" transform="translate(650 0)"/>
      <use xlink:href="#SimSun-2c" transform="translate(750 0)"/>
      <use xlink:href="#SimSun-6b65" transform="translate(800 0)"/>
      <use xlink:href="#SimSun-957f" transform="translate(900 0)"/>
      <use xlink:href="#SimSun-3d" transform="translate(1000 0)"/>
      <use xlink:href="#SimSun-39" transform="translate(1050 0)"/>
      <use xlink:href="#SimSun-2e" transform="translate(1100 0)"/>
      <use xlink:href="#SimSun-39" transform="translate(1150 0)"/>
      <use xlink:href="#SimSun-39" transform="translate(1200 0)"/>
      <use xlink:href="#SimSun-39" transform="translate(1250 0)"/>
      <use xlink:href="#SimSun-30" transform="translate(1300 0)"/>
      <use xlink:href="#SimSun-30" transform="translate(1350 0)"/>
      <use xlink:href="#SimSun-39" transform="translate(1400 0)"/>
      <use xlink:href="#SimSun-39" transform="translate(1450 0)"/>
      <use xlink:href="#SimSun-39" transform="translate(1500 0)"/>
      <use xlink:href="#SimSun-39" transform="translate(1550 0)"/>
      <use xlink:href="#SimSun-30" transform="translate(1600 0)"/>
      <use xlink:href="#SimSun-30" transform="translate(1650 0)"/>
      <use xlink:href="#SimSun-39" transform="translate(1700 0)"/>
      <use xlink:href="#SimSun-39" transform="translate(1750 0)"/>
      <use xlink:href="#SimSun-38" transform="translate(1800 0)"/>
      <use xlink:href="#SimSun-36" transform="translate(1850 0)"/>
      <use xlink:href="#SimSun-65" transform="translate(1900 0)"/>
      <use xlink:href="#SimSun-2d" transform="translate(1950 0)"/>
      <use xlink:href="#SimSun-30" transform="translate(2000 0)"/>
      <use xlink:href="#SimSun-38" transform="translate(2050 0)"/>
     </g>
    </g>
    <g id="line2d_38">
     <path d="M 55.6375 79.957812 
L 65.6375 79.957812 
L 75.6375 79.957812 
" style="fill: none; stroke: #ff0000; stroke-width: 1.5; stroke-linecap: square"/>
    </g>
    <g id="text_22">
     <!-- 2阶精度二阶微分,步长=9.999009999009986e-08 -->
     <g transform="translate(83.6375 83.457812) scale(0.1 -0.1)">
      <use xlink:href="#SimSun-32"/>
      <use xlink:href="#SimSun-9636" transform="translate(50 0)"/>
      <use xlink:href="#SimSun-7cbe" transform="translate(150 0)"/>
      <use xlink:href="#SimSun-5ea6" transform="translate(250 0)"/>
      <use xlink:href="#SimSun-4e8c" transform="translate(350 0)"/>
      <use xlink:href="#SimSun-9636" transform="translate(450 0)"/>
      <use xlink:href="#SimSun-5fae" transform="translate(550 0)"/>
      <use xlink:href="#SimSun-5206" transform="translate(650 0)"/>
      <use xlink:href="#SimSun-2c" transform="translate(750 0)"/>
      <use xlink:href="#SimSun-6b65" transform="translate(800 0)"/>
      <use xlink:href="#SimSun-957f" transform="translate(900 0)"/>
      <use xlink:href="#SimSun-3d" transform="translate(1000 0)"/>
      <use xlink:href="#SimSun-39" transform="translate(1050 0)"/>
      <use xlink:href="#SimSun-2e" transform="translate(1100 0)"/>
      <use xlink:href="#SimSun-39" transform="translate(1150 0)"/>
      <use xlink:href="#SimSun-39" transform="translate(1200 0)"/>
      <use xlink:href="#SimSun-39" transform="translate(1250 0)"/>
      <use xlink:href="#SimSun-30" transform="translate(1300 0)"/>
      <use xlink:href="#SimSun-30" transform="translate(1350 0)"/>
      <use xlink:href="#SimSun-39" transform="translate(1400 0)"/>
      <use xlink:href="#SimSun-39" transform="translate(1450 0)"/>
      <use xlink:href="#SimSun-39" transform="translate(1500 0)"/>
      <use xlink:href="#SimSun-39" transform="translate(1550 0)"/>
      <use xlink:href="#SimSun-30" transform="translate(1600 0)"/>
      <use xlink:href="#SimSun-30" transform="translate(1650 0)"/>
      <use xlink:href="#SimSun-39" transform="translate(1700 0)"/>
      <use xlink:href="#SimSun-39" transform="translate(1750 0)"/>
      <use xlink:href="#SimSun-38" transform="translate(1800 0)"/>
      <use xlink:href="#SimSun-36" transform="translate(1850 0)"/>
      <use xlink:href="#SimSun-65" transform="translate(1900 0)"/>
      <use xlink:href="#SimSun-2d" transform="translate(1950 0)"/>
      <use xlink:href="#SimSun-30" transform="translate(2000 0)"/>
      <use xlink:href="#SimSun-38" transform="translate(2050 0)"/>
     </g>
    </g>
   </g>
  </g>
 </g>
 <defs>
  <clipPath id="pf5ef2fdd78">
   <rect x="46.6375" y="23.090625" width="398.77" height="277.1875"/>
  </clipPath>
 </defs>
</svg>
