<?xml version="1.0" encoding="utf-8" standalone="no"?>
<!DOCTYPE svg PUBLIC "-//W3C//DTD SVG 1.1//EN"
  "http://www.w3.org/Graphics/SVG/1.1/DTD/svg11.dtd">
<svg xmlns:xlink="http://www.w3.org/1999/xlink" width="452.6175pt" height="336.514062pt" viewBox="0 0 452.6175 336.514062" xmlns="http://www.w3.org/2000/svg" version="1.1">
 <metadata>
  <rdf:RDF xmlns:dc="http://purl.org/dc/elements/1.1/" xmlns:cc="http://creativecommons.org/ns#" xmlns:rdf="http://www.w3.org/1999/02/22-rdf-syntax-ns#">
   <cc:Work>
    <dc:type rdf:resource="http://purl.org/dc/dcmitype/StillImage"/>
    <dc:date>2025-03-26T22:28:11.614295</dc:date>
    <dc:format>image/svg+xml</dc:format>
    <dc:creator>
     <cc:Agent>
      <dc:title>Matplotlib v3.10.1, https://matplotlib.org/</dc:title>
     </cc:Agent>
    </dc:creator>
   </cc:Work>
  </rdf:RDF>
 </metadata>
 <defs>
  <style type="text/css">*{stroke-linejoin: round; stroke-linecap: butt}</style>
 </defs>
 <g id="figure_1">
  <g id="patch_1">
   <path d="M 0 336.514062 
L 452.6175 336.514062 
L 452.6175 0 
L 0 0 
z
" style="fill: #ffffff"/>
  </g>
  <g id="axes_1">
   <g id="patch_2">
    <path d="M 56.6375 300.540625 
L 445.4175 300.540625 
L 445.4175 21.778125 
L 56.6375 21.778125 
z
" style="fill: #ffffff"/>
   </g>
   <g id="matplotlib.axis_1">
    <g id="xtick_1">
     <g id="line2d_1">
      <path d="M 74.273971 300.540625 
L 74.273971 21.778125 
" clip-path="url(#pddcbfe917e)" style="fill: none; stroke: #b0b0b0; stroke-width: 0.8; stroke-linecap: square"/>
     </g>
     <g id="line2d_2">
      <defs>
       <path id="mf0e0bcd752" d="M 0 0 
L 0 3.5 
" style="stroke: #000000; stroke-width: 0.8"/>
      </defs>
      <g>
       <use xlink:href="#mf0e0bcd752" x="74.273971" y="300.540625" style="stroke: #000000; stroke-width: 0.8"/>
      </g>
     </g>
     <g id="text_1">
      <!-- 0.00 -->
      <g transform="translate(64.273971 314.689062) scale(0.1 -0.1)">
       <defs>
        <path id="SimSun-30" d="M 1600 4225 
Q 1250 4225 1012 3687 
Q 775 3150 775 2250 
Q 775 1300 1012 775 
Q 1250 250 1600 250 
Q 1975 250 2187 775 
Q 2400 1300 2400 2250 
Q 2400 3150 2200 3687 
Q 2000 4225 1600 4225 
z
M 1600 50 
Q 1050 50 675 625 
Q 300 1200 300 2250 
Q 300 3225 662 3825 
Q 1025 4425 1600 4425 
Q 2150 4425 2512 3850 
Q 2875 3275 2875 2250 
Q 2875 1225 2512 637 
Q 2150 50 1600 50 
z
" transform="scale(0.015625)"/>
        <path id="SimSun-2e" d="M 800 25 
Q 650 25 537 125 
Q 425 225 425 400 
Q 425 575 537 675 
Q 650 775 800 775 
Q 950 775 1062 662 
Q 1175 550 1175 400 
Q 1175 225 1062 125 
Q 950 25 800 25 
z
" transform="scale(0.015625)"/>
       </defs>
       <use xlink:href="#SimSun-30"/>
       <use xlink:href="#SimSun-2e" transform="translate(50 0)"/>
       <use xlink:href="#SimSun-30" transform="translate(100 0)"/>
       <use xlink:href="#SimSun-30" transform="translate(150 0)"/>
      </g>
     </g>
    </g>
    <g id="xtick_2">
     <g id="line2d_3">
      <path d="M 144.968313 300.540625 
L 144.968313 21.778125 
" clip-path="url(#pddcbfe917e)" style="fill: none; stroke: #b0b0b0; stroke-width: 0.8; stroke-linecap: square"/>
     </g>
     <g id="line2d_4">
      <g>
       <use xlink:href="#mf0e0bcd752" x="144.968313" y="300.540625" style="stroke: #000000; stroke-width: 0.8"/>
      </g>
     </g>
     <g id="text_2">
      <!-- 0.02 -->
      <g transform="translate(134.968313 314.689062) scale(0.1 -0.1)">
       <defs>
        <path id="SimSun-32" d="M 2325 3325 
Q 2325 3775 2125 4012 
Q 1925 4250 1525 4250 
Q 1225 4250 1012 4087 
Q 800 3925 800 3675 
Q 800 3525 900 3425 
Q 975 3325 975 3225 
Q 975 3100 912 3037 
Q 850 2975 725 2975 
Q 575 2975 487 3062 
Q 400 3150 400 3350 
Q 400 3875 775 4150 
Q 1150 4425 1575 4425 
Q 2175 4425 2462 4125 
Q 2750 3825 2750 3375 
Q 2750 3075 2612 2775 
Q 2475 2475 2175 2200 
Q 1450 1500 1062 1062 
Q 675 625 600 475 
L 2075 475 
Q 2300 475 2450 650 
Q 2600 825 2650 1175 
L 2800 1175 
L 2650 100 
L 325 100 
L 325 425 
Q 450 650 737 1000 
Q 1025 1350 1500 1825 
Q 1925 2250 2125 2625 
Q 2325 3000 2325 3325 
z
" transform="scale(0.015625)"/>
       </defs>
       <use xlink:href="#SimSun-30"/>
       <use xlink:href="#SimSun-2e" transform="translate(50 0)"/>
       <use xlink:href="#SimSun-30" transform="translate(100 0)"/>
       <use xlink:href="#SimSun-32" transform="translate(150 0)"/>
      </g>
     </g>
    </g>
    <g id="xtick_3">
     <g id="line2d_5">
      <path d="M 215.662655 300.540625 
L 215.662655 21.778125 
" clip-path="url(#pddcbfe917e)" style="fill: none; stroke: #b0b0b0; stroke-width: 0.8; stroke-linecap: square"/>
     </g>
     <g id="line2d_6">
      <g>
       <use xlink:href="#mf0e0bcd752" x="215.662655" y="300.540625" style="stroke: #000000; stroke-width: 0.8"/>
      </g>
     </g>
     <g id="text_3">
      <!-- 0.04 -->
      <g transform="translate(205.662655 314.689062) scale(0.1 -0.1)">
       <defs>
        <path id="SimSun-34" d="M 2300 575 
Q 2300 400 2400 325 
Q 2500 250 2675 250 
L 2900 250 
L 2900 100 
L 1250 100 
L 1250 250 
L 1525 250 
Q 1725 250 1812 325 
Q 1900 400 1900 575 
L 1900 1400 
L 225 1400 
L 225 1525 
L 2050 4425 
L 2300 4425 
L 2300 1550 
L 2975 1550 
L 2975 1400 
L 2300 1400 
L 2300 575 
z
M 1875 3800 
L 450 1550 
L 1900 1550 
L 1900 3800 
L 1875 3800 
z
" transform="scale(0.015625)"/>
       </defs>
       <use xlink:href="#SimSun-30"/>
       <use xlink:href="#SimSun-2e" transform="translate(50 0)"/>
       <use xlink:href="#SimSun-30" transform="translate(100 0)"/>
       <use xlink:href="#SimSun-34" transform="translate(150 0)"/>
      </g>
     </g>
    </g>
    <g id="xtick_4">
     <g id="line2d_7">
      <path d="M 286.356997 300.540625 
L 286.356997 21.778125 
" clip-path="url(#pddcbfe917e)" style="fill: none; stroke: #b0b0b0; stroke-width: 0.8; stroke-linecap: square"/>
     </g>
     <g id="line2d_8">
      <g>
       <use xlink:href="#mf0e0bcd752" x="286.356997" y="300.540625" style="stroke: #000000; stroke-width: 0.8"/>
      </g>
     </g>
     <g id="text_4">
      <!-- 0.06 -->
      <g transform="translate(276.356997 314.689062) scale(0.1 -0.1)">
       <defs>
        <path id="SimSun-36" d="M 775 1800 
Q 775 1050 1037 637 
Q 1300 225 1675 225 
Q 2050 225 2250 500 
Q 2450 775 2450 1525 
Q 2450 2025 2237 2300 
Q 2025 2575 1725 2575 
Q 1450 2575 1212 2412 
Q 975 2250 775 1800 
z
M 1750 2825 
Q 2350 2825 2612 2425 
Q 2875 2025 2875 1525 
Q 2875 775 2512 412 
Q 2150 50 1675 50 
Q 1000 50 650 562 
Q 300 1075 300 2050 
Q 300 3200 725 3812 
Q 1150 4425 1875 4425 
Q 2225 4425 2437 4225 
Q 2650 4025 2650 3875 
Q 2650 3725 2587 3650 
Q 2525 3575 2375 3575 
Q 2250 3575 2187 3637 
Q 2125 3700 2125 3825 
Q 2125 3875 2150 3925 
Q 2150 3975 2150 4025 
Q 2150 4125 2075 4187 
Q 2000 4250 1800 4250 
Q 1375 4250 1075 3862 
Q 775 3475 775 2175 
Q 925 2500 1187 2662 
Q 1450 2825 1750 2825 
z
" transform="scale(0.015625)"/>
       </defs>
       <use xlink:href="#SimSun-30"/>
       <use xlink:href="#SimSun-2e" transform="translate(50 0)"/>
       <use xlink:href="#SimSun-30" transform="translate(100 0)"/>
       <use xlink:href="#SimSun-36" transform="translate(150 0)"/>
      </g>
     </g>
    </g>
    <g id="xtick_5">
     <g id="line2d_9">
      <path d="M 357.05134 300.540625 
L 357.05134 21.778125 
" clip-path="url(#pddcbfe917e)" style="fill: none; stroke: #b0b0b0; stroke-width: 0.8; stroke-linecap: square"/>
     </g>
     <g id="line2d_10">
      <g>
       <use xlink:href="#mf0e0bcd752" x="357.05134" y="300.540625" style="stroke: #000000; stroke-width: 0.8"/>
      </g>
     </g>
     <g id="text_5">
      <!-- 0.08 -->
      <g transform="translate(347.05134 314.689062) scale(0.1 -0.1)">
       <defs>
        <path id="SimSun-38" d="M 625 1125 
Q 625 725 887 475 
Q 1150 225 1550 225 
Q 2025 225 2237 475 
Q 2450 725 2450 1100 
Q 2450 1425 2150 1725 
Q 1850 2025 1250 2275 
Q 950 2075 787 1775 
Q 625 1475 625 1125 
z
M 2825 1175 
Q 2825 700 2475 375 
Q 2125 50 1550 50 
Q 1025 50 650 375 
Q 275 700 275 1125 
Q 275 1550 487 1850 
Q 700 2150 1100 2375 
Q 750 2550 562 2812 
Q 375 3075 375 3400 
Q 375 3825 700 4125 
Q 1025 4425 1600 4425 
Q 2125 4425 2450 4125 
Q 2775 3825 2775 3400 
Q 2775 3100 2587 2837 
Q 2400 2575 2000 2375 
Q 2425 2125 2625 1825 
Q 2825 1525 2825 1175 
z
M 2425 3375 
Q 2425 3725 2225 3987 
Q 2025 4250 1600 4250 
Q 1125 4250 925 4000 
Q 725 3750 725 3475 
Q 725 3200 1012 2937 
Q 1300 2675 1825 2475 
Q 2125 2625 2275 2850 
Q 2425 3075 2425 3375 
z
" transform="scale(0.015625)"/>
       </defs>
       <use xlink:href="#SimSun-30"/>
       <use xlink:href="#SimSun-2e" transform="translate(50 0)"/>
       <use xlink:href="#SimSun-30" transform="translate(100 0)"/>
       <use xlink:href="#SimSun-38" transform="translate(150 0)"/>
      </g>
     </g>
    </g>
    <g id="xtick_6">
     <g id="line2d_11">
      <path d="M 427.745682 300.540625 
L 427.745682 21.778125 
" clip-path="url(#pddcbfe917e)" style="fill: none; stroke: #b0b0b0; stroke-width: 0.8; stroke-linecap: square"/>
     </g>
     <g id="line2d_12">
      <g>
       <use xlink:href="#mf0e0bcd752" x="427.745682" y="300.540625" style="stroke: #000000; stroke-width: 0.8"/>
      </g>
     </g>
     <g id="text_6">
      <!-- 0.10 -->
      <g transform="translate(417.745682 314.689062) scale(0.1 -0.1)">
       <defs>
        <path id="SimSun-31" d="M 1825 4450 
L 1825 650 
Q 1825 450 1950 350 
Q 2075 250 2300 250 
L 2550 250 
L 2550 100 
L 725 100 
L 725 250 
L 950 250 
Q 1200 250 1312 350 
Q 1425 450 1425 650 
L 1425 3675 
Q 1425 3775 1362 3837 
Q 1300 3900 1175 3900 
L 725 3900 
L 725 4050 
L 950 4050 
Q 1250 4050 1437 4150 
Q 1625 4250 1725 4450 
L 1825 4450 
z
" transform="scale(0.015625)"/>
       </defs>
       <use xlink:href="#SimSun-30"/>
       <use xlink:href="#SimSun-2e" transform="translate(50 0)"/>
       <use xlink:href="#SimSun-31" transform="translate(100 0)"/>
       <use xlink:href="#SimSun-30" transform="translate(150 0)"/>
      </g>
     </g>
    </g>
    <g id="text_7">
     <!-- Δx (Step size) -->
     <g transform="translate(213.5275 328.025) scale(0.1 -0.1)">
      <defs>
       <path id="SimSun-394" d="M 4850 575 
L 1525 575 
L 3125 4475 
L 4850 575 
z
M 1825 750 
L 4300 750 
L 3025 3725 
L 1825 750 
z
" transform="scale(0.015625)"/>
       <path id="SimSun-78" d="M 1675 1825 
L 2125 2500 
Q 2200 2600 2187 2675 
Q 2175 2750 2000 2750 
L 1850 2750 
L 1850 2900 
L 2825 2900 
L 2825 2750 
L 2700 2750 
Q 2650 2750 2575 2737 
Q 2500 2725 2450 2650 
L 1775 1650 
L 2475 500 
Q 2550 375 2662 312 
Q 2775 250 2825 250 
L 2925 250 
L 2925 100 
L 1825 100 
L 1825 250 
L 1975 250 
Q 2125 250 2137 325 
Q 2150 400 2100 500 
L 1575 1350 
L 975 475 
Q 950 350 987 300 
Q 1025 250 1125 250 
L 1200 250 
L 1200 100 
L 225 100 
L 225 250 
L 375 250 
Q 475 250 600 325 
Q 725 400 800 550 
L 1450 1525 
L 800 2575 
Q 775 2625 700 2687 
Q 625 2750 500 2750 
L 375 2750 
L 375 2900 
L 1450 2900 
L 1450 2750 
L 1375 2750 
Q 1250 2750 1225 2675 
Q 1200 2600 1250 2500 
L 1675 1825 
z
M 600 250 
L 600 250 
z
M 825 250 
L 825 250 
z
M 2525 2750 
L 2525 2750 
z
M 2300 2750 
L 2300 2750 
z
M 2250 250 
L 2250 250 
z
M 2625 250 
L 2625 250 
z
M 1100 2750 
L 1100 2750 
z
M 700 2750 
L 700 2750 
z
" transform="scale(0.015625)"/>
       <path id="SimSun-20" d="M 0 0 
Q 0 0 0 0 
z
" transform="scale(0.015625)"/>
       <path id="SimSun-28" d="M 2900 5025 
Q 2325 4425 2037 3737 
Q 1750 3050 1750 2300 
Q 1750 1525 2037 850 
Q 2325 175 2900 -425 
L 2775 -550 
Q 2075 75 1725 787 
Q 1375 1500 1375 2300 
Q 1375 3075 1725 3787 
Q 2075 4500 2775 5150 
L 2900 5025 
z
" transform="scale(0.015625)"/>
       <path id="SimSun-53" d="M 1500 2150 
Q 825 2450 575 2675 
Q 325 2900 325 3375 
Q 325 3750 637 4087 
Q 950 4425 1525 4425 
Q 1775 4425 2000 4350 
Q 2225 4250 2325 4250 
Q 2400 4250 2462 4287 
Q 2525 4325 2575 4425 
L 2675 3400 
L 2550 3350 
Q 2325 3875 2087 4062 
Q 1850 4250 1475 4250 
Q 1000 4250 825 3987 
Q 650 3725 650 3425 
Q 650 3150 812 2987 
Q 975 2825 1700 2500 
Q 2300 2250 2562 1937 
Q 2825 1625 2825 1200 
Q 2825 750 2512 400 
Q 2200 50 1600 50 
Q 1350 50 1150 150 
Q 925 225 800 225 
Q 725 225 650 175 
Q 575 125 475 50 
L 275 1275 
L 425 1325 
Q 600 700 912 462 
Q 1225 225 1625 225 
Q 2050 225 2262 475 
Q 2475 725 2475 1200 
Q 2475 1450 2237 1687 
Q 2000 1925 1500 2150 
z
" transform="scale(0.015625)"/>
       <path id="SimSun-74" d="M 1500 900 
Q 1500 550 1625 425 
Q 1750 300 2000 300 
Q 2250 300 2400 462 
Q 2550 625 2600 925 
L 2725 875 
Q 2675 525 2462 300 
Q 2250 75 1900 75 
Q 1525 75 1337 300 
Q 1150 525 1150 1000 
L 1150 2750 
L 400 2750 
L 400 2900 
L 600 2900 
Q 900 2900 1087 3087 
Q 1275 3275 1325 3675 
L 1350 3875 
L 1500 3875 
L 1500 2900 
L 2500 2900 
L 2500 2750 
L 1500 2750 
L 1500 900 
z
" transform="scale(0.015625)"/>
       <path id="SimSun-65" d="M 2400 1650 
Q 2425 2200 2212 2487 
Q 2000 2775 1650 2775 
Q 1275 2775 1037 2475 
Q 800 2175 800 1650 
L 2400 1650 
z
M 800 1500 
Q 800 825 1062 537 
Q 1325 250 1750 250 
Q 2075 250 2300 437 
Q 2525 625 2625 900 
L 2750 850 
Q 2675 575 2412 312 
Q 2150 50 1700 50 
Q 1125 50 762 425 
Q 400 800 400 1500 
Q 400 2125 762 2537 
Q 1125 2950 1650 2950 
Q 2125 2950 2475 2625 
Q 2825 2300 2825 1500 
L 800 1500 
z
" transform="scale(0.015625)"/>
       <path id="SimSun-70" d="M 1150 -675 
L 1325 -675 
L 1325 -825 
L 175 -825 
L 175 -675 
L 325 -675 
Q 450 -675 500 -625 
Q 550 -575 550 -450 
L 550 2500 
Q 550 2600 500 2662 
Q 450 2725 325 2725 
L 175 2725 
L 175 2875 
L 400 2875 
Q 525 2875 637 2900 
Q 750 2925 850 3000 
L 900 3000 
L 900 2425 
Q 1075 2675 1287 2800 
Q 1500 2925 1750 2925 
Q 2250 2925 2575 2587 
Q 2900 2250 2900 1525 
Q 2900 825 2550 450 
Q 2200 75 1725 75 
Q 1450 75 1262 162 
Q 1075 250 900 425 
L 900 -450 
Q 900 -575 975 -625 
Q 1050 -675 1150 -675 
z
M 900 750 
Q 1025 500 1212 375 
Q 1400 250 1650 250 
Q 2000 250 2250 562 
Q 2500 875 2500 1525 
Q 2500 2125 2312 2425 
Q 2125 2725 1750 2725 
Q 1525 2725 1300 2587 
Q 1075 2450 900 2150 
L 900 750 
z
" transform="scale(0.015625)"/>
       <path id="SimSun-73" d="M 625 2175 
Q 625 2550 912 2750 
Q 1200 2950 1600 2950 
Q 1825 2950 2025 2900 
Q 2225 2825 2300 2825 
Q 2375 2825 2425 2850 
Q 2475 2875 2550 2950 
L 2650 2125 
L 2500 2100 
Q 2400 2425 2162 2612 
Q 1925 2800 1625 2800 
Q 1300 2800 1112 2675 
Q 925 2550 925 2325 
Q 925 2125 1012 2012 
Q 1100 1900 1325 1850 
Q 1500 1775 1775 1700 
Q 2025 1600 2250 1500 
Q 2450 1400 2587 1237 
Q 2725 1075 2725 875 
Q 2725 500 2462 287 
Q 2200 75 1700 75 
Q 1375 75 1225 150 
Q 1050 200 950 200 
Q 875 200 787 162 
Q 700 125 600 75 
L 525 1000 
L 675 1025 
Q 750 625 1000 425 
Q 1250 225 1700 225 
Q 2050 225 2237 350 
Q 2425 475 2425 725 
Q 2425 900 2325 1012 
Q 2225 1125 2125 1175 
Q 1875 1275 1575 1400 
Q 1275 1500 1050 1600 
Q 825 1700 725 1850 
Q 625 2000 625 2175 
z
" transform="scale(0.015625)"/>
       <path id="SimSun-69" d="M 1425 2525 
Q 1425 2625 1375 2687 
Q 1325 2750 1200 2750 
L 675 2750 
L 675 2900 
L 925 2900 
Q 1150 2900 1350 2937 
Q 1550 2975 1725 3075 
L 1775 3075 
L 1775 450 
Q 1775 350 1837 300 
Q 1900 250 2000 250 
L 2525 250 
L 2525 100 
L 675 100 
L 675 250 
L 1200 250 
Q 1325 250 1375 300 
Q 1425 350 1425 450 
L 1425 2525 
z
M 1725 3025 
L 1725 3025 
z
M 1625 4425 
Q 1750 4425 1850 4337 
Q 1950 4250 1950 4125 
Q 1950 4000 1850 3900 
Q 1750 3800 1625 3800 
Q 1500 3800 1400 3900 
Q 1300 4000 1300 4125 
Q 1300 4250 1400 4337 
Q 1500 4425 1625 4425 
z
" transform="scale(0.015625)"/>
       <path id="SimSun-7a" d="M 2750 1075 
L 2575 100 
L 425 100 
L 425 225 
L 2150 2750 
L 1225 2750 
Q 1000 2750 850 2587 
Q 700 2425 600 2025 
L 450 2050 
L 550 2900 
L 2600 2900 
L 2600 2825 
L 850 250 
L 1800 250 
Q 2125 250 2312 450 
Q 2500 650 2600 1100 
L 2750 1075 
z
" transform="scale(0.015625)"/>
       <path id="SimSun-29" d="M 275 5025 
L 400 5150 
Q 1100 4500 1450 3787 
Q 1800 3075 1800 2300 
Q 1800 1500 1450 787 
Q 1100 75 400 -550 
L 275 -425 
Q 850 175 1137 850 
Q 1425 1525 1425 2300 
Q 1425 3050 1137 3737 
Q 850 4425 275 5025 
z
" transform="scale(0.015625)"/>
      </defs>
      <use xlink:href="#SimSun-394"/>
      <use xlink:href="#SimSun-78" transform="translate(100 0)"/>
      <use xlink:href="#SimSun-20" transform="translate(150 0)"/>
      <use xlink:href="#SimSun-28" transform="translate(200 0)"/>
      <use xlink:href="#SimSun-53" transform="translate(250 0)"/>
      <use xlink:href="#SimSun-74" transform="translate(300 0)"/>
      <use xlink:href="#SimSun-65" transform="translate(350 0)"/>
      <use xlink:href="#SimSun-70" transform="translate(400 0)"/>
      <use xlink:href="#SimSun-20" transform="translate(450 0)"/>
      <use xlink:href="#SimSun-73" transform="translate(500 0)"/>
      <use xlink:href="#SimSun-69" transform="translate(550 0)"/>
      <use xlink:href="#SimSun-7a" transform="translate(600 0)"/>
      <use xlink:href="#SimSun-65" transform="translate(650 0)"/>
      <use xlink:href="#SimSun-29" transform="translate(700 0)"/>
     </g>
    </g>
   </g>
   <g id="matplotlib.axis_2">
    <g id="ytick_1">
     <g id="line2d_13">
      <path d="M 56.6375 294.330856 
L 445.4175 294.330856 
" clip-path="url(#pddcbfe917e)" style="fill: none; stroke: #b0b0b0; stroke-width: 0.8; stroke-linecap: square"/>
     </g>
     <g id="line2d_14">
      <defs>
       <path id="m6090c90e57" d="M 0 0 
L -3.5 0 
" style="stroke: #000000; stroke-width: 0.8"/>
      </defs>
      <g>
       <use xlink:href="#m6090c90e57" x="56.6375" y="294.330856" style="stroke: #000000; stroke-width: 0.8"/>
      </g>
     </g>
     <g id="text_8">
      <!-- −0.40 -->
      <g transform="translate(19.6375 297.905075) scale(0.1 -0.1)">
       <defs>
        <path id="SimSun-2212" transform="scale(0.015625)"/>
       </defs>
       <use xlink:href="#SimSun-2212"/>
       <use xlink:href="#SimSun-30" transform="translate(100 0)"/>
       <use xlink:href="#SimSun-2e" transform="translate(150 0)"/>
       <use xlink:href="#SimSun-34" transform="translate(200 0)"/>
       <use xlink:href="#SimSun-30" transform="translate(250 0)"/>
      </g>
     </g>
    </g>
    <g id="ytick_2">
     <g id="line2d_15">
      <path d="M 56.6375 262.800065 
L 445.4175 262.800065 
" clip-path="url(#pddcbfe917e)" style="fill: none; stroke: #b0b0b0; stroke-width: 0.8; stroke-linecap: square"/>
     </g>
     <g id="line2d_16">
      <g>
       <use xlink:href="#m6090c90e57" x="56.6375" y="262.800065" style="stroke: #000000; stroke-width: 0.8"/>
      </g>
     </g>
     <g id="text_9">
      <!-- −0.35 -->
      <g transform="translate(19.6375 266.374283) scale(0.1 -0.1)">
       <defs>
        <path id="SimSun-33" d="M 2800 1250 
Q 2800 775 2450 412 
Q 2100 50 1475 50 
Q 1025 50 700 300 
Q 375 550 375 875 
Q 375 1025 475 1137 
Q 575 1250 675 1250 
Q 825 1250 887 1137 
Q 950 1025 950 950 
Q 950 825 900 750 
Q 850 650 850 575 
Q 850 425 1037 325 
Q 1225 225 1450 225 
Q 1900 225 2125 487 
Q 2350 750 2350 1300 
Q 2350 1750 2112 2025 
Q 1875 2300 1225 2300 
L 1225 2475 
Q 1725 2475 1962 2712 
Q 2200 2950 2200 3375 
Q 2200 3725 2012 3987 
Q 1825 4250 1425 4250 
Q 1250 4250 1050 4162 
Q 850 4075 850 3875 
Q 850 3675 900 3625 
Q 950 3575 950 3500 
Q 950 3375 900 3300 
Q 850 3225 725 3225 
Q 625 3225 537 3300 
Q 450 3375 450 3575 
Q 450 3950 775 4187 
Q 1100 4425 1525 4425 
Q 2025 4425 2325 4112 
Q 2625 3800 2625 3450 
Q 2625 3075 2437 2812 
Q 2250 2550 1850 2425 
Q 2400 2225 2600 1900 
Q 2800 1575 2800 1250 
z
" transform="scale(0.015625)"/>
        <path id="SimSun-35" d="M 1725 2850 
Q 2200 2850 2500 2487 
Q 2800 2125 2800 1525 
Q 2800 850 2487 450 
Q 2175 50 1525 50 
Q 1075 50 725 312 
Q 375 575 375 950 
Q 375 1100 462 1212 
Q 550 1325 700 1325 
Q 850 1325 900 1225 
Q 950 1125 950 1050 
Q 950 900 875 825 
Q 800 725 800 625 
Q 800 425 1037 325 
Q 1275 225 1550 225 
Q 1950 225 2162 550 
Q 2375 875 2375 1475 
Q 2375 1975 2187 2287 
Q 2000 2600 1625 2600 
Q 1350 2600 1150 2500 
Q 950 2400 775 2075 
L 550 2100 
L 675 4375 
L 2725 4375 
L 2650 4000 
L 850 4000 
L 750 2350 
Q 1000 2700 1237 2775 
Q 1475 2850 1725 2850 
z
" transform="scale(0.015625)"/>
       </defs>
       <use xlink:href="#SimSun-2212"/>
       <use xlink:href="#SimSun-30" transform="translate(100 0)"/>
       <use xlink:href="#SimSun-2e" transform="translate(150 0)"/>
       <use xlink:href="#SimSun-33" transform="translate(200 0)"/>
       <use xlink:href="#SimSun-35" transform="translate(250 0)"/>
      </g>
     </g>
    </g>
    <g id="ytick_3">
     <g id="line2d_17">
      <path d="M 56.6375 231.269273 
L 445.4175 231.269273 
" clip-path="url(#pddcbfe917e)" style="fill: none; stroke: #b0b0b0; stroke-width: 0.8; stroke-linecap: square"/>
     </g>
     <g id="line2d_18">
      <g>
       <use xlink:href="#m6090c90e57" x="56.6375" y="231.269273" style="stroke: #000000; stroke-width: 0.8"/>
      </g>
     </g>
     <g id="text_10">
      <!-- −0.30 -->
      <g transform="translate(19.6375 234.843492) scale(0.1 -0.1)">
       <use xlink:href="#SimSun-2212"/>
       <use xlink:href="#SimSun-30" transform="translate(100 0)"/>
       <use xlink:href="#SimSun-2e" transform="translate(150 0)"/>
       <use xlink:href="#SimSun-33" transform="translate(200 0)"/>
       <use xlink:href="#SimSun-30" transform="translate(250 0)"/>
      </g>
     </g>
    </g>
    <g id="ytick_4">
     <g id="line2d_19">
      <path d="M 56.6375 199.738482 
L 445.4175 199.738482 
" clip-path="url(#pddcbfe917e)" style="fill: none; stroke: #b0b0b0; stroke-width: 0.8; stroke-linecap: square"/>
     </g>
     <g id="line2d_20">
      <g>
       <use xlink:href="#m6090c90e57" x="56.6375" y="199.738482" style="stroke: #000000; stroke-width: 0.8"/>
      </g>
     </g>
     <g id="text_11">
      <!-- −0.25 -->
      <g transform="translate(19.6375 203.312701) scale(0.1 -0.1)">
       <use xlink:href="#SimSun-2212"/>
       <use xlink:href="#SimSun-30" transform="translate(100 0)"/>
       <use xlink:href="#SimSun-2e" transform="translate(150 0)"/>
       <use xlink:href="#SimSun-32" transform="translate(200 0)"/>
       <use xlink:href="#SimSun-35" transform="translate(250 0)"/>
      </g>
     </g>
    </g>
    <g id="ytick_5">
     <g id="line2d_21">
      <path d="M 56.6375 168.207691 
L 445.4175 168.207691 
" clip-path="url(#pddcbfe917e)" style="fill: none; stroke: #b0b0b0; stroke-width: 0.8; stroke-linecap: square"/>
     </g>
     <g id="line2d_22">
      <g>
       <use xlink:href="#m6090c90e57" x="56.6375" y="168.207691" style="stroke: #000000; stroke-width: 0.8"/>
      </g>
     </g>
     <g id="text_12">
      <!-- −0.20 -->
      <g transform="translate(19.6375 171.78191) scale(0.1 -0.1)">
       <use xlink:href="#SimSun-2212"/>
       <use xlink:href="#SimSun-30" transform="translate(100 0)"/>
       <use xlink:href="#SimSun-2e" transform="translate(150 0)"/>
       <use xlink:href="#SimSun-32" transform="translate(200 0)"/>
       <use xlink:href="#SimSun-30" transform="translate(250 0)"/>
      </g>
     </g>
    </g>
    <g id="ytick_6">
     <g id="line2d_23">
      <path d="M 56.6375 136.676899 
L 445.4175 136.676899 
" clip-path="url(#pddcbfe917e)" style="fill: none; stroke: #b0b0b0; stroke-width: 0.8; stroke-linecap: square"/>
     </g>
     <g id="line2d_24">
      <g>
       <use xlink:href="#m6090c90e57" x="56.6375" y="136.676899" style="stroke: #000000; stroke-width: 0.8"/>
      </g>
     </g>
     <g id="text_13">
      <!-- −0.15 -->
      <g transform="translate(19.6375 140.251118) scale(0.1 -0.1)">
       <use xlink:href="#SimSun-2212"/>
       <use xlink:href="#SimSun-30" transform="translate(100 0)"/>
       <use xlink:href="#SimSun-2e" transform="translate(150 0)"/>
       <use xlink:href="#SimSun-31" transform="translate(200 0)"/>
       <use xlink:href="#SimSun-35" transform="translate(250 0)"/>
      </g>
     </g>
    </g>
    <g id="ytick_7">
     <g id="line2d_25">
      <path d="M 56.6375 105.146108 
L 445.4175 105.146108 
" clip-path="url(#pddcbfe917e)" style="fill: none; stroke: #b0b0b0; stroke-width: 0.8; stroke-linecap: square"/>
     </g>
     <g id="line2d_26">
      <g>
       <use xlink:href="#m6090c90e57" x="56.6375" y="105.146108" style="stroke: #000000; stroke-width: 0.8"/>
      </g>
     </g>
     <g id="text_14">
      <!-- −0.10 -->
      <g transform="translate(19.6375 108.720327) scale(0.1 -0.1)">
       <use xlink:href="#SimSun-2212"/>
       <use xlink:href="#SimSun-30" transform="translate(100 0)"/>
       <use xlink:href="#SimSun-2e" transform="translate(150 0)"/>
       <use xlink:href="#SimSun-31" transform="translate(200 0)"/>
       <use xlink:href="#SimSun-30" transform="translate(250 0)"/>
      </g>
     </g>
    </g>
    <g id="ytick_8">
     <g id="line2d_27">
      <path d="M 56.6375 73.615317 
L 445.4175 73.615317 
" clip-path="url(#pddcbfe917e)" style="fill: none; stroke: #b0b0b0; stroke-width: 0.8; stroke-linecap: square"/>
     </g>
     <g id="line2d_28">
      <g>
       <use xlink:href="#m6090c90e57" x="56.6375" y="73.615317" style="stroke: #000000; stroke-width: 0.8"/>
      </g>
     </g>
     <g id="text_15">
      <!-- −0.05 -->
      <g transform="translate(19.6375 77.189536) scale(0.1 -0.1)">
       <use xlink:href="#SimSun-2212"/>
       <use xlink:href="#SimSun-30" transform="translate(100 0)"/>
       <use xlink:href="#SimSun-2e" transform="translate(150 0)"/>
       <use xlink:href="#SimSun-30" transform="translate(200 0)"/>
       <use xlink:href="#SimSun-35" transform="translate(250 0)"/>
      </g>
     </g>
    </g>
    <g id="ytick_9">
     <g id="line2d_29">
      <path d="M 56.6375 42.084526 
L 445.4175 42.084526 
" clip-path="url(#pddcbfe917e)" style="fill: none; stroke: #b0b0b0; stroke-width: 0.8; stroke-linecap: square"/>
     </g>
     <g id="line2d_30">
      <g>
       <use xlink:href="#m6090c90e57" x="56.6375" y="42.084526" style="stroke: #000000; stroke-width: 0.8"/>
      </g>
     </g>
     <g id="text_16">
      <!-- 0.00 -->
      <g transform="translate(29.6375 45.658744) scale(0.1 -0.1)">
       <use xlink:href="#SimSun-30"/>
       <use xlink:href="#SimSun-2e" transform="translate(50 0)"/>
       <use xlink:href="#SimSun-30" transform="translate(100 0)"/>
       <use xlink:href="#SimSun-30" transform="translate(150 0)"/>
      </g>
     </g>
    </g>
    <g id="text_17">
     <!-- Error -->
     <g transform="translate(14.348438 173.659375) rotate(-90) scale(0.1 -0.1)">
      <defs>
       <path id="SimSun-45" d="M 200 4225 
L 200 4375 
L 2650 4375 
L 2925 3525 
L 2800 3475 
Q 2600 3850 2375 4037 
Q 2150 4225 1875 4225 
L 1175 4225 
Q 1075 4225 1012 4175 
Q 950 4125 950 4025 
L 950 2475 
L 1675 2475 
Q 1925 2475 2037 2600 
Q 2150 2725 2150 2975 
L 2150 3125 
L 2300 3125 
L 2300 1650 
L 2150 1650 
L 2150 1750 
Q 2150 2025 2037 2175 
Q 1925 2325 1675 2325 
L 950 2325 
L 950 450 
Q 950 350 1012 300 
Q 1075 250 1175 250 
L 1825 250 
Q 2200 250 2462 462 
Q 2725 675 2875 1125 
L 3000 1075 
L 2725 100 
L 175 100 
L 175 250 
L 325 250 
Q 450 250 500 300 
Q 550 350 550 450 
L 550 4025 
Q 550 4125 500 4175 
Q 450 4225 325 4225 
L 200 4225 
z
" transform="scale(0.015625)"/>
       <path id="SimSun-72" d="M 1275 2125 
Q 1525 2525 1812 2737 
Q 2100 2950 2400 2950 
Q 2650 2950 2787 2837 
Q 2925 2725 2925 2575 
Q 2925 2450 2862 2375 
Q 2800 2300 2675 2300 
Q 2550 2300 2487 2375 
Q 2425 2450 2450 2575 
Q 2450 2650 2425 2700 
Q 2400 2750 2275 2750 
Q 2075 2750 1787 2500 
Q 1500 2250 1275 1800 
L 1275 450 
Q 1275 350 1337 300 
Q 1400 250 1500 250 
L 2050 250 
L 2050 100 
L 200 100 
L 200 250 
L 700 250 
Q 825 250 875 300 
Q 925 350 925 450 
L 925 2525 
Q 925 2625 875 2687 
Q 825 2750 700 2750 
L 225 2750 
L 225 2900 
L 425 2900 
Q 600 2900 837 2937 
Q 1075 2975 1200 3025 
L 1275 3025 
L 1275 2125 
z
" transform="scale(0.015625)"/>
       <path id="SimSun-6f" d="M 2900 1500 
Q 2900 875 2525 462 
Q 2150 50 1600 50 
Q 1025 50 662 475 
Q 300 900 300 1500 
Q 300 2050 662 2500 
Q 1025 2950 1600 2950 
Q 2200 2950 2550 2500 
Q 2900 2050 2900 1500 
z
M 700 1475 
Q 700 825 962 512 
Q 1225 200 1600 200 
Q 2025 200 2262 537 
Q 2500 875 2500 1475 
Q 2500 2125 2237 2462 
Q 1975 2800 1600 2800 
Q 1250 2800 975 2462 
Q 700 2125 700 1475 
z
" transform="scale(0.015625)"/>
      </defs>
      <use xlink:href="#SimSun-45"/>
      <use xlink:href="#SimSun-72" transform="translate(50 0)"/>
      <use xlink:href="#SimSun-72" transform="translate(100 0)"/>
      <use xlink:href="#SimSun-6f" transform="translate(150 0)"/>
      <use xlink:href="#SimSun-72" transform="translate(200 0)"/>
     </g>
    </g>
   </g>
   <g id="line2d_31">
    <path d="M 74.309318 42.10886 
L 75.581816 42.86184 
L 96.15387 55.225971 
L 116.902659 67.955909 
L 137.828185 81.055602 
L 158.930446 94.52883 
L 180.209443 108.379198 
L 201.665176 122.610121 
L 223.332991 137.248916 
L 245.21289 152.299894 
L 267.304872 167.767136 
L 289.644284 183.67987 
L 312.19578 200.017136 
L 334.994705 216.808476 
L 358.076408 234.084832 
L 381.440888 251.851414 
L 405.088145 270.113072 
L 427.745682 287.869602 
L 427.745682 287.869602 
" clip-path="url(#pddcbfe917e)" style="fill: none; stroke: #ffa500; stroke-width: 1.5; stroke-linecap: square"/>
   </g>
   <g id="line2d_32">
    <path d="M 74.309318 42.095994 
L 138.252351 62.725342 
L 200.428025 82.552093 
L 261.013076 101.639414 
L 320.18424 120.049282 
L 378.082906 137.831407 
L 427.745682 152.894167 
L 427.745682 152.894167 
" clip-path="url(#pddcbfe917e)" style="fill: none; stroke: #008000; stroke-width: 1.5; stroke-linecap: square"/>
   </g>
   <g id="line2d_33">
    <path d="M 74.309318 42.084526 
L 137.297977 41.973295 
L 200.321983 41.639687 
L 263.381336 41.083583 
L 326.511384 40.304536 
L 389.747473 39.301772 
L 427.745682 38.592467 
L 427.745682 38.592467 
" clip-path="url(#pddcbfe917e)" style="fill: none; stroke: #0000ff; stroke-width: 1.5; stroke-linecap: square"/>
   </g>
   <g id="line2d_34">
    <path d="M 74.309318 42.085056 
L 80.03556 42.082494 
L 122.628901 41.941448 
L 165.257589 41.578015 
L 207.886278 40.992305 
L 250.514966 40.184453 
L 293.179002 39.153702 
L 335.878384 37.89974 
L 378.613114 36.422307 
L 421.383191 34.721197 
L 427.745682 34.449148 
L 427.745682 34.449148 
" clip-path="url(#pddcbfe917e)" style="fill: none; stroke: #ff0000; stroke-width: 1.5; stroke-linecap: square"/>
   </g>
   <g id="line2d_35">
    <path d="M 74.450707 42.189683 
L 427.604293 287.758021 
" clip-path="url(#pddcbfe917e)" style="fill: none; stroke-dasharray: 5.55,2.4; stroke-dashoffset: 0; stroke: #808080; stroke-width: 1.5"/>
   </g>
   <g id="line2d_36">
    <path d="M 74.450707 42.141866 
L 427.604293 152.851539 
" clip-path="url(#pddcbfe917e)" style="fill: none; stroke-dasharray: 5.55,2.4; stroke-dashoffset: 0; stroke: #808080; stroke-width: 1.5"/>
   </g>
   <g id="patch_3">
    <path d="M 56.6375 300.540625 
L 56.6375 21.778125 
" style="fill: none; stroke: #000000; stroke-width: 0.8; stroke-linejoin: miter; stroke-linecap: square"/>
   </g>
   <g id="patch_4">
    <path d="M 445.4175 300.540625 
L 445.4175 21.778125 
" style="fill: none; stroke: #000000; stroke-width: 0.8; stroke-linejoin: miter; stroke-linecap: square"/>
   </g>
   <g id="patch_5">
    <path d="M 56.6375 300.540625 
L 445.4175 300.540625 
" style="fill: none; stroke: #000000; stroke-width: 0.8; stroke-linejoin: miter; stroke-linecap: square"/>
   </g>
   <g id="patch_6">
    <path d="M 56.6375 21.778125 
L 445.4175 21.778125 
" style="fill: none; stroke: #000000; stroke-width: 0.8; stroke-linejoin: miter; stroke-linecap: square"/>
   </g>
   <g id="text_18">
    <!-- Error2 vs. Δx -->
    <g transform="translate(209.0275 15.778125) scale(0.12 -0.12)">
     <defs>
      <path id="SimSun-76" d="M 1625 75 
L 1475 75 
L 625 2525 
Q 600 2625 525 2687 
Q 450 2750 350 2750 
L 225 2750 
L 225 2900 
L 1300 2900 
L 1300 2750 
L 1200 2750 
Q 1050 2750 1025 2700 
Q 1000 2650 1000 2600 
Q 1000 2500 1025 2425 
L 1625 675 
L 1675 675 
L 2275 2400 
Q 2325 2525 2325 2575 
Q 2325 2600 2275 2675 
Q 2225 2750 2075 2750 
L 2025 2750 
L 2025 2900 
L 2925 2900 
L 2925 2750 
L 2875 2750 
Q 2725 2750 2637 2662 
Q 2550 2575 2475 2400 
L 1625 75 
z
M 2600 2750 
L 2600 2750 
z
M 2400 2750 
L 2400 2750 
z
M 925 2750 
L 925 2750 
z
M 550 2750 
L 550 2750 
z
" transform="scale(0.015625)"/>
     </defs>
     <use xlink:href="#SimSun-45"/>
     <use xlink:href="#SimSun-72" transform="translate(50 0)"/>
     <use xlink:href="#SimSun-72" transform="translate(100 0)"/>
     <use xlink:href="#SimSun-6f" transform="translate(150 0)"/>
     <use xlink:href="#SimSun-72" transform="translate(200 0)"/>
     <use xlink:href="#SimSun-32" transform="translate(250 0)"/>
     <use xlink:href="#SimSun-20" transform="translate(300 0)"/>
     <use xlink:href="#SimSun-76" transform="translate(350 0)"/>
     <use xlink:href="#SimSun-73" transform="translate(400 0)"/>
     <use xlink:href="#SimSun-2e" transform="translate(450 0)"/>
     <use xlink:href="#SimSun-20" transform="translate(500 0)"/>
     <use xlink:href="#SimSun-394" transform="translate(550 0)"/>
     <use xlink:href="#SimSun-78" transform="translate(650 0)"/>
    </g>
   </g>
   <g id="legend_1">
    <g id="patch_7">
     <path d="M 63.6375 295.540625 
L 320.6375 295.540625 
Q 322.6375 295.540625 322.6375 293.540625 
L 322.6375 208.99375 
Q 322.6375 206.99375 320.6375 206.99375 
L 63.6375 206.99375 
Q 61.6375 206.99375 61.6375 208.99375 
L 61.6375 293.540625 
Q 61.6375 295.540625 63.6375 295.540625 
z
" style="fill: #ffffff; opacity: 0.8; stroke: #cccccc; stroke-linejoin: miter"/>
    </g>
    <g id="line2d_37">
     <path d="M 65.6375 215.501562 
L 75.6375 215.501562 
L 85.6375 215.501562 
" style="fill: none; stroke: #ffa500; stroke-width: 1.5; stroke-linecap: square"/>
    </g>
    <g id="text_19">
     <!-- 2nd F-Derivative Error(1阶精度的二阶微分误差) -->
     <g transform="translate(93.6375 219.001562) scale(0.1 -0.1)">
      <defs>
       <path id="SimSun-6e" d="M 200 100 
L 200 250 
L 325 250 
Q 450 250 500 300 
Q 550 350 550 450 
L 550 2600 
Q 550 2675 525 2712 
Q 500 2750 425 2750 
L 225 2750 
L 225 2900 
L 400 2900 
Q 525 2900 637 2925 
Q 750 2950 850 3025 
L 900 3025 
L 900 2450 
Q 1125 2700 1350 2825 
Q 1575 2950 1825 2950 
Q 2250 2950 2450 2725 
Q 2650 2500 2650 2050 
L 2650 450 
Q 2650 350 2712 300 
Q 2775 250 2875 250 
L 3000 250 
L 3000 100 
L 1950 100 
L 1950 250 
L 2075 250 
Q 2200 250 2250 300 
Q 2300 350 2300 450 
L 2300 2125 
Q 2300 2425 2175 2587 
Q 2050 2750 1800 2750 
Q 1575 2750 1337 2600 
Q 1100 2450 900 2175 
L 900 450 
Q 900 350 962 300 
Q 1025 250 1125 250 
L 1250 250 
L 1250 100 
L 200 100 
z
" transform="scale(0.015625)"/>
       <path id="SimSun-64" d="M 2300 2350 
Q 2175 2550 1975 2637 
Q 1775 2725 1575 2725 
Q 1200 2725 987 2375 
Q 775 2025 775 1450 
Q 775 850 975 562 
Q 1175 275 1550 275 
Q 1825 275 2012 450 
Q 2200 625 2300 975 
L 2300 2350 
z
M 1475 75 
Q 1025 75 700 437 
Q 375 800 375 1500 
Q 375 2150 725 2537 
Q 1075 2925 1550 2925 
Q 1750 2925 1962 2837 
Q 2175 2750 2300 2575 
L 2300 3925 
Q 2300 4075 2250 4150 
Q 2200 4225 2075 4225 
L 1875 4225 
L 1875 4375 
L 2150 4375 
Q 2275 4375 2400 4425 
Q 2525 4475 2650 4575 
L 2650 625 
Q 2650 500 2700 450 
Q 2750 400 2850 400 
L 3025 400 
L 3025 250 
L 2875 250 
Q 2775 250 2637 212 
Q 2500 175 2350 100 
L 2300 100 
L 2300 575 
Q 2175 350 1962 212 
Q 1750 75 1475 75 
z
" transform="scale(0.015625)"/>
       <path id="SimSun-46" d="M 1350 250 
L 1350 100 
L 150 100 
L 150 250 
L 325 250 
Q 450 250 500 300 
Q 550 350 550 450 
L 550 4025 
Q 550 4125 500 4175 
Q 450 4225 325 4225 
L 175 4225 
L 175 4375 
L 2775 4375 
L 3075 3475 
L 2950 3425 
Q 2750 3825 2475 4025 
Q 2200 4225 1875 4225 
L 1175 4225 
Q 1075 4225 1012 4175 
Q 950 4125 950 4025 
L 950 2425 
L 1775 2425 
Q 2025 2425 2137 2537 
Q 2250 2650 2250 2900 
L 2250 3025 
L 2400 3025 
L 2400 1575 
L 2250 1575 
L 2250 1675 
Q 2250 1975 2137 2125 
Q 2025 2275 1775 2275 
L 950 2275 
L 950 450 
Q 950 350 1012 300 
Q 1075 250 1175 250 
L 1350 250 
z
" transform="scale(0.015625)"/>
       <path id="SimSun-2d" d="M 200 2225 
L 200 2450 
L 2975 2450 
L 2975 2225 
L 200 2225 
z
" transform="scale(0.015625)"/>
       <path id="SimSun-44" d="M 2500 2275 
Q 2500 3350 2175 3787 
Q 1850 4225 1275 4225 
Q 1100 4225 1012 4175 
Q 925 4125 925 4025 
L 925 450 
Q 925 350 1000 300 
Q 1075 250 1200 250 
Q 1750 250 2125 662 
Q 2500 1075 2500 2275 
z
M 525 4025 
Q 525 4125 475 4175 
Q 425 4225 300 4225 
L 150 4225 
L 150 4375 
L 1275 4375 
Q 2050 4375 2512 3875 
Q 2975 3375 2975 2325 
Q 2975 1175 2525 637 
Q 2075 100 1200 100 
L 125 100 
L 125 250 
L 300 250 
Q 425 250 475 300 
Q 525 350 525 450 
L 525 4025 
z
" transform="scale(0.015625)"/>
       <path id="SimSun-61" d="M 1225 75 
Q 775 75 525 287 
Q 275 500 275 775 
Q 275 1225 662 1512 
Q 1050 1800 2200 1925 
L 2200 2225 
Q 2200 2475 2087 2637 
Q 1975 2800 1575 2800 
Q 1150 2800 975 2662 
Q 800 2525 850 2375 
Q 875 2325 875 2275 
Q 875 2225 837 2150 
Q 800 2075 650 2075 
Q 550 2075 487 2137 
Q 425 2200 425 2325 
Q 425 2550 750 2750 
Q 1075 2950 1550 2950 
Q 2050 2950 2300 2762 
Q 2550 2575 2550 2225 
L 2550 575 
Q 2550 375 2587 337 
Q 2625 300 2725 300 
Q 2850 300 2900 412 
Q 2950 525 2950 725 
L 3075 725 
Q 3075 375 2950 237 
Q 2825 100 2625 100 
Q 2450 100 2350 175 
Q 2250 250 2200 425 
Q 1950 250 1737 162 
Q 1525 75 1225 75 
z
M 700 850 
Q 700 625 837 437 
Q 975 250 1275 250 
Q 1500 250 1725 337 
Q 1950 425 2200 600 
L 2200 1775 
Q 1350 1675 1025 1437 
Q 700 1200 700 850 
z
" transform="scale(0.015625)"/>
       <path id="SimSun-9636" d="M 4200 4950 
L 4000 4825 
Q 4400 4075 4887 3662 
Q 5375 3250 6125 3075 
L 6125 3000 
Q 5850 2975 5700 2700 
Q 5000 3050 4600 3537 
Q 4200 4025 3925 4700 
Q 3425 3775 2987 3350 
Q 2550 2925 2025 2650 
L 2000 2725 
Q 2825 3400 3237 4150 
Q 3650 4900 3725 5250 
L 4200 4950 
z
M 3400 2625 
Q 3400 1375 3300 900 
Q 3200 425 2875 62 
Q 2550 -300 1900 -600 
L 1875 -525 
Q 2625 -50 2837 462 
Q 3050 975 3062 1762 
Q 3075 2550 3050 3025 
L 3575 2750 
L 3400 2625 
z
M 4425 -500 
Q 4450 400 4450 1312 
Q 4450 2225 4425 3025 
L 4925 2725 
L 4775 2600 
L 4775 550 
Q 4775 125 4800 -300 
L 4425 -500 
z
M 1825 4525 
L 875 4525 
L 875 1375 
Q 1475 1200 1712 1275 
Q 1950 1350 1912 1862 
Q 1875 2375 1350 2975 
L 1825 4525 
z
M 525 -600 
Q 550 100 550 2300 
Q 550 4500 525 4900 
L 900 4675 
L 1825 4675 
L 2050 4900 
L 2400 4550 
L 2175 4425 
Q 1950 3975 1475 2975 
Q 1825 2675 2037 2350 
Q 2250 2025 2275 1725 
Q 2300 1425 2125 1162 
Q 1950 900 1450 750 
Q 1375 1075 875 1250 
L 875 -425 
L 525 -600 
z
" transform="scale(0.015625)"/>
       <path id="SimSun-7cbe" d="M 3500 2050 
L 3500 1550 
L 5125 1550 
L 5125 2050 
L 3500 2050 
z
M 3500 1400 
L 3500 850 
L 5125 850 
L 5125 1400 
L 3500 1400 
z
M 2875 4400 
L 4150 4400 
Q 4150 5025 4125 5275 
L 4675 5050 
L 4475 4850 
L 4475 4400 
L 5225 4400 
L 5500 4675 
L 5900 4250 
L 4475 4250 
L 4475 3625 
L 5075 3625 
L 5325 3875 
L 5700 3475 
L 4475 3475 
L 4475 2825 
L 5400 2825 
L 5675 3100 
L 6075 2675 
L 3525 2675 
Q 3200 2675 2925 2600 
L 2700 2825 
L 4150 2825 
L 4150 3475 
L 3875 3475 
Q 3550 3475 3275 3400 
L 3050 3625 
L 4150 3625 
L 4150 4250 
L 3700 4250 
Q 3375 4250 3100 4175 
L 2875 4400 
z
M 3150 -650 
Q 3175 100 3175 1062 
Q 3175 2025 3150 2425 
L 3525 2200 
L 5075 2200 
L 5300 2425 
L 5650 2075 
L 5450 1950 
L 5450 -25 
Q 5450 -325 5350 -450 
Q 5250 -575 4975 -675 
Q 4900 -350 4275 -175 
L 4275 -75 
Q 4900 -175 5012 -162 
Q 5125 -150 5125 0 
L 5125 700 
L 3500 700 
L 3500 -500 
L 3150 -650 
z
M 2800 4300 
L 2600 4225 
Q 2200 3650 1900 3325 
L 1850 3375 
Q 2225 4100 2350 4625 
L 2800 4300 
z
M 525 4525 
Q 975 4150 1087 3975 
Q 1200 3800 1150 3625 
Q 1100 3450 962 3387 
Q 825 3325 800 3625 
Q 775 3900 475 4475 
L 525 4525 
z
M 1425 4075 
Q 1425 4875 1400 5200 
L 1975 4950 
L 1750 4750 
L 1750 3050 
L 2100 3050 
L 2375 3325 
L 2775 2900 
L 1750 2900 
L 1750 2450 
Q 2525 2100 2562 1837 
Q 2600 1575 2512 1500 
Q 2425 1425 2400 1425 
Q 2300 1425 2200 1700 
Q 2050 2050 1750 2325 
L 1750 525 
Q 1750 0 1775 -425 
L 1400 -625 
Q 1425 -50 1425 2000 
Q 1025 1025 300 300 
L 250 375 
Q 650 975 912 1575 
Q 1175 2175 1350 2900 
L 1125 2900 
Q 800 2900 525 2825 
L 300 3050 
L 1425 3050 
L 1425 4075 
z
" transform="scale(0.015625)"/>
       <path id="SimSun-5ea6" d="M 2550 2025 
Q 2575 2525 2575 3175 
L 1925 3175 
L 1625 3125 
L 1425 3325 
L 2575 3325 
Q 2575 3700 2550 4150 
L 3100 3875 
L 2900 3750 
L 2900 3325 
L 4300 3325 
Q 4300 3750 4275 4125 
L 4850 3875 
L 4625 3725 
L 4625 3325 
L 5100 3325 
L 5425 3650 
L 5900 3175 
L 4625 3175 
Q 4625 2450 4650 2225 
L 4300 2075 
L 4300 2300 
L 2900 2300 
L 2900 2175 
L 2550 2025 
z
M 4875 1500 
Q 4300 775 3900 425 
Q 4700 -75 6025 -125 
L 6025 -225 
Q 5625 -300 5550 -550 
Q 4375 -325 3675 225 
Q 2475 -450 1075 -625 
L 1050 -525 
Q 2375 -275 3450 450 
Q 2975 925 2575 1625 
L 2325 1625 
L 2100 1575 
L 1900 1775 
L 4525 1775 
L 4750 2000 
L 5125 1625 
L 4875 1500 
z
M 2700 1625 
Q 3175 975 3650 625 
Q 4150 1100 4500 1625 
L 2700 1625 
z
M 2900 3175 
L 2900 2450 
L 4300 2450 
L 4300 3175 
L 2900 3175 
z
M 975 4650 
L 1400 4400 
L 3375 4400 
Q 3350 4550 3262 4725 
Q 3175 4900 2900 5225 
L 2975 5275 
Q 3550 5025 3637 4887 
Q 3725 4750 3725 4725 
Q 3725 4575 3525 4400 
L 5150 4400 
L 5500 4750 
L 6000 4250 
L 1375 4250 
Q 1400 2750 1287 1912 
Q 1175 1075 925 475 
Q 675 -125 300 -625 
L 225 -575 
Q 725 300 862 1250 
Q 1000 2200 1012 3187 
Q 1025 4175 975 4650 
z
" transform="scale(0.015625)"/>
       <path id="SimSun-7684" d="M 1125 3775 
L 1125 2175 
L 2425 2175 
L 2425 3775 
L 1125 3775 
z
M 1125 2025 
L 1125 275 
L 2425 275 
L 2425 2025 
L 1125 2025 
z
M 2750 3625 
Q 2750 700 2775 -200 
L 2425 -400 
L 2425 125 
L 1125 125 
L 1125 -300 
L 775 -500 
Q 800 675 800 1837 
Q 800 3000 775 4150 
L 1150 3925 
L 1400 3925 
Q 1650 4775 1675 5225 
L 2225 4925 
Q 1975 4800 1550 3925 
L 2375 3925 
L 2625 4175 
L 3000 3800 
L 2750 3625 
z
M 3975 5200 
L 4525 4875 
Q 4325 4750 3900 3850 
L 5250 3850 
L 5525 4125 
L 5900 3750 
L 5675 3575 
Q 5625 650 5537 262 
Q 5450 -125 5287 -275 
Q 5125 -425 4775 -550 
Q 4650 -150 3950 50 
L 3950 175 
Q 4575 50 4850 50 
Q 5125 50 5187 475 
Q 5250 900 5300 3700 
L 3850 3700 
Q 3400 2975 2900 2475 
L 2825 2525 
Q 3350 3325 3600 3950 
Q 3850 4575 3975 5200 
z
M 3525 2750 
Q 4125 2300 4225 2087 
Q 4325 1875 4325 1775 
Q 4325 1600 4225 1475 
Q 4125 1350 4075 1350 
Q 3975 1350 3925 1700 
Q 3825 2200 3475 2675 
L 3525 2750 
z
" transform="scale(0.015625)"/>
       <path id="SimSun-4e8c" d="M 975 3900 
L 4650 3900 
L 5000 4250 
L 5500 3750 
L 1775 3750 
Q 1475 3750 1200 3675 
L 975 3900 
z
M 350 425 
L 5000 425 
L 5450 875 
L 6050 275 
L 1200 275 
Q 850 275 575 200 
L 350 425 
z
" transform="scale(0.015625)"/>
       <path id="SimSun-5fae" d="M 1200 5125 
L 1650 4800 
Q 1450 4750 1150 4400 
Q 850 4025 400 3625 
L 325 3675 
Q 675 4100 912 4487 
Q 1150 4875 1200 5125 
z
M 1425 3850 
L 1875 3525 
Q 1650 3450 1425 3000 
L 1425 -450 
L 1075 -625 
Q 1100 -25 1100 450 
L 1100 2550 
Q 800 2125 325 1625 
L 250 1675 
Q 425 1925 687 2337 
Q 950 2750 1150 3175 
Q 1350 3600 1425 3850 
z
M 3750 4200 
Q 3750 3625 3775 3225 
L 3450 3100 
L 3450 3300 
L 2350 3300 
L 2200 3150 
L 1900 3450 
L 2050 3550 
Q 2050 4175 2025 4600 
L 2525 4375 
L 2350 4225 
L 2350 3450 
L 2750 3450 
Q 2750 4675 2725 5200 
L 3225 4975 
L 3050 4825 
L 3050 3450 
L 3450 3450 
Q 3450 4125 3425 4575 
L 3925 4350 
L 3750 4200 
z
M 1850 2675 
L 3275 2675 
L 3500 2900 
L 3875 2525 
L 2625 2525 
Q 2325 2525 2075 2450 
L 1850 2675 
z
M 3475 750 
L 4200 1325 
L 4250 1250 
Q 3575 525 3350 100 
L 3075 450 
Q 3200 575 3175 875 
L 3175 1725 
L 2550 1725 
Q 2575 950 2412 500 
Q 2250 50 1725 -400 
L 1650 -350 
Q 2050 150 2137 575 
Q 2225 1000 2225 1450 
Q 2225 1800 2200 2075 
L 2550 1875 
L 3150 1875 
L 3300 2100 
L 3650 1800 
L 3475 1675 
L 3475 750 
z
M 4475 3425 
Q 4550 2125 4875 1175 
Q 5225 2175 5275 3425 
L 4475 3425 
z
M 4500 5150 
L 5075 4875 
L 4875 4750 
Q 4725 4200 4525 3575 
L 5425 3575 
L 5700 3850 
L 6125 3425 
L 5600 3425 
Q 5475 1775 5075 850 
Q 5550 75 6150 -50 
L 6150 -150 
Q 5775 -200 5700 -425 
Q 5225 -25 4875 625 
Q 4150 -150 2900 -650 
L 2850 -575 
Q 4025 25 4725 900 
Q 4400 1875 4375 3125 
Q 4175 2500 3875 1975 
L 3800 2000 
Q 4125 2900 4312 3850 
Q 4500 4800 4500 5150 
z
" transform="scale(0.015625)"/>
       <path id="SimSun-5206" d="M 2350 5050 
L 2850 4675 
L 2625 4550 
Q 2200 3750 1687 3125 
Q 1175 2500 375 2025 
L 325 2100 
Q 975 2625 1475 3337 
Q 1975 4050 2350 5050 
z
M 4100 4975 
L 3900 4850 
Q 4175 3850 4800 3300 
Q 5425 2750 6125 2625 
L 6125 2550 
Q 5750 2500 5600 2225 
Q 4775 2675 4287 3425 
Q 3800 4175 3625 5175 
L 4100 4975 
z
M 1375 2625 
L 4225 2625 
L 4475 2875 
L 4825 2525 
L 4625 2375 
Q 4575 400 4375 -12 
Q 4175 -425 3675 -600 
Q 3600 -200 2975 -25 
L 2975 75 
Q 3600 -25 3787 -12 
Q 3975 0 4075 275 
Q 4175 550 4275 2475 
L 2975 2475 
Q 2825 1400 2375 662 
Q 1925 -75 650 -625 
L 600 -525 
Q 1725 50 2112 837 
Q 2500 1625 2575 2475 
L 1800 2475 
L 1575 2425 
L 1375 2625 
z
" transform="scale(0.015625)"/>
       <path id="SimSun-8bef" d="M 975 4900 
L 1050 4950 
Q 1525 4650 1650 4487 
Q 1775 4325 1750 4150 
Q 1725 3975 1637 3900 
Q 1550 3825 1525 3825 
Q 1425 3825 1375 4050 
Q 1300 4375 975 4900 
z
M 1625 600 
L 2475 1375 
L 2550 1325 
Q 2125 750 1900 450 
Q 1650 125 1525 -150 
L 1200 250 
Q 1300 375 1300 600 
L 1300 2775 
L 1025 2775 
Q 825 2775 550 2700 
L 325 2925 
L 1275 2925 
L 1450 3175 
L 1825 2850 
L 1625 2700 
L 1625 600 
z
M 3100 4650 
L 3100 3550 
L 4950 3550 
L 4950 4650 
L 3100 4650 
z
M 2750 3100 
Q 2775 3625 2775 4075 
Q 2775 4525 2750 5000 
L 3100 4800 
L 4925 4800 
L 5075 5025 
L 5450 4750 
L 5275 4600 
Q 5275 3800 5300 3325 
L 4950 3175 
L 4950 3400 
L 3100 3400 
L 3100 3225 
L 2750 3100 
z
M 2375 2725 
L 5050 2725 
L 5375 3050 
L 5825 2575 
L 4125 2575 
Q 4100 2100 4075 1675 
L 5275 1675 
L 5600 2000 
L 6050 1525 
L 4275 1525 
Q 4875 100 6075 -100 
L 6075 -200 
Q 5700 -200 5575 -500 
Q 4450 225 4175 1525 
L 4050 1525 
Q 3675 -50 1925 -600 
L 1875 -525 
Q 3425 250 3700 1525 
L 2750 1525 
Q 2500 1525 2225 1450 
L 2000 1675 
L 3725 1675 
Q 3775 2150 3775 2575 
L 3125 2575 
Q 2875 2575 2600 2500 
L 2375 2725 
z
" transform="scale(0.015625)"/>
       <path id="SimSun-5dee" d="M 1600 5100 
L 1650 5175 
Q 2300 4925 2400 4775 
Q 2500 4625 2500 4525 
Q 2500 4400 2437 4287 
Q 2375 4175 2325 4175 
Q 2250 4175 2175 4375 
Q 2025 4700 1600 5100 
z
M 3200 3925 
Q 3100 3450 3025 3175 
L 4650 3175 
L 4975 3500 
L 5450 3025 
L 3000 3025 
Q 2900 2675 2725 2275 
L 5075 2275 
L 5475 2675 
L 6025 2125 
L 2675 2125 
Q 1900 675 350 -200 
L 325 -100 
Q 1650 825 2325 2125 
L 950 2125 
L 600 2075 
L 400 2275 
L 2375 2275 
Q 2525 2650 2650 3025 
L 1550 3025 
L 1225 2975 
L 1025 3175 
L 2675 3175 
Q 2775 3575 2825 3925 
L 1250 3925 
L 900 3875 
L 700 4075 
L 3750 4075 
Q 4200 4925 4250 5250 
L 4800 4925 
Q 4550 4900 3900 4075 
L 5050 4075 
L 5425 4450 
L 5950 3925 
L 3200 3925 
z
M 2150 1275 
L 4650 1275 
L 4950 1575 
L 5400 1125 
L 3850 1125 
L 3850 -175 
L 5200 -175 
L 5550 175 
L 6050 -325 
L 2050 -325 
Q 1725 -325 1450 -400 
L 1225 -175 
L 3500 -175 
L 3500 1125 
L 2625 1125 
L 2350 1075 
L 2150 1275 
z
" transform="scale(0.015625)"/>
      </defs>
      <use xlink:href="#SimSun-32"/>
      <use xlink:href="#SimSun-6e" transform="translate(50 0)"/>
      <use xlink:href="#SimSun-64" transform="translate(100 0)"/>
      <use xlink:href="#SimSun-20" transform="translate(150 0)"/>
      <use xlink:href="#SimSun-46" transform="translate(200 0)"/>
      <use xlink:href="#SimSun-2d" transform="translate(250 0)"/>
      <use xlink:href="#SimSun-44" transform="translate(300 0)"/>
      <use xlink:href="#SimSun-65" transform="translate(350 0)"/>
      <use xlink:href="#SimSun-72" transform="translate(400 0)"/>
      <use xlink:href="#SimSun-69" transform="translate(450 0)"/>
      <use xlink:href="#SimSun-76" transform="translate(500 0)"/>
      <use xlink:href="#SimSun-61" transform="translate(550 0)"/>
      <use xlink:href="#SimSun-74" transform="translate(600 0)"/>
      <use xlink:href="#SimSun-69" transform="translate(650 0)"/>
      <use xlink:href="#SimSun-76" transform="translate(700 0)"/>
      <use xlink:href="#SimSun-65" transform="translate(750 0)"/>
      <use xlink:href="#SimSun-20" transform="translate(800 0)"/>
      <use xlink:href="#SimSun-45" transform="translate(850 0)"/>
      <use xlink:href="#SimSun-72" transform="translate(900 0)"/>
      <use xlink:href="#SimSun-72" transform="translate(950 0)"/>
      <use xlink:href="#SimSun-6f" transform="translate(1000 0)"/>
      <use xlink:href="#SimSun-72" transform="translate(1050 0)"/>
      <use xlink:href="#SimSun-28" transform="translate(1100 0)"/>
      <use xlink:href="#SimSun-31" transform="translate(1150 0)"/>
      <use xlink:href="#SimSun-9636" transform="translate(1200 0)"/>
      <use xlink:href="#SimSun-7cbe" transform="translate(1300 0)"/>
      <use xlink:href="#SimSun-5ea6" transform="translate(1400 0)"/>
      <use xlink:href="#SimSun-7684" transform="translate(1500 0)"/>
      <use xlink:href="#SimSun-4e8c" transform="translate(1600 0)"/>
      <use xlink:href="#SimSun-9636" transform="translate(1700 0)"/>
      <use xlink:href="#SimSun-5fae" transform="translate(1800 0)"/>
      <use xlink:href="#SimSun-5206" transform="translate(1900 0)"/>
      <use xlink:href="#SimSun-8bef" transform="translate(2000 0)"/>
      <use xlink:href="#SimSun-5dee" transform="translate(2100 0)"/>
      <use xlink:href="#SimSun-29" transform="translate(2200 0)"/>
     </g>
    </g>
    <g id="line2d_38">
     <path d="M 65.6375 229.798437 
L 75.6375 229.798437 
L 85.6375 229.798437 
" style="fill: none; stroke: #008000; stroke-width: 1.5; stroke-linecap: square"/>
    </g>
    <g id="text_20">
     <!-- 1st F-Derivative Error(1阶精度的一阶微分误差) -->
     <g transform="translate(93.6375 233.298437) scale(0.1 -0.1)">
      <defs>
       <path id="SimSun-4e00" d="M 350 2650 
L 5000 2650 
L 5500 3050 
L 6050 2500 
L 1250 2500 
Q 850 2500 575 2425 
L 350 2650 
z
" transform="scale(0.015625)"/>
      </defs>
      <use xlink:href="#SimSun-31"/>
      <use xlink:href="#SimSun-73" transform="translate(50 0)"/>
      <use xlink:href="#SimSun-74" transform="translate(100 0)"/>
      <use xlink:href="#SimSun-20" transform="translate(150 0)"/>
      <use xlink:href="#SimSun-46" transform="translate(200 0)"/>
      <use xlink:href="#SimSun-2d" transform="translate(250 0)"/>
      <use xlink:href="#SimSun-44" transform="translate(300 0)"/>
      <use xlink:href="#SimSun-65" transform="translate(350 0)"/>
      <use xlink:href="#SimSun-72" transform="translate(400 0)"/>
      <use xlink:href="#SimSun-69" transform="translate(450 0)"/>
      <use xlink:href="#SimSun-76" transform="translate(500 0)"/>
      <use xlink:href="#SimSun-61" transform="translate(550 0)"/>
      <use xlink:href="#SimSun-74" transform="translate(600 0)"/>
      <use xlink:href="#SimSun-69" transform="translate(650 0)"/>
      <use xlink:href="#SimSun-76" transform="translate(700 0)"/>
      <use xlink:href="#SimSun-65" transform="translate(750 0)"/>
      <use xlink:href="#SimSun-20" transform="translate(800 0)"/>
      <use xlink:href="#SimSun-45" transform="translate(850 0)"/>
      <use xlink:href="#SimSun-72" transform="translate(900 0)"/>
      <use xlink:href="#SimSun-72" transform="translate(950 0)"/>
      <use xlink:href="#SimSun-6f" transform="translate(1000 0)"/>
      <use xlink:href="#SimSun-72" transform="translate(1050 0)"/>
      <use xlink:href="#SimSun-28" transform="translate(1100 0)"/>
      <use xlink:href="#SimSun-31" transform="translate(1150 0)"/>
      <use xlink:href="#SimSun-9636" transform="translate(1200 0)"/>
      <use xlink:href="#SimSun-7cbe" transform="translate(1300 0)"/>
      <use xlink:href="#SimSun-5ea6" transform="translate(1400 0)"/>
      <use xlink:href="#SimSun-7684" transform="translate(1500 0)"/>
      <use xlink:href="#SimSun-4e00" transform="translate(1600 0)"/>
      <use xlink:href="#SimSun-9636" transform="translate(1700 0)"/>
      <use xlink:href="#SimSun-5fae" transform="translate(1800 0)"/>
      <use xlink:href="#SimSun-5206" transform="translate(1900 0)"/>
      <use xlink:href="#SimSun-8bef" transform="translate(2000 0)"/>
      <use xlink:href="#SimSun-5dee" transform="translate(2100 0)"/>
      <use xlink:href="#SimSun-29" transform="translate(2200 0)"/>
     </g>
    </g>
    <g id="line2d_39">
     <path d="M 65.6375 244.095312 
L 75.6375 244.095312 
L 85.6375 244.095312 
" style="fill: none; stroke: #0000ff; stroke-width: 1.5; stroke-linecap: square"/>
    </g>
    <g id="text_21">
     <!-- 1st C-Derivative Error(2阶精度一阶微分) -->
     <g transform="translate(93.6375 247.595312) scale(0.1 -0.1)">
      <defs>
       <path id="SimSun-43" d="M 1725 50 
Q 1025 50 612 575 
Q 200 1100 200 2225 
Q 200 3175 637 3800 
Q 1075 4425 1825 4425 
Q 2000 4425 2175 4375 
Q 2350 4300 2475 4300 
Q 2575 4300 2637 4325 
Q 2700 4350 2750 4425 
L 2975 3325 
L 2825 3275 
Q 2675 3750 2425 4000 
Q 2175 4250 1775 4250 
Q 1250 4250 962 3675 
Q 675 3100 675 2250 
Q 675 1325 925 800 
Q 1175 275 1750 275 
Q 2150 275 2437 562 
Q 2725 850 2825 1325 
L 2975 1250 
Q 2850 725 2512 387 
Q 2175 50 1725 50 
z
" transform="scale(0.015625)"/>
      </defs>
      <use xlink:href="#SimSun-31"/>
      <use xlink:href="#SimSun-73" transform="translate(50 0)"/>
      <use xlink:href="#SimSun-74" transform="translate(100 0)"/>
      <use xlink:href="#SimSun-20" transform="translate(150 0)"/>
      <use xlink:href="#SimSun-43" transform="translate(200 0)"/>
      <use xlink:href="#SimSun-2d" transform="translate(250 0)"/>
      <use xlink:href="#SimSun-44" transform="translate(300 0)"/>
      <use xlink:href="#SimSun-65" transform="translate(350 0)"/>
      <use xlink:href="#SimSun-72" transform="translate(400 0)"/>
      <use xlink:href="#SimSun-69" transform="translate(450 0)"/>
      <use xlink:href="#SimSun-76" transform="translate(500 0)"/>
      <use xlink:href="#SimSun-61" transform="translate(550 0)"/>
      <use xlink:href="#SimSun-74" transform="translate(600 0)"/>
      <use xlink:href="#SimSun-69" transform="translate(650 0)"/>
      <use xlink:href="#SimSun-76" transform="translate(700 0)"/>
      <use xlink:href="#SimSun-65" transform="translate(750 0)"/>
      <use xlink:href="#SimSun-20" transform="translate(800 0)"/>
      <use xlink:href="#SimSun-45" transform="translate(850 0)"/>
      <use xlink:href="#SimSun-72" transform="translate(900 0)"/>
      <use xlink:href="#SimSun-72" transform="translate(950 0)"/>
      <use xlink:href="#SimSun-6f" transform="translate(1000 0)"/>
      <use xlink:href="#SimSun-72" transform="translate(1050 0)"/>
      <use xlink:href="#SimSun-28" transform="translate(1100 0)"/>
      <use xlink:href="#SimSun-32" transform="translate(1150 0)"/>
      <use xlink:href="#SimSun-9636" transform="translate(1200 0)"/>
      <use xlink:href="#SimSun-7cbe" transform="translate(1300 0)"/>
      <use xlink:href="#SimSun-5ea6" transform="translate(1400 0)"/>
      <use xlink:href="#SimSun-4e00" transform="translate(1500 0)"/>
      <use xlink:href="#SimSun-9636" transform="translate(1600 0)"/>
      <use xlink:href="#SimSun-5fae" transform="translate(1700 0)"/>
      <use xlink:href="#SimSun-5206" transform="translate(1800 0)"/>
      <use xlink:href="#SimSun-29" transform="translate(1900 0)"/>
     </g>
    </g>
    <g id="line2d_40">
     <path d="M 65.6375 258.392187 
L 75.6375 258.392187 
L 85.6375 258.392187 
" style="fill: none; stroke: #ff0000; stroke-width: 1.5; stroke-linecap: square"/>
    </g>
    <g id="text_22">
     <!-- 2nd C-Derivative Error(2阶精度二阶微分) -->
     <g transform="translate(93.6375 261.892187) scale(0.1 -0.1)">
      <use xlink:href="#SimSun-32"/>
      <use xlink:href="#SimSun-6e" transform="translate(50 0)"/>
      <use xlink:href="#SimSun-64" transform="translate(100 0)"/>
      <use xlink:href="#SimSun-20" transform="translate(150 0)"/>
      <use xlink:href="#SimSun-43" transform="translate(200 0)"/>
      <use xlink:href="#SimSun-2d" transform="translate(250 0)"/>
      <use xlink:href="#SimSun-44" transform="translate(300 0)"/>
      <use xlink:href="#SimSun-65" transform="translate(350 0)"/>
      <use xlink:href="#SimSun-72" transform="translate(400 0)"/>
      <use xlink:href="#SimSun-69" transform="translate(450 0)"/>
      <use xlink:href="#SimSun-76" transform="translate(500 0)"/>
      <use xlink:href="#SimSun-61" transform="translate(550 0)"/>
      <use xlink:href="#SimSun-74" transform="translate(600 0)"/>
      <use xlink:href="#SimSun-69" transform="translate(650 0)"/>
      <use xlink:href="#SimSun-76" transform="translate(700 0)"/>
      <use xlink:href="#SimSun-65" transform="translate(750 0)"/>
      <use xlink:href="#SimSun-20" transform="translate(800 0)"/>
      <use xlink:href="#SimSun-45" transform="translate(850 0)"/>
      <use xlink:href="#SimSun-72" transform="translate(900 0)"/>
      <use xlink:href="#SimSun-72" transform="translate(950 0)"/>
      <use xlink:href="#SimSun-6f" transform="translate(1000 0)"/>
      <use xlink:href="#SimSun-72" transform="translate(1050 0)"/>
      <use xlink:href="#SimSun-28" transform="translate(1100 0)"/>
      <use xlink:href="#SimSun-32" transform="translate(1150 0)"/>
      <use xlink:href="#SimSun-9636" transform="translate(1200 0)"/>
      <use xlink:href="#SimSun-7cbe" transform="translate(1300 0)"/>
      <use xlink:href="#SimSun-5ea6" transform="translate(1400 0)"/>
      <use xlink:href="#SimSun-4e8c" transform="translate(1500 0)"/>
      <use xlink:href="#SimSun-9636" transform="translate(1600 0)"/>
      <use xlink:href="#SimSun-5fae" transform="translate(1700 0)"/>
      <use xlink:href="#SimSun-5206" transform="translate(1800 0)"/>
      <use xlink:href="#SimSun-29" transform="translate(1900 0)"/>
     </g>
    </g>
    <g id="line2d_41">
     <path d="M 65.6375 272.571875 
L 75.6375 272.571875 
L 85.6375 272.571875 
" style="fill: none; stroke-dasharray: 5.55,2.4; stroke-dashoffset: 0; stroke: #808080; stroke-width: 1.5"/>
    </g>
    <g id="text_23">
     <!-- 辅助直线1 -->
     <g transform="translate(93.6375 276.071875) scale(0.1 -0.1)">
      <defs>
       <path id="SimSun-8f85" d="M 3100 3050 
L 3100 2300 
L 4025 2300 
L 4025 3050 
L 3100 3050 
z
M 4325 3050 
L 4325 2300 
L 5325 2300 
L 5325 3050 
L 4325 3050 
z
M 3100 2150 
L 3100 1275 
L 4025 1275 
L 4025 2150 
L 3100 2150 
z
M 4325 2150 
L 4325 1275 
L 5325 1275 
L 5325 2150 
L 4325 2150 
z
M 4575 -50 
Q 5100 -125 5212 -112 
Q 5325 -100 5325 50 
L 5325 1125 
L 4325 1125 
L 4325 -200 
L 4025 -375 
L 4025 1125 
L 3100 1125 
L 3100 -450 
L 2775 -625 
Q 2800 -25 2800 1437 
Q 2800 2900 2775 3400 
L 3100 3200 
L 4025 3200 
L 4025 3850 
L 3475 3850 
Q 3150 3850 2875 3775 
L 2650 4000 
L 4025 4000 
Q 4025 4700 4000 5200 
L 4525 4925 
L 4325 4750 
L 4325 4000 
L 5400 4000 
L 5675 4275 
L 6075 3850 
L 4325 3850 
L 4325 3200 
L 5275 3200 
L 5500 3425 
L 5825 3100 
L 5625 2950 
L 5625 -50 
Q 5625 -300 5550 -400 
Q 5475 -500 5200 -600 
Q 5075 -250 4575 -150 
L 4575 -50 
z
M 4750 4950 
Q 5175 4775 5287 4650 
Q 5400 4525 5400 4425 
Q 5400 4350 5362 4262 
Q 5325 4175 5237 4137 
Q 5150 4100 5050 4375 
Q 4950 4650 4700 4900 
L 4750 4950 
z
M 2600 1575 
L 1900 1250 
Q 1900 -50 1925 -425 
L 1575 -600 
Q 1600 -50 1600 1125 
Q 700 700 600 575 
L 300 975 
Q 575 1000 1600 1350 
L 1600 2350 
L 850 2350 
L 650 2200 
L 375 2500 
L 575 2600 
L 1100 3950 
Q 825 3950 550 3875 
L 325 4100 
L 1150 4100 
Q 1425 4975 1450 5250 
L 1950 5000 
L 1750 4825 
L 1475 4100 
L 2000 4100 
L 2250 4350 
L 2625 3950 
L 1425 3950 
L 875 2500 
L 1600 2500 
Q 1600 2950 1575 3450 
L 2075 3225 
L 1900 3050 
L 1900 2500 
L 2025 2500 
L 2275 2750 
L 2650 2350 
L 1900 2350 
L 1900 1450 
L 2600 1700 
L 2600 1575 
z
" transform="scale(0.015625)"/>
       <path id="SimSun-52a9" d="M 875 3400 
Q 875 4150 850 4825 
L 1200 4600 
L 2425 4600 
L 2600 4850 
L 2975 4525 
L 2775 4350 
L 2775 800 
L 3400 925 
L 3400 825 
Q 2200 500 1450 262 
Q 700 25 550 -150 
L 250 325 
Q 500 375 875 425 
L 875 3400 
z
M 1200 4450 
L 1200 3250 
L 2450 3250 
L 2450 4450 
L 1200 4450 
z
M 1200 3100 
L 1200 1950 
L 2450 1950 
L 2450 3100 
L 1200 3100 
z
M 1200 500 
Q 1825 600 2450 725 
L 2450 1800 
L 1200 1800 
L 1200 500 
z
M 4075 3450 
Q 4075 4600 4050 5175 
L 4625 4925 
L 4425 4700 
L 4425 3450 
L 5425 3450 
L 5600 3725 
L 6000 3425 
L 5800 3225 
Q 5800 1075 5675 400 
Q 5550 -275 4950 -450 
Q 4975 -150 4150 75 
L 4150 175 
Q 4700 125 4937 112 
Q 5175 100 5275 325 
Q 5375 550 5412 1100 
Q 5450 1650 5475 3300 
L 4425 3300 
Q 4425 1850 4112 1175 
Q 3800 500 3212 37 
Q 2625 -425 2100 -625 
L 2050 -550 
Q 3050 50 3437 612 
Q 3825 1175 3937 1787 
Q 4050 2400 4075 3300 
L 3800 3300 
Q 3475 3300 3200 3225 
L 2975 3450 
L 4075 3450 
z
" transform="scale(0.015625)"/>
       <path id="SimSun-76f4" d="M 1900 3425 
L 1900 2725 
L 4500 2725 
L 4500 3425 
L 1900 3425 
z
M 1900 2575 
L 1900 1825 
L 4500 1825 
L 4500 2575 
L 1900 2575 
z
M 1900 1675 
L 1900 900 
L 4500 900 
L 4500 1675 
L 1900 1675 
z
M 1900 750 
L 1900 -50 
L 4500 -50 
L 4500 750 
L 1900 750 
z
M 625 4375 
L 3000 4375 
Q 3050 4875 3075 5225 
L 3650 4925 
L 3425 4800 
L 3350 4375 
L 4975 4375 
L 5325 4750 
L 5775 4225 
L 3325 4225 
L 3200 3575 
L 4475 3575 
L 4650 3850 
L 5050 3550 
L 4850 3375 
L 4850 -50 
L 5225 -50 
L 5625 325 
L 6100 -200 
L 1100 -200 
Q 775 -175 500 -250 
L 300 -50 
L 1550 -50 
Q 1550 3150 1525 3825 
L 1900 3575 
L 2875 3575 
L 2975 4225 
L 1450 4225 
Q 1125 4225 850 4150 
L 625 4375 
z
" transform="scale(0.015625)"/>
       <path id="SimSun-7ebf" d="M 3900 3400 
Q 3900 3050 3950 2475 
L 5125 2600 
L 5450 2975 
L 5950 2550 
L 3975 2350 
Q 4050 1575 4225 1125 
Q 4775 1625 5100 2175 
L 5550 1725 
L 5325 1700 
Q 4850 1250 4375 800 
Q 4825 175 5425 -75 
L 5775 1125 
L 5875 1100 
Q 5825 525 5812 150 
Q 5800 -225 5925 -450 
Q 5950 -500 5950 -525 
Q 5950 -625 5687 -587 
Q 5425 -550 4987 -287 
Q 4550 -25 4100 550 
Q 3650 250 3187 50 
Q 2725 -150 2025 -350 
L 2000 -250 
Q 3075 150 3925 850 
Q 3700 1525 3625 2300 
L 2600 2175 
L 2400 2075 
L 2125 2275 
L 3600 2425 
Q 3575 2775 3550 3375 
L 2825 3325 
L 2675 3225 
L 2450 3425 
L 3550 3500 
Q 3525 4375 3500 5250 
L 4075 4975 
L 3875 4800 
Q 3875 4275 3900 3525 
L 4975 3625 
L 5300 4000 
L 5800 3550 
L 3900 3400 
z
M 4275 4825 
L 4300 4900 
Q 5075 4700 5150 4562 
Q 5225 4425 5225 4325 
Q 5225 4200 5175 4075 
Q 5125 3950 5075 3950 
Q 5025 3950 4925 4150 
Q 4750 4425 4275 4825 
z
M 1525 5150 
L 2025 4825 
Q 1825 4750 1600 4325 
Q 1375 3875 775 3050 
L 1800 3150 
Q 2100 3650 2275 4150 
L 2725 3825 
Q 2550 3725 2125 3100 
Q 1700 2475 1025 1600 
Q 1375 1650 2575 1875 
L 2575 1775 
Q 1900 1600 1525 1462 
Q 1150 1325 775 1075 
L 475 1600 
Q 750 1675 1112 2137 
Q 1475 2600 1750 3050 
Q 1475 3000 1175 2912 
Q 875 2825 625 2600 
L 350 3075 
Q 625 3125 987 3787 
Q 1350 4450 1525 5150 
z
M 325 375 
Q 1025 475 1450 550 
Q 1875 625 2825 825 
L 2850 725 
Q 1725 400 1212 212 
Q 700 25 575 -100 
L 325 375 
z
" transform="scale(0.015625)"/>
      </defs>
      <use xlink:href="#SimSun-8f85"/>
      <use xlink:href="#SimSun-52a9" transform="translate(100 0)"/>
      <use xlink:href="#SimSun-76f4" transform="translate(200 0)"/>
      <use xlink:href="#SimSun-7ebf" transform="translate(300 0)"/>
      <use xlink:href="#SimSun-31" transform="translate(400 0)"/>
     </g>
    </g>
    <g id="line2d_42">
     <path d="M 65.6375 286.751562 
L 75.6375 286.751562 
L 85.6375 286.751562 
" style="fill: none; stroke-dasharray: 5.55,2.4; stroke-dashoffset: 0; stroke: #808080; stroke-width: 1.5"/>
    </g>
    <g id="text_24">
     <!-- 辅助直线2 -->
     <g transform="translate(93.6375 290.251562) scale(0.1 -0.1)">
      <use xlink:href="#SimSun-8f85"/>
      <use xlink:href="#SimSun-52a9" transform="translate(100 0)"/>
      <use xlink:href="#SimSun-76f4" transform="translate(200 0)"/>
      <use xlink:href="#SimSun-7ebf" transform="translate(300 0)"/>
      <use xlink:href="#SimSun-32" transform="translate(400 0)"/>
     </g>
    </g>
   </g>
  </g>
 </g>
 <defs>
  <clipPath id="pddcbfe917e">
   <rect x="56.6375" y="21.778125" width="388.78" height="278.7625"/>
  </clipPath>
 </defs>
</svg>
