<?xml version="1.0" encoding="utf-8" standalone="no"?>
<!DOCTYPE svg PUBLIC "-//W3C//DTD SVG 1.1//EN"
  "http://www.w3.org/Graphics/SVG/1.1/DTD/svg11.dtd">
<svg xmlns:xlink="http://www.w3.org/1999/xlink" width="415.9575pt" height="323.863562pt" viewBox="0 0 415.9575 323.863562" xmlns="http://www.w3.org/2000/svg" version="1.1">
 <metadata>
  <rdf:RDF xmlns:dc="http://purl.org/dc/elements/1.1/" xmlns:cc="http://creativecommons.org/ns#" xmlns:rdf="http://www.w3.org/1999/02/22-rdf-syntax-ns#">
   <cc:Work>
    <dc:type rdf:resource="http://purl.org/dc/dcmitype/StillImage"/>
    <dc:date>2025-03-26T22:28:11.478132</dc:date>
    <dc:format>image/svg+xml</dc:format>
    <dc:creator>
     <cc:Agent>
      <dc:title>Matplotlib v3.10.1, https://matplotlib.org/</dc:title>
     </cc:Agent>
    </dc:creator>
   </cc:Work>
  </rdf:RDF>
 </metadata>
 <defs>
  <style type="text/css">*{stroke-linejoin: round; stroke-linecap: butt}</style>
 </defs>
 <g id="figure_1">
  <g id="patch_1">
   <path d="M 0 323.863562 
L 415.9575 323.863562 
L 415.9575 0 
L 0 0 
z
" style="fill: #ffffff"/>
  </g>
  <g id="axes_1">
   <g id="patch_2">
    <path d="M 51.6375 287.890125 
L 408.7575 287.890125 
L 408.7575 21.778125 
L 51.6375 21.778125 
z
" style="fill: #ffffff"/>
   </g>
   <g id="matplotlib.axis_1">
    <g id="xtick_1">
     <g id="line2d_1">
      <path d="M 67.837759 287.890125 
L 67.837759 21.778125 
" clip-path="url(#p563aeacc66)" style="fill: none; stroke: #b0b0b0; stroke-width: 0.8; stroke-linecap: square"/>
     </g>
     <g id="line2d_2">
      <defs>
       <path id="m4259298eb4" d="M 0 0 
L 0 3.5 
" style="stroke: #000000; stroke-width: 0.8"/>
      </defs>
      <g>
       <use xlink:href="#m4259298eb4" x="67.837759" y="287.890125" style="stroke: #000000; stroke-width: 0.8"/>
      </g>
     </g>
     <g id="text_1">
      <!-- 0.00 -->
      <g transform="translate(57.837759 302.038562) scale(0.1 -0.1)">
       <defs>
        <path id="SimSun-30" d="M 1600 4225 
Q 1250 4225 1012 3687 
Q 775 3150 775 2250 
Q 775 1300 1012 775 
Q 1250 250 1600 250 
Q 1975 250 2187 775 
Q 2400 1300 2400 2250 
Q 2400 3150 2200 3687 
Q 2000 4225 1600 4225 
z
M 1600 50 
Q 1050 50 675 625 
Q 300 1200 300 2250 
Q 300 3225 662 3825 
Q 1025 4425 1600 4425 
Q 2150 4425 2512 3850 
Q 2875 3275 2875 2250 
Q 2875 1225 2512 637 
Q 2150 50 1600 50 
z
" transform="scale(0.015625)"/>
        <path id="SimSun-2e" d="M 800 25 
Q 650 25 537 125 
Q 425 225 425 400 
Q 425 575 537 675 
Q 650 775 800 775 
Q 950 775 1062 662 
Q 1175 550 1175 400 
Q 1175 225 1062 125 
Q 950 25 800 25 
z
" transform="scale(0.015625)"/>
       </defs>
       <use xlink:href="#SimSun-30"/>
       <use xlink:href="#SimSun-2e" transform="translate(50 0)"/>
       <use xlink:href="#SimSun-30" transform="translate(100 0)"/>
       <use xlink:href="#SimSun-30" transform="translate(150 0)"/>
      </g>
     </g>
    </g>
    <g id="xtick_2">
     <g id="line2d_3">
      <path d="M 132.775161 287.890125 
L 132.775161 21.778125 
" clip-path="url(#p563aeacc66)" style="fill: none; stroke: #b0b0b0; stroke-width: 0.8; stroke-linecap: square"/>
     </g>
     <g id="line2d_4">
      <g>
       <use xlink:href="#m4259298eb4" x="132.775161" y="287.890125" style="stroke: #000000; stroke-width: 0.8"/>
      </g>
     </g>
     <g id="text_2">
      <!-- 0.02 -->
      <g transform="translate(122.775161 302.038562) scale(0.1 -0.1)">
       <defs>
        <path id="SimSun-32" d="M 2325 3325 
Q 2325 3775 2125 4012 
Q 1925 4250 1525 4250 
Q 1225 4250 1012 4087 
Q 800 3925 800 3675 
Q 800 3525 900 3425 
Q 975 3325 975 3225 
Q 975 3100 912 3037 
Q 850 2975 725 2975 
Q 575 2975 487 3062 
Q 400 3150 400 3350 
Q 400 3875 775 4150 
Q 1150 4425 1575 4425 
Q 2175 4425 2462 4125 
Q 2750 3825 2750 3375 
Q 2750 3075 2612 2775 
Q 2475 2475 2175 2200 
Q 1450 1500 1062 1062 
Q 675 625 600 475 
L 2075 475 
Q 2300 475 2450 650 
Q 2600 825 2650 1175 
L 2800 1175 
L 2650 100 
L 325 100 
L 325 425 
Q 450 650 737 1000 
Q 1025 1350 1500 1825 
Q 1925 2250 2125 2625 
Q 2325 3000 2325 3325 
z
" transform="scale(0.015625)"/>
       </defs>
       <use xlink:href="#SimSun-30"/>
       <use xlink:href="#SimSun-2e" transform="translate(50 0)"/>
       <use xlink:href="#SimSun-30" transform="translate(100 0)"/>
       <use xlink:href="#SimSun-32" transform="translate(150 0)"/>
      </g>
     </g>
    </g>
    <g id="xtick_3">
     <g id="line2d_5">
      <path d="M 197.712564 287.890125 
L 197.712564 21.778125 
" clip-path="url(#p563aeacc66)" style="fill: none; stroke: #b0b0b0; stroke-width: 0.8; stroke-linecap: square"/>
     </g>
     <g id="line2d_6">
      <g>
       <use xlink:href="#m4259298eb4" x="197.712564" y="287.890125" style="stroke: #000000; stroke-width: 0.8"/>
      </g>
     </g>
     <g id="text_3">
      <!-- 0.04 -->
      <g transform="translate(187.712564 302.038562) scale(0.1 -0.1)">
       <defs>
        <path id="SimSun-34" d="M 2300 575 
Q 2300 400 2400 325 
Q 2500 250 2675 250 
L 2900 250 
L 2900 100 
L 1250 100 
L 1250 250 
L 1525 250 
Q 1725 250 1812 325 
Q 1900 400 1900 575 
L 1900 1400 
L 225 1400 
L 225 1525 
L 2050 4425 
L 2300 4425 
L 2300 1550 
L 2975 1550 
L 2975 1400 
L 2300 1400 
L 2300 575 
z
M 1875 3800 
L 450 1550 
L 1900 1550 
L 1900 3800 
L 1875 3800 
z
" transform="scale(0.015625)"/>
       </defs>
       <use xlink:href="#SimSun-30"/>
       <use xlink:href="#SimSun-2e" transform="translate(50 0)"/>
       <use xlink:href="#SimSun-30" transform="translate(100 0)"/>
       <use xlink:href="#SimSun-34" transform="translate(150 0)"/>
      </g>
     </g>
    </g>
    <g id="xtick_4">
     <g id="line2d_7">
      <path d="M 262.649967 287.890125 
L 262.649967 21.778125 
" clip-path="url(#p563aeacc66)" style="fill: none; stroke: #b0b0b0; stroke-width: 0.8; stroke-linecap: square"/>
     </g>
     <g id="line2d_8">
      <g>
       <use xlink:href="#m4259298eb4" x="262.649967" y="287.890125" style="stroke: #000000; stroke-width: 0.8"/>
      </g>
     </g>
     <g id="text_4">
      <!-- 0.06 -->
      <g transform="translate(252.649967 302.038562) scale(0.1 -0.1)">
       <defs>
        <path id="SimSun-36" d="M 775 1800 
Q 775 1050 1037 637 
Q 1300 225 1675 225 
Q 2050 225 2250 500 
Q 2450 775 2450 1525 
Q 2450 2025 2237 2300 
Q 2025 2575 1725 2575 
Q 1450 2575 1212 2412 
Q 975 2250 775 1800 
z
M 1750 2825 
Q 2350 2825 2612 2425 
Q 2875 2025 2875 1525 
Q 2875 775 2512 412 
Q 2150 50 1675 50 
Q 1000 50 650 562 
Q 300 1075 300 2050 
Q 300 3200 725 3812 
Q 1150 4425 1875 4425 
Q 2225 4425 2437 4225 
Q 2650 4025 2650 3875 
Q 2650 3725 2587 3650 
Q 2525 3575 2375 3575 
Q 2250 3575 2187 3637 
Q 2125 3700 2125 3825 
Q 2125 3875 2150 3925 
Q 2150 3975 2150 4025 
Q 2150 4125 2075 4187 
Q 2000 4250 1800 4250 
Q 1375 4250 1075 3862 
Q 775 3475 775 2175 
Q 925 2500 1187 2662 
Q 1450 2825 1750 2825 
z
" transform="scale(0.015625)"/>
       </defs>
       <use xlink:href="#SimSun-30"/>
       <use xlink:href="#SimSun-2e" transform="translate(50 0)"/>
       <use xlink:href="#SimSun-30" transform="translate(100 0)"/>
       <use xlink:href="#SimSun-36" transform="translate(150 0)"/>
      </g>
     </g>
    </g>
    <g id="xtick_5">
     <g id="line2d_9">
      <path d="M 327.58737 287.890125 
L 327.58737 21.778125 
" clip-path="url(#p563aeacc66)" style="fill: none; stroke: #b0b0b0; stroke-width: 0.8; stroke-linecap: square"/>
     </g>
     <g id="line2d_10">
      <g>
       <use xlink:href="#m4259298eb4" x="327.58737" y="287.890125" style="stroke: #000000; stroke-width: 0.8"/>
      </g>
     </g>
     <g id="text_5">
      <!-- 0.08 -->
      <g transform="translate(317.58737 302.038562) scale(0.1 -0.1)">
       <defs>
        <path id="SimSun-38" d="M 625 1125 
Q 625 725 887 475 
Q 1150 225 1550 225 
Q 2025 225 2237 475 
Q 2450 725 2450 1100 
Q 2450 1425 2150 1725 
Q 1850 2025 1250 2275 
Q 950 2075 787 1775 
Q 625 1475 625 1125 
z
M 2825 1175 
Q 2825 700 2475 375 
Q 2125 50 1550 50 
Q 1025 50 650 375 
Q 275 700 275 1125 
Q 275 1550 487 1850 
Q 700 2150 1100 2375 
Q 750 2550 562 2812 
Q 375 3075 375 3400 
Q 375 3825 700 4125 
Q 1025 4425 1600 4425 
Q 2125 4425 2450 4125 
Q 2775 3825 2775 3400 
Q 2775 3100 2587 2837 
Q 2400 2575 2000 2375 
Q 2425 2125 2625 1825 
Q 2825 1525 2825 1175 
z
M 2425 3375 
Q 2425 3725 2225 3987 
Q 2025 4250 1600 4250 
Q 1125 4250 925 4000 
Q 725 3750 725 3475 
Q 725 3200 1012 2937 
Q 1300 2675 1825 2475 
Q 2125 2625 2275 2850 
Q 2425 3075 2425 3375 
z
" transform="scale(0.015625)"/>
       </defs>
       <use xlink:href="#SimSun-30"/>
       <use xlink:href="#SimSun-2e" transform="translate(50 0)"/>
       <use xlink:href="#SimSun-30" transform="translate(100 0)"/>
       <use xlink:href="#SimSun-38" transform="translate(150 0)"/>
      </g>
     </g>
    </g>
    <g id="xtick_6">
     <g id="line2d_11">
      <path d="M 392.524773 287.890125 
L 392.524773 21.778125 
" clip-path="url(#p563aeacc66)" style="fill: none; stroke: #b0b0b0; stroke-width: 0.8; stroke-linecap: square"/>
     </g>
     <g id="line2d_12">
      <g>
       <use xlink:href="#m4259298eb4" x="392.524773" y="287.890125" style="stroke: #000000; stroke-width: 0.8"/>
      </g>
     </g>
     <g id="text_6">
      <!-- 0.10 -->
      <g transform="translate(382.524773 302.038562) scale(0.1 -0.1)">
       <defs>
        <path id="SimSun-31" d="M 1825 4450 
L 1825 650 
Q 1825 450 1950 350 
Q 2075 250 2300 250 
L 2550 250 
L 2550 100 
L 725 100 
L 725 250 
L 950 250 
Q 1200 250 1312 350 
Q 1425 450 1425 650 
L 1425 3675 
Q 1425 3775 1362 3837 
Q 1300 3900 1175 3900 
L 725 3900 
L 725 4050 
L 950 4050 
Q 1250 4050 1437 4150 
Q 1625 4250 1725 4450 
L 1825 4450 
z
" transform="scale(0.015625)"/>
       </defs>
       <use xlink:href="#SimSun-30"/>
       <use xlink:href="#SimSun-2e" transform="translate(50 0)"/>
       <use xlink:href="#SimSun-31" transform="translate(100 0)"/>
       <use xlink:href="#SimSun-30" transform="translate(150 0)"/>
      </g>
     </g>
    </g>
    <g id="text_7">
     <!-- Δx (Step size) -->
     <g transform="translate(192.6975 315.3745) scale(0.1 -0.1)">
      <defs>
       <path id="SimSun-394" d="M 4850 575 
L 1525 575 
L 3125 4475 
L 4850 575 
z
M 1825 750 
L 4300 750 
L 3025 3725 
L 1825 750 
z
" transform="scale(0.015625)"/>
       <path id="SimSun-78" d="M 1675 1825 
L 2125 2500 
Q 2200 2600 2187 2675 
Q 2175 2750 2000 2750 
L 1850 2750 
L 1850 2900 
L 2825 2900 
L 2825 2750 
L 2700 2750 
Q 2650 2750 2575 2737 
Q 2500 2725 2450 2650 
L 1775 1650 
L 2475 500 
Q 2550 375 2662 312 
Q 2775 250 2825 250 
L 2925 250 
L 2925 100 
L 1825 100 
L 1825 250 
L 1975 250 
Q 2125 250 2137 325 
Q 2150 400 2100 500 
L 1575 1350 
L 975 475 
Q 950 350 987 300 
Q 1025 250 1125 250 
L 1200 250 
L 1200 100 
L 225 100 
L 225 250 
L 375 250 
Q 475 250 600 325 
Q 725 400 800 550 
L 1450 1525 
L 800 2575 
Q 775 2625 700 2687 
Q 625 2750 500 2750 
L 375 2750 
L 375 2900 
L 1450 2900 
L 1450 2750 
L 1375 2750 
Q 1250 2750 1225 2675 
Q 1200 2600 1250 2500 
L 1675 1825 
z
M 600 250 
L 600 250 
z
M 825 250 
L 825 250 
z
M 2525 2750 
L 2525 2750 
z
M 2300 2750 
L 2300 2750 
z
M 2250 250 
L 2250 250 
z
M 2625 250 
L 2625 250 
z
M 1100 2750 
L 1100 2750 
z
M 700 2750 
L 700 2750 
z
" transform="scale(0.015625)"/>
       <path id="SimSun-20" d="M 0 0 
Q 0 0 0 0 
z
" transform="scale(0.015625)"/>
       <path id="SimSun-28" d="M 2900 5025 
Q 2325 4425 2037 3737 
Q 1750 3050 1750 2300 
Q 1750 1525 2037 850 
Q 2325 175 2900 -425 
L 2775 -550 
Q 2075 75 1725 787 
Q 1375 1500 1375 2300 
Q 1375 3075 1725 3787 
Q 2075 4500 2775 5150 
L 2900 5025 
z
" transform="scale(0.015625)"/>
       <path id="SimSun-53" d="M 1500 2150 
Q 825 2450 575 2675 
Q 325 2900 325 3375 
Q 325 3750 637 4087 
Q 950 4425 1525 4425 
Q 1775 4425 2000 4350 
Q 2225 4250 2325 4250 
Q 2400 4250 2462 4287 
Q 2525 4325 2575 4425 
L 2675 3400 
L 2550 3350 
Q 2325 3875 2087 4062 
Q 1850 4250 1475 4250 
Q 1000 4250 825 3987 
Q 650 3725 650 3425 
Q 650 3150 812 2987 
Q 975 2825 1700 2500 
Q 2300 2250 2562 1937 
Q 2825 1625 2825 1200 
Q 2825 750 2512 400 
Q 2200 50 1600 50 
Q 1350 50 1150 150 
Q 925 225 800 225 
Q 725 225 650 175 
Q 575 125 475 50 
L 275 1275 
L 425 1325 
Q 600 700 912 462 
Q 1225 225 1625 225 
Q 2050 225 2262 475 
Q 2475 725 2475 1200 
Q 2475 1450 2237 1687 
Q 2000 1925 1500 2150 
z
" transform="scale(0.015625)"/>
       <path id="SimSun-74" d="M 1500 900 
Q 1500 550 1625 425 
Q 1750 300 2000 300 
Q 2250 300 2400 462 
Q 2550 625 2600 925 
L 2725 875 
Q 2675 525 2462 300 
Q 2250 75 1900 75 
Q 1525 75 1337 300 
Q 1150 525 1150 1000 
L 1150 2750 
L 400 2750 
L 400 2900 
L 600 2900 
Q 900 2900 1087 3087 
Q 1275 3275 1325 3675 
L 1350 3875 
L 1500 3875 
L 1500 2900 
L 2500 2900 
L 2500 2750 
L 1500 2750 
L 1500 900 
z
" transform="scale(0.015625)"/>
       <path id="SimSun-65" d="M 2400 1650 
Q 2425 2200 2212 2487 
Q 2000 2775 1650 2775 
Q 1275 2775 1037 2475 
Q 800 2175 800 1650 
L 2400 1650 
z
M 800 1500 
Q 800 825 1062 537 
Q 1325 250 1750 250 
Q 2075 250 2300 437 
Q 2525 625 2625 900 
L 2750 850 
Q 2675 575 2412 312 
Q 2150 50 1700 50 
Q 1125 50 762 425 
Q 400 800 400 1500 
Q 400 2125 762 2537 
Q 1125 2950 1650 2950 
Q 2125 2950 2475 2625 
Q 2825 2300 2825 1500 
L 800 1500 
z
" transform="scale(0.015625)"/>
       <path id="SimSun-70" d="M 1150 -675 
L 1325 -675 
L 1325 -825 
L 175 -825 
L 175 -675 
L 325 -675 
Q 450 -675 500 -625 
Q 550 -575 550 -450 
L 550 2500 
Q 550 2600 500 2662 
Q 450 2725 325 2725 
L 175 2725 
L 175 2875 
L 400 2875 
Q 525 2875 637 2900 
Q 750 2925 850 3000 
L 900 3000 
L 900 2425 
Q 1075 2675 1287 2800 
Q 1500 2925 1750 2925 
Q 2250 2925 2575 2587 
Q 2900 2250 2900 1525 
Q 2900 825 2550 450 
Q 2200 75 1725 75 
Q 1450 75 1262 162 
Q 1075 250 900 425 
L 900 -450 
Q 900 -575 975 -625 
Q 1050 -675 1150 -675 
z
M 900 750 
Q 1025 500 1212 375 
Q 1400 250 1650 250 
Q 2000 250 2250 562 
Q 2500 875 2500 1525 
Q 2500 2125 2312 2425 
Q 2125 2725 1750 2725 
Q 1525 2725 1300 2587 
Q 1075 2450 900 2150 
L 900 750 
z
" transform="scale(0.015625)"/>
       <path id="SimSun-73" d="M 625 2175 
Q 625 2550 912 2750 
Q 1200 2950 1600 2950 
Q 1825 2950 2025 2900 
Q 2225 2825 2300 2825 
Q 2375 2825 2425 2850 
Q 2475 2875 2550 2950 
L 2650 2125 
L 2500 2100 
Q 2400 2425 2162 2612 
Q 1925 2800 1625 2800 
Q 1300 2800 1112 2675 
Q 925 2550 925 2325 
Q 925 2125 1012 2012 
Q 1100 1900 1325 1850 
Q 1500 1775 1775 1700 
Q 2025 1600 2250 1500 
Q 2450 1400 2587 1237 
Q 2725 1075 2725 875 
Q 2725 500 2462 287 
Q 2200 75 1700 75 
Q 1375 75 1225 150 
Q 1050 200 950 200 
Q 875 200 787 162 
Q 700 125 600 75 
L 525 1000 
L 675 1025 
Q 750 625 1000 425 
Q 1250 225 1700 225 
Q 2050 225 2237 350 
Q 2425 475 2425 725 
Q 2425 900 2325 1012 
Q 2225 1125 2125 1175 
Q 1875 1275 1575 1400 
Q 1275 1500 1050 1600 
Q 825 1700 725 1850 
Q 625 2000 625 2175 
z
" transform="scale(0.015625)"/>
       <path id="SimSun-69" d="M 1425 2525 
Q 1425 2625 1375 2687 
Q 1325 2750 1200 2750 
L 675 2750 
L 675 2900 
L 925 2900 
Q 1150 2900 1350 2937 
Q 1550 2975 1725 3075 
L 1775 3075 
L 1775 450 
Q 1775 350 1837 300 
Q 1900 250 2000 250 
L 2525 250 
L 2525 100 
L 675 100 
L 675 250 
L 1200 250 
Q 1325 250 1375 300 
Q 1425 350 1425 450 
L 1425 2525 
z
M 1725 3025 
L 1725 3025 
z
M 1625 4425 
Q 1750 4425 1850 4337 
Q 1950 4250 1950 4125 
Q 1950 4000 1850 3900 
Q 1750 3800 1625 3800 
Q 1500 3800 1400 3900 
Q 1300 4000 1300 4125 
Q 1300 4250 1400 4337 
Q 1500 4425 1625 4425 
z
" transform="scale(0.015625)"/>
       <path id="SimSun-7a" d="M 2750 1075 
L 2575 100 
L 425 100 
L 425 225 
L 2150 2750 
L 1225 2750 
Q 1000 2750 850 2587 
Q 700 2425 600 2025 
L 450 2050 
L 550 2900 
L 2600 2900 
L 2600 2825 
L 850 250 
L 1800 250 
Q 2125 250 2312 450 
Q 2500 650 2600 1100 
L 2750 1075 
z
" transform="scale(0.015625)"/>
       <path id="SimSun-29" d="M 275 5025 
L 400 5150 
Q 1100 4500 1450 3787 
Q 1800 3075 1800 2300 
Q 1800 1500 1450 787 
Q 1100 75 400 -550 
L 275 -425 
Q 850 175 1137 850 
Q 1425 1525 1425 2300 
Q 1425 3050 1137 3737 
Q 850 4425 275 5025 
z
" transform="scale(0.015625)"/>
      </defs>
      <use xlink:href="#SimSun-394"/>
      <use xlink:href="#SimSun-78" transform="translate(100 0)"/>
      <use xlink:href="#SimSun-20" transform="translate(150 0)"/>
      <use xlink:href="#SimSun-28" transform="translate(200 0)"/>
      <use xlink:href="#SimSun-53" transform="translate(250 0)"/>
      <use xlink:href="#SimSun-74" transform="translate(300 0)"/>
      <use xlink:href="#SimSun-65" transform="translate(350 0)"/>
      <use xlink:href="#SimSun-70" transform="translate(400 0)"/>
      <use xlink:href="#SimSun-20" transform="translate(450 0)"/>
      <use xlink:href="#SimSun-73" transform="translate(500 0)"/>
      <use xlink:href="#SimSun-69" transform="translate(550 0)"/>
      <use xlink:href="#SimSun-7a" transform="translate(600 0)"/>
      <use xlink:href="#SimSun-65" transform="translate(650 0)"/>
      <use xlink:href="#SimSun-29" transform="translate(700 0)"/>
     </g>
    </g>
   </g>
   <g id="matplotlib.axis_2">
    <g id="ytick_1">
     <g id="line2d_13">
      <path d="M 51.6375 275.777314 
L 408.7575 275.777314 
" clip-path="url(#p563aeacc66)" style="fill: none; stroke: #b0b0b0; stroke-width: 0.8; stroke-linecap: square"/>
     </g>
     <g id="line2d_14">
      <defs>
       <path id="m92e56fcac2" d="M 0 0 
L -3.5 0 
" style="stroke: #000000; stroke-width: 0.8"/>
      </defs>
      <g>
       <use xlink:href="#m92e56fcac2" x="51.6375" y="275.777314" style="stroke: #000000; stroke-width: 0.8"/>
      </g>
     </g>
     <g id="text_8">
      <!-- 0.000 -->
      <g transform="translate(19.6375 279.351533) scale(0.1 -0.1)">
       <use xlink:href="#SimSun-30"/>
       <use xlink:href="#SimSun-2e" transform="translate(50 0)"/>
       <use xlink:href="#SimSun-30" transform="translate(100 0)"/>
       <use xlink:href="#SimSun-30" transform="translate(150 0)"/>
       <use xlink:href="#SimSun-30" transform="translate(200 0)"/>
      </g>
     </g>
    </g>
    <g id="ytick_2">
     <g id="line2d_15">
      <path d="M 51.6375 235.819113 
L 408.7575 235.819113 
" clip-path="url(#p563aeacc66)" style="fill: none; stroke: #b0b0b0; stroke-width: 0.8; stroke-linecap: square"/>
     </g>
     <g id="line2d_16">
      <g>
       <use xlink:href="#m92e56fcac2" x="51.6375" y="235.819113" style="stroke: #000000; stroke-width: 0.8"/>
      </g>
     </g>
     <g id="text_9">
      <!-- 0.002 -->
      <g transform="translate(19.6375 239.393332) scale(0.1 -0.1)">
       <use xlink:href="#SimSun-30"/>
       <use xlink:href="#SimSun-2e" transform="translate(50 0)"/>
       <use xlink:href="#SimSun-30" transform="translate(100 0)"/>
       <use xlink:href="#SimSun-30" transform="translate(150 0)"/>
       <use xlink:href="#SimSun-32" transform="translate(200 0)"/>
      </g>
     </g>
    </g>
    <g id="ytick_3">
     <g id="line2d_17">
      <path d="M 51.6375 195.860913 
L 408.7575 195.860913 
" clip-path="url(#p563aeacc66)" style="fill: none; stroke: #b0b0b0; stroke-width: 0.8; stroke-linecap: square"/>
     </g>
     <g id="line2d_18">
      <g>
       <use xlink:href="#m92e56fcac2" x="51.6375" y="195.860913" style="stroke: #000000; stroke-width: 0.8"/>
      </g>
     </g>
     <g id="text_10">
      <!-- 0.004 -->
      <g transform="translate(19.6375 199.435131) scale(0.1 -0.1)">
       <use xlink:href="#SimSun-30"/>
       <use xlink:href="#SimSun-2e" transform="translate(50 0)"/>
       <use xlink:href="#SimSun-30" transform="translate(100 0)"/>
       <use xlink:href="#SimSun-30" transform="translate(150 0)"/>
       <use xlink:href="#SimSun-34" transform="translate(200 0)"/>
      </g>
     </g>
    </g>
    <g id="ytick_4">
     <g id="line2d_19">
      <path d="M 51.6375 155.902712 
L 408.7575 155.902712 
" clip-path="url(#p563aeacc66)" style="fill: none; stroke: #b0b0b0; stroke-width: 0.8; stroke-linecap: square"/>
     </g>
     <g id="line2d_20">
      <g>
       <use xlink:href="#m92e56fcac2" x="51.6375" y="155.902712" style="stroke: #000000; stroke-width: 0.8"/>
      </g>
     </g>
     <g id="text_11">
      <!-- 0.006 -->
      <g transform="translate(19.6375 159.476931) scale(0.1 -0.1)">
       <use xlink:href="#SimSun-30"/>
       <use xlink:href="#SimSun-2e" transform="translate(50 0)"/>
       <use xlink:href="#SimSun-30" transform="translate(100 0)"/>
       <use xlink:href="#SimSun-30" transform="translate(150 0)"/>
       <use xlink:href="#SimSun-36" transform="translate(200 0)"/>
      </g>
     </g>
    </g>
    <g id="ytick_5">
     <g id="line2d_21">
      <path d="M 51.6375 115.944512 
L 408.7575 115.944512 
" clip-path="url(#p563aeacc66)" style="fill: none; stroke: #b0b0b0; stroke-width: 0.8; stroke-linecap: square"/>
     </g>
     <g id="line2d_22">
      <g>
       <use xlink:href="#m92e56fcac2" x="51.6375" y="115.944512" style="stroke: #000000; stroke-width: 0.8"/>
      </g>
     </g>
     <g id="text_12">
      <!-- 0.008 -->
      <g transform="translate(19.6375 119.51873) scale(0.1 -0.1)">
       <use xlink:href="#SimSun-30"/>
       <use xlink:href="#SimSun-2e" transform="translate(50 0)"/>
       <use xlink:href="#SimSun-30" transform="translate(100 0)"/>
       <use xlink:href="#SimSun-30" transform="translate(150 0)"/>
       <use xlink:href="#SimSun-38" transform="translate(200 0)"/>
      </g>
     </g>
    </g>
    <g id="ytick_6">
     <g id="line2d_23">
      <path d="M 51.6375 75.986311 
L 408.7575 75.986311 
" clip-path="url(#p563aeacc66)" style="fill: none; stroke: #b0b0b0; stroke-width: 0.8; stroke-linecap: square"/>
     </g>
     <g id="line2d_24">
      <g>
       <use xlink:href="#m92e56fcac2" x="51.6375" y="75.986311" style="stroke: #000000; stroke-width: 0.8"/>
      </g>
     </g>
     <g id="text_13">
      <!-- 0.010 -->
      <g transform="translate(19.6375 79.56053) scale(0.1 -0.1)">
       <use xlink:href="#SimSun-30"/>
       <use xlink:href="#SimSun-2e" transform="translate(50 0)"/>
       <use xlink:href="#SimSun-30" transform="translate(100 0)"/>
       <use xlink:href="#SimSun-31" transform="translate(150 0)"/>
       <use xlink:href="#SimSun-30" transform="translate(200 0)"/>
      </g>
     </g>
    </g>
    <g id="ytick_7">
     <g id="line2d_25">
      <path d="M 51.6375 36.028111 
L 408.7575 36.028111 
" clip-path="url(#p563aeacc66)" style="fill: none; stroke: #b0b0b0; stroke-width: 0.8; stroke-linecap: square"/>
     </g>
     <g id="line2d_26">
      <g>
       <use xlink:href="#m92e56fcac2" x="51.6375" y="36.028111" style="stroke: #000000; stroke-width: 0.8"/>
      </g>
     </g>
     <g id="text_14">
      <!-- 0.012 -->
      <g transform="translate(19.6375 39.602329) scale(0.1 -0.1)">
       <use xlink:href="#SimSun-30"/>
       <use xlink:href="#SimSun-2e" transform="translate(50 0)"/>
       <use xlink:href="#SimSun-30" transform="translate(100 0)"/>
       <use xlink:href="#SimSun-31" transform="translate(150 0)"/>
       <use xlink:href="#SimSun-32" transform="translate(200 0)"/>
      </g>
     </g>
    </g>
    <g id="text_15">
     <!-- Error -->
     <g transform="translate(14.348438 167.334125) rotate(-90) scale(0.1 -0.1)">
      <defs>
       <path id="SimSun-45" d="M 200 4225 
L 200 4375 
L 2650 4375 
L 2925 3525 
L 2800 3475 
Q 2600 3850 2375 4037 
Q 2150 4225 1875 4225 
L 1175 4225 
Q 1075 4225 1012 4175 
Q 950 4125 950 4025 
L 950 2475 
L 1675 2475 
Q 1925 2475 2037 2600 
Q 2150 2725 2150 2975 
L 2150 3125 
L 2300 3125 
L 2300 1650 
L 2150 1650 
L 2150 1750 
Q 2150 2025 2037 2175 
Q 1925 2325 1675 2325 
L 950 2325 
L 950 450 
Q 950 350 1012 300 
Q 1075 250 1175 250 
L 1825 250 
Q 2200 250 2462 462 
Q 2725 675 2875 1125 
L 3000 1075 
L 2725 100 
L 175 100 
L 175 250 
L 325 250 
Q 450 250 500 300 
Q 550 350 550 450 
L 550 4025 
Q 550 4125 500 4175 
Q 450 4225 325 4225 
L 200 4225 
z
" transform="scale(0.015625)"/>
       <path id="SimSun-72" d="M 1275 2125 
Q 1525 2525 1812 2737 
Q 2100 2950 2400 2950 
Q 2650 2950 2787 2837 
Q 2925 2725 2925 2575 
Q 2925 2450 2862 2375 
Q 2800 2300 2675 2300 
Q 2550 2300 2487 2375 
Q 2425 2450 2450 2575 
Q 2450 2650 2425 2700 
Q 2400 2750 2275 2750 
Q 2075 2750 1787 2500 
Q 1500 2250 1275 1800 
L 1275 450 
Q 1275 350 1337 300 
Q 1400 250 1500 250 
L 2050 250 
L 2050 100 
L 200 100 
L 200 250 
L 700 250 
Q 825 250 875 300 
Q 925 350 925 450 
L 925 2525 
Q 925 2625 875 2687 
Q 825 2750 700 2750 
L 225 2750 
L 225 2900 
L 425 2900 
Q 600 2900 837 2937 
Q 1075 2975 1200 3025 
L 1275 3025 
L 1275 2125 
z
" transform="scale(0.015625)"/>
       <path id="SimSun-6f" d="M 2900 1500 
Q 2900 875 2525 462 
Q 2150 50 1600 50 
Q 1025 50 662 475 
Q 300 900 300 1500 
Q 300 2050 662 2500 
Q 1025 2950 1600 2950 
Q 2200 2950 2550 2500 
Q 2900 2050 2900 1500 
z
M 700 1475 
Q 700 825 962 512 
Q 1225 200 1600 200 
Q 2025 200 2262 537 
Q 2500 875 2500 1475 
Q 2500 2125 2237 2462 
Q 1975 2800 1600 2800 
Q 1250 2800 975 2462 
Q 700 2125 700 1475 
z
" transform="scale(0.015625)"/>
      </defs>
      <use xlink:href="#SimSun-45"/>
      <use xlink:href="#SimSun-72" transform="translate(50 0)"/>
      <use xlink:href="#SimSun-72" transform="translate(100 0)"/>
      <use xlink:href="#SimSun-6f" transform="translate(150 0)"/>
      <use xlink:href="#SimSun-72" transform="translate(200 0)"/>
     </g>
    </g>
   </g>
   <g id="line2d_27">
    <path d="M 67.870227 275.777313 
L 78.162806 275.665211 
L 88.455384 275.330316 
L 98.747962 274.772635 
L 109.040541 273.992181 
L 119.333119 272.988973 
L 129.658166 271.758817 
L 139.983213 270.304553 
L 150.340729 268.620586 
L 160.698245 266.711177 
L 171.088229 264.569326 
L 181.478214 262.200716 
L 191.900667 259.596941 
L 202.355589 256.755933 
L 212.842979 253.675625 
L 223.362838 250.353951 
L 233.915166 246.788845 
L 244.499963 242.978241 
L 255.149697 238.907304 
L 265.8319 234.585292 
L 276.546571 230.01014 
L 287.32618 225.164822 
L 298.138258 220.060769 
L 309.015273 214.679483 
L 319.924756 209.033854 
L 330.899177 203.103901 
L 341.938536 196.885323 
L 353.042832 190.373808 
L 364.179596 183.585198 
L 375.381298 176.496502 
L 386.647938 169.10338 
L 392.524773 165.142291 
L 392.524773 165.142291 
" clip-path="url(#p563aeacc66)" style="fill: none; stroke: #0000ff; stroke-width: 1.5; stroke-linecap: square"/>
   </g>
   <g id="line2d_28">
    <path d="M 67.870227 275.794125 
L 68.065039 275.777376 
L 74.071749 275.68802 
L 81.020051 275.378039 
L 87.968353 274.846202 
L 94.949124 274.08847 
L 101.929895 273.106812 
L 108.910666 271.901237 
L 115.923905 270.46458 
L 122.969614 268.793715 
L 130.04779 266.8855 
L 137.125967 264.747121 
L 144.236613 262.367201 
L 151.412196 259.730111 
L 158.620248 256.842995 
L 165.860768 253.702651 
L 173.133757 250.305866 
L 180.471684 246.632617 
L 187.842079 242.694271 
L 195.277412 238.46856 
L 202.777682 233.948872 
L 210.31042 229.149788 
L 217.908097 224.045607 
L 225.57071 218.629583 
L 233.298261 212.894917 
L 241.090749 206.834756 
L 248.948175 200.442195 
L 256.903007 193.682095 
L 264.922776 186.573246 
L 273.007483 179.108559 
L 281.157127 171.280892 
L 289.404177 163.050037 
L 297.716165 154.439299 
L 306.125558 145.405856 
L 314.599889 135.975324 
L 323.171627 126.102219 
L 331.808301 115.814517 
L 340.542382 105.064031 
L 349.373869 93.83922 
L 358.302761 82.128427 
L 367.296592 69.964461 
L 376.387828 57.293547 
L 385.576471 44.103722 
L 392.524773 33.874125 
L 392.524773 33.874125 
" clip-path="url(#p563aeacc66)" style="fill: none; stroke: #ff0000; stroke-width: 1.5; stroke-linecap: square"/>
   </g>
   <g id="patch_3">
    <path d="M 51.6375 287.890125 
L 51.6375 21.778125 
" style="fill: none; stroke: #000000; stroke-width: 0.8; stroke-linejoin: miter; stroke-linecap: square"/>
   </g>
   <g id="patch_4">
    <path d="M 408.7575 287.890125 
L 408.7575 21.778125 
" style="fill: none; stroke: #000000; stroke-width: 0.8; stroke-linejoin: miter; stroke-linecap: square"/>
   </g>
   <g id="patch_5">
    <path d="M 51.6375 287.890125 
L 408.7575 287.890125 
" style="fill: none; stroke: #000000; stroke-width: 0.8; stroke-linejoin: miter; stroke-linecap: square"/>
   </g>
   <g id="patch_6">
    <path d="M 51.6375 21.778125 
L 408.7575 21.778125 
" style="fill: none; stroke: #000000; stroke-width: 0.8; stroke-linejoin: miter; stroke-linecap: square"/>
   </g>
   <g id="text_16">
    <!-- Error vs. Δx -->
    <g transform="translate(191.1975 15.778125) scale(0.12 -0.12)">
     <defs>
      <path id="SimSun-76" d="M 1625 75 
L 1475 75 
L 625 2525 
Q 600 2625 525 2687 
Q 450 2750 350 2750 
L 225 2750 
L 225 2900 
L 1300 2900 
L 1300 2750 
L 1200 2750 
Q 1050 2750 1025 2700 
Q 1000 2650 1000 2600 
Q 1000 2500 1025 2425 
L 1625 675 
L 1675 675 
L 2275 2400 
Q 2325 2525 2325 2575 
Q 2325 2600 2275 2675 
Q 2225 2750 2075 2750 
L 2025 2750 
L 2025 2900 
L 2925 2900 
L 2925 2750 
L 2875 2750 
Q 2725 2750 2637 2662 
Q 2550 2575 2475 2400 
L 1625 75 
z
M 2600 2750 
L 2600 2750 
z
M 2400 2750 
L 2400 2750 
z
M 925 2750 
L 925 2750 
z
M 550 2750 
L 550 2750 
z
" transform="scale(0.015625)"/>
     </defs>
     <use xlink:href="#SimSun-45"/>
     <use xlink:href="#SimSun-72" transform="translate(50 0)"/>
     <use xlink:href="#SimSun-72" transform="translate(100 0)"/>
     <use xlink:href="#SimSun-6f" transform="translate(150 0)"/>
     <use xlink:href="#SimSun-72" transform="translate(200 0)"/>
     <use xlink:href="#SimSun-20" transform="translate(250 0)"/>
     <use xlink:href="#SimSun-76" transform="translate(300 0)"/>
     <use xlink:href="#SimSun-73" transform="translate(350 0)"/>
     <use xlink:href="#SimSun-2e" transform="translate(400 0)"/>
     <use xlink:href="#SimSun-20" transform="translate(450 0)"/>
     <use xlink:href="#SimSun-394" transform="translate(500 0)"/>
     <use xlink:href="#SimSun-78" transform="translate(600 0)"/>
    </g>
   </g>
   <g id="legend_1">
    <g id="patch_7">
     <path d="M 58.6375 56.653125 
L 200.6375 56.653125 
Q 202.6375 56.653125 202.6375 54.653125 
L 202.6375 28.778125 
Q 202.6375 26.778125 200.6375 26.778125 
L 58.6375 26.778125 
Q 56.6375 26.778125 56.6375 28.778125 
L 56.6375 54.653125 
Q 56.6375 56.653125 58.6375 56.653125 
z
" style="fill: #ffffff; opacity: 0.8; stroke: #cccccc; stroke-linejoin: miter"/>
    </g>
    <g id="line2d_29">
     <path d="M 60.6375 34.426562 
L 70.6375 34.426562 
L 80.6375 34.426562 
" style="fill: none; stroke: #0000ff; stroke-width: 1.5; stroke-linecap: square"/>
    </g>
    <g id="text_17">
     <!-- 1st C-Derivative Error -->
     <g transform="translate(88.6375 37.926562) scale(0.1 -0.1)">
      <defs>
       <path id="SimSun-43" d="M 1725 50 
Q 1025 50 612 575 
Q 200 1100 200 2225 
Q 200 3175 637 3800 
Q 1075 4425 1825 4425 
Q 2000 4425 2175 4375 
Q 2350 4300 2475 4300 
Q 2575 4300 2637 4325 
Q 2700 4350 2750 4425 
L 2975 3325 
L 2825 3275 
Q 2675 3750 2425 4000 
Q 2175 4250 1775 4250 
Q 1250 4250 962 3675 
Q 675 3100 675 2250 
Q 675 1325 925 800 
Q 1175 275 1750 275 
Q 2150 275 2437 562 
Q 2725 850 2825 1325 
L 2975 1250 
Q 2850 725 2512 387 
Q 2175 50 1725 50 
z
" transform="scale(0.015625)"/>
       <path id="SimSun-2d" d="M 200 2225 
L 200 2450 
L 2975 2450 
L 2975 2225 
L 200 2225 
z
" transform="scale(0.015625)"/>
       <path id="SimSun-44" d="M 2500 2275 
Q 2500 3350 2175 3787 
Q 1850 4225 1275 4225 
Q 1100 4225 1012 4175 
Q 925 4125 925 4025 
L 925 450 
Q 925 350 1000 300 
Q 1075 250 1200 250 
Q 1750 250 2125 662 
Q 2500 1075 2500 2275 
z
M 525 4025 
Q 525 4125 475 4175 
Q 425 4225 300 4225 
L 150 4225 
L 150 4375 
L 1275 4375 
Q 2050 4375 2512 3875 
Q 2975 3375 2975 2325 
Q 2975 1175 2525 637 
Q 2075 100 1200 100 
L 125 100 
L 125 250 
L 300 250 
Q 425 250 475 300 
Q 525 350 525 450 
L 525 4025 
z
" transform="scale(0.015625)"/>
       <path id="SimSun-61" d="M 1225 75 
Q 775 75 525 287 
Q 275 500 275 775 
Q 275 1225 662 1512 
Q 1050 1800 2200 1925 
L 2200 2225 
Q 2200 2475 2087 2637 
Q 1975 2800 1575 2800 
Q 1150 2800 975 2662 
Q 800 2525 850 2375 
Q 875 2325 875 2275 
Q 875 2225 837 2150 
Q 800 2075 650 2075 
Q 550 2075 487 2137 
Q 425 2200 425 2325 
Q 425 2550 750 2750 
Q 1075 2950 1550 2950 
Q 2050 2950 2300 2762 
Q 2550 2575 2550 2225 
L 2550 575 
Q 2550 375 2587 337 
Q 2625 300 2725 300 
Q 2850 300 2900 412 
Q 2950 525 2950 725 
L 3075 725 
Q 3075 375 2950 237 
Q 2825 100 2625 100 
Q 2450 100 2350 175 
Q 2250 250 2200 425 
Q 1950 250 1737 162 
Q 1525 75 1225 75 
z
M 700 850 
Q 700 625 837 437 
Q 975 250 1275 250 
Q 1500 250 1725 337 
Q 1950 425 2200 600 
L 2200 1775 
Q 1350 1675 1025 1437 
Q 700 1200 700 850 
z
" transform="scale(0.015625)"/>
      </defs>
      <use xlink:href="#SimSun-31"/>
      <use xlink:href="#SimSun-73" transform="translate(50 0)"/>
      <use xlink:href="#SimSun-74" transform="translate(100 0)"/>
      <use xlink:href="#SimSun-20" transform="translate(150 0)"/>
      <use xlink:href="#SimSun-43" transform="translate(200 0)"/>
      <use xlink:href="#SimSun-2d" transform="translate(250 0)"/>
      <use xlink:href="#SimSun-44" transform="translate(300 0)"/>
      <use xlink:href="#SimSun-65" transform="translate(350 0)"/>
      <use xlink:href="#SimSun-72" transform="translate(400 0)"/>
      <use xlink:href="#SimSun-69" transform="translate(450 0)"/>
      <use xlink:href="#SimSun-76" transform="translate(500 0)"/>
      <use xlink:href="#SimSun-61" transform="translate(550 0)"/>
      <use xlink:href="#SimSun-74" transform="translate(600 0)"/>
      <use xlink:href="#SimSun-69" transform="translate(650 0)"/>
      <use xlink:href="#SimSun-76" transform="translate(700 0)"/>
      <use xlink:href="#SimSun-65" transform="translate(750 0)"/>
      <use xlink:href="#SimSun-20" transform="translate(800 0)"/>
      <use xlink:href="#SimSun-45" transform="translate(850 0)"/>
      <use xlink:href="#SimSun-72" transform="translate(900 0)"/>
      <use xlink:href="#SimSun-72" transform="translate(950 0)"/>
      <use xlink:href="#SimSun-6f" transform="translate(1000 0)"/>
      <use xlink:href="#SimSun-72" transform="translate(1050 0)"/>
     </g>
    </g>
    <g id="line2d_30">
     <path d="M 60.6375 47.864062 
L 70.6375 47.864062 
L 80.6375 47.864062 
" style="fill: none; stroke: #ff0000; stroke-width: 1.5; stroke-linecap: square"/>
    </g>
    <g id="text_18">
     <!-- 2nd C-Derivative Error -->
     <g transform="translate(88.6375 51.364062) scale(0.1 -0.1)">
      <defs>
       <path id="SimSun-6e" d="M 200 100 
L 200 250 
L 325 250 
Q 450 250 500 300 
Q 550 350 550 450 
L 550 2600 
Q 550 2675 525 2712 
Q 500 2750 425 2750 
L 225 2750 
L 225 2900 
L 400 2900 
Q 525 2900 637 2925 
Q 750 2950 850 3025 
L 900 3025 
L 900 2450 
Q 1125 2700 1350 2825 
Q 1575 2950 1825 2950 
Q 2250 2950 2450 2725 
Q 2650 2500 2650 2050 
L 2650 450 
Q 2650 350 2712 300 
Q 2775 250 2875 250 
L 3000 250 
L 3000 100 
L 1950 100 
L 1950 250 
L 2075 250 
Q 2200 250 2250 300 
Q 2300 350 2300 450 
L 2300 2125 
Q 2300 2425 2175 2587 
Q 2050 2750 1800 2750 
Q 1575 2750 1337 2600 
Q 1100 2450 900 2175 
L 900 450 
Q 900 350 962 300 
Q 1025 250 1125 250 
L 1250 250 
L 1250 100 
L 200 100 
z
" transform="scale(0.015625)"/>
       <path id="SimSun-64" d="M 2300 2350 
Q 2175 2550 1975 2637 
Q 1775 2725 1575 2725 
Q 1200 2725 987 2375 
Q 775 2025 775 1450 
Q 775 850 975 562 
Q 1175 275 1550 275 
Q 1825 275 2012 450 
Q 2200 625 2300 975 
L 2300 2350 
z
M 1475 75 
Q 1025 75 700 437 
Q 375 800 375 1500 
Q 375 2150 725 2537 
Q 1075 2925 1550 2925 
Q 1750 2925 1962 2837 
Q 2175 2750 2300 2575 
L 2300 3925 
Q 2300 4075 2250 4150 
Q 2200 4225 2075 4225 
L 1875 4225 
L 1875 4375 
L 2150 4375 
Q 2275 4375 2400 4425 
Q 2525 4475 2650 4575 
L 2650 625 
Q 2650 500 2700 450 
Q 2750 400 2850 400 
L 3025 400 
L 3025 250 
L 2875 250 
Q 2775 250 2637 212 
Q 2500 175 2350 100 
L 2300 100 
L 2300 575 
Q 2175 350 1962 212 
Q 1750 75 1475 75 
z
" transform="scale(0.015625)"/>
      </defs>
      <use xlink:href="#SimSun-32"/>
      <use xlink:href="#SimSun-6e" transform="translate(50 0)"/>
      <use xlink:href="#SimSun-64" transform="translate(100 0)"/>
      <use xlink:href="#SimSun-20" transform="translate(150 0)"/>
      <use xlink:href="#SimSun-43" transform="translate(200 0)"/>
      <use xlink:href="#SimSun-2d" transform="translate(250 0)"/>
      <use xlink:href="#SimSun-44" transform="translate(300 0)"/>
      <use xlink:href="#SimSun-65" transform="translate(350 0)"/>
      <use xlink:href="#SimSun-72" transform="translate(400 0)"/>
      <use xlink:href="#SimSun-69" transform="translate(450 0)"/>
      <use xlink:href="#SimSun-76" transform="translate(500 0)"/>
      <use xlink:href="#SimSun-61" transform="translate(550 0)"/>
      <use xlink:href="#SimSun-74" transform="translate(600 0)"/>
      <use xlink:href="#SimSun-69" transform="translate(650 0)"/>
      <use xlink:href="#SimSun-76" transform="translate(700 0)"/>
      <use xlink:href="#SimSun-65" transform="translate(750 0)"/>
      <use xlink:href="#SimSun-20" transform="translate(800 0)"/>
      <use xlink:href="#SimSun-45" transform="translate(850 0)"/>
      <use xlink:href="#SimSun-72" transform="translate(900 0)"/>
      <use xlink:href="#SimSun-72" transform="translate(950 0)"/>
      <use xlink:href="#SimSun-6f" transform="translate(1000 0)"/>
      <use xlink:href="#SimSun-72" transform="translate(1050 0)"/>
     </g>
    </g>
   </g>
  </g>
 </g>
 <defs>
  <clipPath id="p563aeacc66">
   <rect x="51.6375" y="21.778125" width="357.12" height="266.112"/>
  </clipPath>
 </defs>
</svg>
